<?xml version="1.0" standalone="no"?>
<!DOCTYPE svg PUBLIC "-//W3C//DTD SVG 1.1//EN" "http://www.w3.org/Graphics/SVG/1.1/DTD/svg11.dtd" >
<svg xmlns="http://www.w3.org/2000/svg" xmlns:xlink="http://www.w3.org/1999/xlink" version="1.1">
<metadata></metadata>
<defs>
<font id="densia_sansregular" horiz-adv-x="380" >
<font-face units-per-em="1000" ascent="770" descent="-230" />
<missing-glyph horiz-adv-x="166" />
<glyph unicode=" "  horiz-adv-x="166" />
<glyph unicode="&#x09;" horiz-adv-x="166" />
<glyph unicode="&#xa0;" horiz-adv-x="166" />
<glyph unicode="!" horiz-adv-x="202" d="M138 50q0 -31 -8 -42t-29 -11t-29 11t-8 42t8 42t29 11t29 -11t8 -42zM72 770h58l-10 -575h-38z" />
<glyph unicode="&#x22;" horiz-adv-x="296" d="M111 576h-36l-15 204h66zM221 576h-36l-15 204h66z" />
<glyph unicode="#" horiz-adv-x="432" d="M72 505l7 35h74l41 210h40l-41 -210h108l41 210h40l-41 -210h76l-7 -35h-75l-50 -260h75l-7 -35h-75l-40 -210h-40l40 210h-108l-40 -210h-40l40 210h-75l7 35h75l50 260h-75zM187 505l-50 -260h108l50 260h-108z" />
<glyph unicode="$" horiz-adv-x="382" d="M221 -80h-50l2 111q-105 11 -133 151l44 12q18 -105 90 -123l6 293q-70 60 -95.5 106.5t-25.5 103.5q0 62 32.5 98.5t81.5 44.5l-2 113h50l-3 -112q94 -11 119 -148l-42 -11q-17 102 -78 118l-6 -269q79 -63 105 -110.5t26 -103.5q0 -72 -33.5 -113.5t-89.5 -49.5z M295 194q0 73 -83 156l6 -279q36 7 56.5 39t20.5 84zM106 574q0 -85 74 -155l-6 258q-31 -8 -49.5 -35t-18.5 -68z" />
<glyph unicode="%" horiz-adv-x="484" d="M400 750h43l-359 -750h-43zM119 756q42 0 65.5 -51t23.5 -137q0 -87 -23.5 -137t-65.5 -50t-65.5 50t-23.5 137q0 86 23.5 137t65.5 51zM119 422q52 0 52 146q0 70 -14 108.5t-38 38.5t-38 -38.5t-14 -108.5q0 -146 52 -146zM365 371q42 0 65.5 -51t23.5 -137 q0 -87 -23.5 -137t-65.5 -50t-65.5 50t-23.5 137q0 86 23.5 137t65.5 51zM365 37q52 0 52 146q0 70 -14 108.5t-38 38.5t-38 -38.5t-14 -108.5q0 -146 52 -146z" />
<glyph unicode="&#x26;" horiz-adv-x="483" d="M442 0h-54l-76 135q-71 -145 -146 -145q-54 0 -91 46t-37 129q0 143 126 240q-39 76 -52.5 120t-13.5 87q0 69 32.5 108.5t78.5 39.5q51 0 81 -37t46 -123l-47 -12q-7 63 -28 97.5t-51 34.5q-29 0 -45 -29.5t-16 -75.5q0 -55 32.5 -132.5t140.5 -271.5l70 186l47 -12 l-98 -207q60 -107 101 -178zM294 167q-78 140 -113 206q-90 -78 -90 -208q0 -61 24.5 -98t54.5 -37q32 0 61 35t63 102z" />
<glyph unicode="'" horiz-adv-x="186" d="M111 576h-36l-15 204h66z" />
<glyph unicode="(" horiz-adv-x="226" d="M110 269q0 -169 32 -297.5t74 -174.5l-24 -24q-55 50 -93.5 177t-38.5 319t38.5 319t93.5 177l24 -24q-42 -46 -74 -174.5t-32 -297.5z" />
<glyph unicode=")" horiz-adv-x="226" d="M116 269q0 169 -32 297.5t-74 174.5l24 24q55 -50 93.5 -177t38.5 -319t-38.5 -319t-93.5 -177l-24 24q42 46 74 174.5t32 297.5z" />
<glyph unicode="*" horiz-adv-x="199" d="M105 696h-12l-29 84h70zM109 645l10 7l73 -50l-57 -42zM79 652l10 -7l-26 -85l-57 42zM76 684l-4 -12l-88 -1l21 66zM126 672l-4 12l71 53l21 -66z" />
<glyph unicode="+" horiz-adv-x="317" d="M30 322v39h108v129h39v-129h110v-39h-110v-129h-39v129h-108z" />
<glyph unicode="," horiz-adv-x="174" d="M49 -104h-36l51 204h66z" />
<glyph unicode="-" horiz-adv-x="237" d="M30 282v44h177v-44h-177z" />
<glyph unicode="." horiz-adv-x="174" d="M124 50q0 -31 -8 -42t-29 -11t-29 11t-8 42t8 42t29 11t29 -11t8 -42z" />
<glyph unicode="/" horiz-adv-x="265" d="M221 770h44l-221 -900h-44z" />
<glyph unicode="0" horiz-adv-x="407" d="M357 375q0 -185 -39.5 -285t-114.5 -100t-114 100t-39 285t39 285t114 100t114.5 -100t39.5 -285zM94 375q0 -147 27.5 -239.5t81.5 -92.5t82 93t28 239t-28 239t-82 93t-81.5 -92.5t-27.5 -239.5z" />
<glyph unicode="1" horiz-adv-x="272" d="M132 750h50v-750h-50v604l6 103h-4l-40 -72l-39 -68l-39 33z" />
<glyph unicode="2" horiz-adv-x="363" d="M88 33l221 17v-50h-274q0 57 34 147.5t92 186.5q106 176 106 260q0 60 -21 93t-60 33q-37 0 -63.5 -37t-35.5 -105l-47 12q28 170 147 170q131 0 131 -166q0 -39 -17 -86.5t-34.5 -80.5t-65.5 -115q-105 -181 -113 -279z" />
<glyph unicode="3" horiz-adv-x="387" d="M146 382h-9v44h9q138 0 138 168q0 60 -20.5 93t-59.5 33q-37 0 -64 -37t-36 -105l-47 12q28 170 145 170q133 0 133 -166q0 -38 -10 -74t-36.5 -69t-65.5 -44q52 -18 83 -71t31 -131q0 -110 -41.5 -162.5t-113.5 -52.5q-118 0 -147 172l49 13q10 -69 36 -107t64 -38 q52 0 77 41.5t25 131.5q0 35 -5 63t-18.5 56t-43 44t-73.5 16z" />
<glyph unicode="4" horiz-adv-x="401" d="M301 0h-50v200h-225l-6 29l233 521h48v-509l65 4v-45h-65v-200zM77 228l174 10v352l6 92h-4l-31 -83z" />
<glyph unicode="5" horiz-adv-x="382" d="M84 175q10 -69 36 -107t64 -38q52 0 77 51.5t25 161.5q0 96 -26.5 147.5t-72.5 51.5q-47 0 -88 -53l-28 14l23 347h217v-50l-170 14l-14 -218l-9 -47l3 -2q10 13 30 22q23 11 53 11q53 0 93 -59.5t40 -175.5q0 -131 -41.5 -193t-113.5 -62q-118 0 -147 172z" />
<glyph unicode="6" horiz-adv-x="392" d="M101 375l-6 -51l4 -1q5 14 20 36q45 61 108 61q50 0 87.5 -51t37.5 -154q0 -116 -42.5 -170.5t-100.5 -54.5q-26 0 -45 6t-42 28.5t-37.5 62t-24.5 113t-10 175.5q0 114 14 194t38 119t49 55.5t54 16.5q109 0 135 -170l-47 -12q-9 72 -33.5 107t-56.5 35 q-102 0 -102 -345zM216 385q-32 0 -62.5 -29.5t-50.5 -72.5q4 -81 14.5 -135t27 -78t31 -32t33.5 -8q39 0 65.5 44t26.5 139q0 86 -24 129t-61 43z" />
<glyph unicode="7" horiz-adv-x="348" d="M30 750h288l-229 -750h-48l219 717l-230 -17v50z" />
<glyph unicode="8" horiz-adv-x="399" d="M349 178q0 -81 -40.5 -134.5t-109.5 -53.5q-75 0 -112 49.5t-37 137.5q0 61 33.5 119t83.5 100q-50 45 -76 88t-26 107q0 72 33.5 120.5t100.5 48.5q68 0 100.5 -42t32.5 -115q0 -59 -29 -111t-73 -83q37 -33 59 -58.5t41 -72t19 -100.5zM94 182q0 -72 28 -112t77 -40 q43 0 73 40t30 99q0 48 -19 89.5t-39 63.5t-58 56q-92 -89 -92 -196zM288 597q0 52 -20.5 87.5t-68.5 35.5q-32 0 -53 -23.5t-27.5 -50t-6.5 -52.5q0 -36 15.5 -68t33.5 -51t50 -48q35 35 56 81.5t21 88.5z" />
<glyph unicode="9" horiz-adv-x="392" d="M40 535q0 116 42.5 170.5t100.5 54.5q26 0 45 -6t42 -28.5t37.5 -62t24.5 -113t10 -175.5q0 -114 -14 -194t-38 -119t-49 -55.5t-54 -16.5q-109 0 -135 170l47 12q9 -72 33.5 -107t56.5 -35q102 0 102 345l5 51l-4 1q-7 -19 -18 -36q-41 -61 -99 -61q-54 0 -94.5 51 t-40.5 154zM186 365q29 0 56.5 29t46.5 72q-4 82 -14.5 136t-27 78t-31 32t-33.5 8q-39 0 -65.5 -44t-26.5 -139q0 -86 27 -129t68 -43z" />
<glyph unicode=":" horiz-adv-x="174" d="M124 490q0 -31 -8 -42t-29 -11t-29 11t-8 42t8 42t29 11t29 -11t8 -42zM124 50q0 -31 -8 -42t-29 -11t-29 11t-8 42t8 42t29 11t29 -11t8 -42z" />
<glyph unicode=";" horiz-adv-x="174" d="M127 490q0 -31 -8 -42t-29 -11t-29 11t-8 42t8 42t29 11t29 -11t8 -42zM49 -104h-36l51 204h66z" />
<glyph unicode="&#x3c;" horiz-adv-x="299" d="M20 342l182 182l37 -38l-171 -144l171 -144l-37 -38z" />
<glyph unicode="=" horiz-adv-x="317" d="M30 397v39h257v-39h-257zM30 247v39h257v-39h-257z" />
<glyph unicode="&#x3e;" horiz-adv-x="299" d="M279 342l-182 -182l-37 38l171 144l-171 144l37 38z" />
<glyph unicode="?" horiz-adv-x="318" d="M155 195h-38q0 102 14 163t45 117q4 9 25 48t29.5 65t8.5 56q0 46 -21 71t-60 25q-37 0 -63.5 -37t-35.5 -105l-47 12q28 170 150 170q59 0 93.5 -35t34.5 -101q0 -27 -8 -54.5t-16.5 -44.5t-24.5 -45t-23 -42q-32 -57 -47.5 -115.5t-15.5 -147.5zM175 50q0 -31 -8 -42 t-29 -11t-29 11t-8 42t8 42t29 11t29 -11t8 -42z" />
<glyph unicode="@" horiz-adv-x="550" d="M375 505v-272q0 -80 41 -80q15 0 28 16t24.5 65t11.5 124q0 138 -50.5 210t-139.5 72q-94 0 -157 -89.5t-63 -241.5q0 -325 220 -325q74 0 138 39l16 -34q-30 -18 -73 -30t-81 -12q-134 0 -197 90.5t-63 271.5q0 170 75 269t185 99t170 -80.5t60 -238.5 q0 -126 -31.5 -182t-72.5 -56q-68 0 -85 98q-34 -98 -84 -98q-82 0 -82 189q0 109 29 157.5t70 48.5q44 0 72 -59l12 49h27zM252 163q44 0 76 113v142q-22 57 -51 57q-62 0 -62 -165q0 -147 37 -147z" />
<glyph unicode="A" horiz-adv-x="408" d="M336 0l-44 222h-176l-44 -222h-52l157 750h54l157 -750h-52zM202 698l-8 -80l-70 -352h159l-69 352l-8 80h-4z" />
<glyph unicode="B" horiz-adv-x="417" d="M80 0v750h99q174 0 174 -171q0 -127 -98 -160q112 -37 112 -205q0 -214 -174 -214h-113zM191 43q65 0 94 42t29 134t-29 134t-94 42h-61v-352h61zM177 707h-47v-269h47q65 0 94 31.5t29 102.5t-29 103t-94 32z" />
<glyph unicode="C" horiz-adv-x="389" d="M310 175l49 -13q-37 -172 -148 -172q-78 0 -119.5 90t-41.5 294q0 385 161 385q53 0 86 -40t50 -129l-47 -12q-24 141 -91 141q-106 0 -106 -345q0 -344 106 -344q71 0 101 145z" />
<glyph unicode="D" horiz-adv-x="442" d="M80 0v750h133q174 0 174 -376q0 -199 -45 -286.5t-129 -87.5h-133zM211 43q64 0 93.5 82t29.5 249t-29.5 250t-93.5 83h-81v-664h81z" />
<glyph unicode="E" horiz-adv-x="340" d="M80 0v750h230v-50l-180 13v-294l149 11v-52l-149 10v-352l180 14v-50h-230z" />
<glyph unicode="F" horiz-adv-x="340" d="M130 0h-50v750h230v-50l-180 13v-304l149 11v-52l-149 10v-378z" />
<glyph unicode="G" horiz-adv-x="429" d="M242 326v28h143q0 -194 -42 -279t-122 -85q-171 0 -171 384q0 385 171 385q56 0 92 -40t54 -129l-47 -12q-27 141 -101 141q-116 0 -116 -345q0 -344 118 -344q56 0 82 69.5t29 211.5z" />
<glyph unicode="H" horiz-adv-x="470" d="M130 0h-50v750h50v-324h210v324h50v-750h-50v382h-210v-382z" />
<glyph unicode="I" horiz-adv-x="270" d="M50 716v34h170v-34h-60v-682h60v-34h-170v34h60v682h-60z" />
<glyph unicode="J" d="M300 750v-519q0 -241 -137 -241q-112 0 -133 172l49 13q8 -72 27.5 -107t56.5 -35q87 0 87 178v539h50z" />
<glyph unicode="K" horiz-adv-x="418" d="M130 0h-50v750h50v-332h55l142 332h62l-175 -351l196 -399h-60l-167 379l1 1h-54v-380z" />
<glyph unicode="L" horiz-adv-x="330" d="M80 0v750h50v-714l180 14v-50h-230z" />
<glyph unicode="M" horiz-adv-x="510" d="M130 0h-50v750h50l98 -357l25 -126h4l25 126l98 357h50v-750h-50v570l7 94h-4l-28 -141l-82 -293h-36l-82 293l-28 141h-4l7 -94v-570z" />
<glyph unicode="N" horiz-adv-x="480" d="M130 0h-50v750h50l176 -507l48 -167h4l-8 103v571h50v-750h-50l-176 508l-48 167h-4l8 -103v-572z" />
<glyph unicode="O" horiz-adv-x="447" d="M50 374q0 204 44.5 294.5t128.5 90.5t129 -90.5t45 -294.5t-45 -294t-129 -90t-128.5 90t-44.5 294zM103 374q0 -344 120 -344q64 0 92.5 85.5t28.5 258.5t-28.5 259t-92.5 86q-120 0 -120 -345z" />
<glyph unicode="P" horiz-adv-x="407" d="M130 0h-50v750h113q82 0 128 -60t46 -179q0 -239 -174 -239h-63v-272zM191 707h-61v-392h61q65 0 94 47.5t29 148.5t-29 148.5t-94 47.5z" />
<glyph unicode="Q" horiz-adv-x="447" d="M50 374q0 204 44.5 294.5t128.5 90.5t129 -90.5t45 -294.5q0 -269 -83 -349l82 -139h-60l-60 114q-23 -10 -53 -10q-84 0 -128.5 90t-44.5 294zM200 147h43l47 -80q54 74 54 307q0 345 -123 345q-118 0 -118 -345q0 -344 118 -344q21 0 36 8z" />
<glyph unicode="R" horiz-adv-x="430" d="M130 0h-50v750h113q83 0 128.5 -51.5t45.5 -157.5q0 -186 -141 -207l164 -334h-60l-147 332h-53v-332zM191 375q65 0 94 39.5t29 126.5t-29 126.5t-94 39.5h-61v-332h61z" />
<glyph unicode="S" horiz-adv-x="382" d="M291 174q0 98 -114 203q-66 60 -92 107.5t-26 109.5q0 87 39.5 126t101.5 39q110 0 137 -169l-47 -12q-18 138 -92 138q-40 0 -64 -32t-24 -90q0 -49 22 -86.5t84 -91.5q126 -108 126 -242q0 -89 -42.5 -136.5t-112.5 -47.5q-118 0 -147 172l49 13q10 -69 36 -105.5 t64 -36.5q102 0 102 141z" />
<glyph unicode="T" horiz-adv-x="350" d="M200 0h-50v706h-130v44h310v-44h-130v-706z" />
<glyph unicode="U" horiz-adv-x="450" d="M70 284v466h50v-466q0 -253 104 -253q106 0 106 253v466h50v-466q0 -159 -40.5 -226.5t-114.5 -67.5q-75 0 -115 67.5t-40 226.5z" />
<glyph unicode="V" horiz-adv-x="408" d="M24 750h58l112 -644l9 -72h4l8 72l111 644h58l-156 -750h-48z" />
<glyph unicode="W" horiz-adv-x="581" d="M24 750h58l114 -644l8 -72h4l9 72l72 309l-60 335h58l92 -644l8 -71h4l9 71l99 644h58l-146 -750h-48l-50 280l-8 71h-4l-11 -71l-62 -280h-48z" />
<glyph unicode="X" horiz-adv-x="422" d="M305 750h58l-136 -339l164 -411h-59l-130 373l-120 -373h-58l164 410l-136 340h58l103 -299z" />
<glyph unicode="Y" horiz-adv-x="408" d="M24 750h58l124 -385l120 385h58l-155 -398v-352h-50v352z" />
<glyph unicode="Z" horiz-adv-x="338" d="M324 750l-247 -717l222 17v-50h-285l246 716l-200 -16v50h264z" />
<glyph unicode="[" horiz-adv-x="270" d="M230 750v-28l-80 -11v-883l80 -11v-28h-130v961h130z" />
<glyph unicode="\" horiz-adv-x="265" d="M0 770h44l221 -900h-44z" />
<glyph unicode="]" horiz-adv-x="270" d="M40 722v28h130v-961h-130v28l80 11v883z" />
<glyph unicode="^" horiz-adv-x="280" d="M140 770l122 -222l-25 -14l-97 150l-97 -150l-25 14z" />
<glyph unicode="_" horiz-adv-x="307" d="M30 -49v39h247v-39h-247z" />
<glyph unicode="`" horiz-adv-x="206" d="M158 618h-28l-103 152h66z" />
<glyph unicode="a" horiz-adv-x="358" d="M108 415l-49 12q8 54 41.5 88.5t84.5 34.5q52 0 82.5 -37.5t30.5 -107.5v-405h-40l-3 110h-4q-21 -63 -49 -91.5t-65 -28.5q-46 0 -74 34t-28 110q0 77 37 114t95 37q43 0 81 -27v124q0 128 -63 128q-32 0 -52 -25t-25 -70zM142 33q25 0 53.5 27.5t52.5 96.5v71 q-34 17 -81 17q-38 0 -58.5 -29t-20.5 -82q0 -101 54 -101z" />
<glyph unicode="b" horiz-adv-x="373" d="M98 0h-38v770h50v-261l-6 -96h4q52 137 115 137q24 0 42.5 -11.5t34.5 -40t24.5 -86.5t8.5 -143q0 -279 -116 -279q-64 0 -109 108h-4zM217 507q-24 0 -53.5 -39t-53.5 -117v-194q43 -124 101 -124q69 0 69 236q0 55 -4 98t-10 68.5t-14.5 42.5t-17 23t-17.5 6z" />
<glyph unicode="c" horiz-adv-x="310" d="M171 30q25 0 45.5 26t25.5 69l48 -12q-8 -54 -39.5 -88.5t-78.5 -34.5q-132 0 -132 279q0 281 131 281q46 0 73.5 -33t35.5 -88l-48 -12q-11 93 -63 93q-41 0 -58.5 -58.5t-17.5 -182.5t18 -181.5t60 -57.5z" />
<glyph unicode="d" horiz-adv-x="373" d="M40 269q0 281 122 281q29 0 56.5 -29.5t47.5 -77.5h4l-7 97v230h50v-770h-38l-4 107h-4q-24 -66 -51 -91.5t-60 -25.5q-116 0 -116 279zM162 33q23 0 50.5 28t50.5 96v248q-59 102 -100 102q-70 0 -70 -238q0 -236 69 -236z" />
<glyph unicode="e" horiz-adv-x="333" d="M171 30q25 0 45.5 26t25.5 69l48 -12q-8 -54 -39.5 -88.5t-78.5 -34.5q-132 0 -132 279q0 281 133 281q65 0 95 -65.5t23 -211.5h-198v-4q0 -124 18 -181.5t60 -57.5zM171 510q-74 0 -78 -209l145 12q2 108 -14.5 152.5t-52.5 44.5z" />
<glyph unicode="f" horiz-adv-x="230" d="M30 497v28l40 4v123q0 63 25 94t65 31q32 0 53 -7v-45q-18 9 -41 9q-29 0 -40.5 -19t-11.5 -66v-114l91 10v-48h-91v-497h-50v497h-40z" />
<glyph unicode="g" horiz-adv-x="355" d="M38 359q0 191 133 191q55 0 79 -24l105 25v-47h-87q37 -48 37 -145q0 -189 -134 -189q-34 0 -56 11q-31 -36 -31 -72q0 -27 29 -43.5t89 -27.5q73 -14 101.5 -47t28.5 -88t-38 -99t-115 -44q-47 0 -80.5 13t-49.5 34.5t-22.5 42t-6.5 41.5q0 81 66 132q-43 26 -43 72 q0 47 48 101q-53 44 -53 163zM91 359q0 -77 18 -113t60 -36q45 0 64 35.5t19 113.5q0 79 -19 115t-64 36q-42 0 -60 -36t-18 -115zM180 -8q-44 8 -76 21q-33 -45 -33 -107q0 -42 25.5 -73t85.5 -31q58 0 84 30t26 71q0 26 -25.5 52t-86.5 37z" />
<glyph unicode="h" horiz-adv-x="379" d="M110 0h-50v770h50v-355q55 135 132 135q42 0 59.5 -32t17.5 -113v-405h-50v382q0 69 -8 97t-31 28q-25 0 -60 -40t-60 -116v-351z" />
<glyph unicode="i" horiz-adv-x="192" d="M30 512v28h90v-540h-50v503zM127 700q0 -31 -8 -42t-29 -11t-29 11t-8 42t8 42t29 11t29 -11t8 -42z" />
<glyph unicode="j" horiz-adv-x="192" d="M30 512v28h90v-590q0 -68 -22.5 -96.5t-67.5 -28.5q-32 0 -53 7v45q18 -9 41 -9q29 0 40.5 23.5t11.5 81.5v530zM127 700q0 -31 -8 -42t-29 -11t-29 11t-8 42t8 42t29 11t29 -11t8 -42z" />
<glyph unicode="k" horiz-adv-x="349" d="M110 0h-50v770h50v-459h48l100 229h58l-125 -249l144 -291h-58l-120 274h-47v-274z" />
<glyph unicode="l" horiz-adv-x="180" d="M166 41v-41q-17 -7 -44 -7t-44.5 18.5t-17.5 56.5v702h50v-699q0 -35 25 -35q16 0 31 5z" />
<glyph unicode="m" horiz-adv-x="568" d="M431 550q42 0 59.5 -32t17.5 -113v-405h-50v382q0 69 -8 97t-31 28t-55 -39.5t-55 -114.5v-353h-50v382q0 69 -8 97t-31 28t-55 -39.5t-55 -114.5v-353h-50v540h38l7 -135h4q21 72 54.5 108.5t68.5 36.5q39 0 55.5 -32.5t16.5 -112.5h4q21 72 54.5 108.5t68.5 36.5z" />
<glyph unicode="n" horiz-adv-x="379" d="M110 0h-50v540h38l7 -135h4q15 52 50 98.5t83 46.5q42 0 59.5 -32t17.5 -113v-405h-50v382q0 69 -8 97t-31 28q-25 0 -60 -40t-60 -116v-351z" />
<glyph unicode="o" horiz-adv-x="367" d="M40 269q0 281 143 281q144 0 144 -281q0 -279 -144 -279q-143 0 -143 279zM93 269q0 -123 20.5 -181t67.5 -58q50 0 71.5 57.5t21.5 181.5q0 125 -21.5 183t-71.5 58q-47 0 -67.5 -58.5t-20.5 -182.5z" />
<glyph unicode="p" horiz-adv-x="373" d="M60 540h38l6 -127h4q52 137 115 137q24 0 42.5 -11.5t34.5 -40t24.5 -86.5t8.5 -143q0 -279 -116 -279q-64 0 -109 108h-4l6 -76v-252h-50v770zM217 507q-24 0 -53.5 -39t-53.5 -117v-194q43 -124 101 -124q69 0 69 236q0 55 -4 98t-10 68.5t-14.5 42.5t-17 23t-17.5 6z " />
<glyph unicode="q" horiz-adv-x="373" d="M275 540h38v-770h-50v253l8 84h-4q-42 -117 -111 -117q-116 0 -116 279q0 281 122 281q29 0 56.5 -29.5t47.5 -77.5h4zM162 33q23 0 50.5 28t50.5 96v248q-59 102 -100 102q-70 0 -70 -238q0 -236 69 -236z" />
<glyph unicode="r" horiz-adv-x="262" d="M110 0h-50v540h38l7 -128h4q55 138 133 138v-68q-85 0 -132 -132v-350z" />
<glyph unicode="s" horiz-adv-x="319" d="M271 429l-48 -12q-11 90 -63 90q-63 0 -63 -79q0 -32 20 -61.5t67 -71.5q54 -48 74.5 -83.5t20.5 -93.5q0 -61 -36.5 -94.5t-94.5 -33.5q-47 0 -78.5 34.5t-39.5 88.5l48 12q5 -43 25.5 -67.5t46.5 -24.5q37 0 58 23t21 61q0 39 -17.5 70t-67.5 73q-52 43 -74.5 79 t-22.5 89q0 57 31.5 89.5t83.5 32.5q91 0 109 -121z" />
<glyph unicode="t" horiz-adv-x="220" d="M20 497v28l40 4v9l10 112h40v-115l91 10v-48h-91v-354q0 -58 11.5 -81.5t40.5 -23.5q23 0 41 9v-45q-21 -7 -53 -7q-45 0 -67.5 28.5t-22.5 96.5v377h-40z" />
<glyph unicode="u" horiz-adv-x="379" d="M269 540h50v-540h-38l-6 128h-4q-51 -138 -127 -138q-42 0 -63 31.5t-21 113.5v405h50v-402q0 -61 12 -83t34 -22q25 0 56.5 39t56.5 116v352z" />
<glyph unicode="v" horiz-adv-x="326" d="M20 540h58l79 -439l7 -62h4l7 62l73 439h58l-124 -540h-40z" />
<glyph unicode="w" horiz-adv-x="472" d="M188 540h48l73 -439l7 -62h4l6 62l68 439h58l-119 -540h-40l-45 231l-6 57h-4l-10 -57l-57 -231h-40l-111 540h58l70 -439l5 -62h4l9 62l60 241z" />
<glyph unicode="x" horiz-adv-x="320" d="M33 540h58l59 -165l14 -58h4l62 223h58l-105 -256l117 -284h-58l-69 193l-12 57h-4l-79 -250h-58l122 280z" />
<glyph unicode="y" horiz-adv-x="314" d="M15 540h58l76 -345l9 -60h4l6 60l68 345h58l-115 -458l-54 -312h-58l76 311z" />
<glyph unicode="z" horiz-adv-x="279" d="M251 540l-183 -512l181 17v-45h-239l182 511l-156 -16v45h215z" />
<glyph unicode="{" horiz-adv-x="244" d="M20 264v31q53 0 74 32.5t21 107.5q0 37 -7.5 102t-7.5 95q0 56 33.5 87t90.5 31v-28q-42 0 -60 -22.5t-18 -68.5q0 -25 8.5 -91t8.5 -101q0 -132 -79 -160q79 -28 79 -159q0 -37 -8.5 -110.5t-8.5 -101.5q0 -46 18 -68.5t60 -22.5v-28q-57 0 -90.5 31t-33.5 87 q0 32 7.5 103.5t7.5 113.5q0 75 -21 107.5t-74 32.5z" />
<glyph unicode="|" horiz-adv-x="250" d="M152 -224h-54l10 504l-10 490h54l-10 -490z" />
<glyph unicode="}" horiz-adv-x="244" d="M224 295v-31q-53 0 -74 -32.5t-21 -107.5q0 -42 7.5 -113.5t7.5 -103.5q0 -56 -33.5 -87t-90.5 -31v28q42 0 60 22.5t18 68.5q0 28 -8.5 101.5t-8.5 110.5q0 131 79 159q-43 15 -61 54.5t-18 105.5q0 35 8.5 101t8.5 91q0 46 -18 68.5t-60 22.5v28q57 0 90.5 -31 t33.5 -87q0 -30 -7.5 -95t-7.5 -102q0 -75 21 -107.5t74 -32.5z" />
<glyph unicode="~" horiz-adv-x="364" d="M105 365q-26 0 -67 -56l-22 17q26 40 46.5 57.5t48.5 17.5q29 0 84 -37q41 -28 58 -28q26 0 67 56l22 -17q-26 -40 -46.5 -57.5t-48.5 -17.5q-29 0 -84 37q-41 28 -58 28z" />
<glyph unicode="&#xa1;" horiz-adv-x="202" d="M138 496q0 -31 -8 -42t-29 -11t-29 11t-8 42t8 42t29 11t29 -11t8 -42zM130 -224h-58l10 575h38z" />
<glyph unicode="&#xa2;" horiz-adv-x="320" d="M195 0h-50l2 98q-107 24 -107 276q0 254 107 278l-2 98h50l-3 -97q79 -14 96 -119l-38 -12q-13 81 -59 92l-6 -224l6 -254q23 7 39.5 32t21.5 62l38 -12q-7 -48 -32.5 -81t-65.5 -40zM83 374q0 -206 65 -235l7 251l-7 221q-65 -29 -65 -237z" />
<glyph unicode="&#xa3;" horiz-adv-x="330" d="M108 479v-89h131v-39h-131v-183q0 -85 -35 -133l235 15v-50h-280l-5 24q36 47 36 138v189h-59v39h59v89q0 281 131 281q46 0 73.5 -33t35.5 -88l-48 -12q-11 93 -63 93q-80 0 -80 -241z" />
<glyph unicode="&#xa4;" horiz-adv-x="377" d="M315 385q0 -72 -31 -118l63 -48l-37 -37l-47 60q-31 -28 -77 -28q-43 0 -74 26l-45 -58l-37 37l59 46q-31 47 -31 120t32 120l-60 47l37 37l45 -59q33 26 74 26q43 0 76 -28l48 61l37 -37l-63 -49q31 -46 31 -118zM99 385q0 -62 22 -98t65 -36q44 0 66 36t22 98 q0 61 -22.5 97.5t-65.5 36.5t-65 -36.5t-22 -97.5z" />
<glyph unicode="&#xa5;" horiz-adv-x="408" d="M24 750h58l124 -354h1l119 354h58l-150 -354h98v-39h-103v-91h103v-39h-103v-227h-50v227h-104v39h104v91h-104v39h98z" />
<glyph unicode="&#xa6;" horiz-adv-x="250" d="M106 382l-8 388h54l-8 -388h-38zM106 178h38l8 -402h-54z" />
<glyph unicode="&#xa7;" horiz-adv-x="350" d="M222 7q0 42 -32 110t-71 130t-71 137t-32 129q0 101 48 174t127 73q91 0 109 -121l-48 -12q-11 90 -63 90q-63 0 -63 -79q0 -42 32 -110.5t71 -130t71 -137t32 -129.5q0 -100 -48 -173t-127 -73q-47 0 -78.5 34.5t-39.5 88.5l48 12q5 -43 25.5 -67.5t46.5 -24.5 q63 0 63 79zM290 131q0 54 -32 124.5t-71 128t-73.5 126t-37.5 117.5q-18 -45 -18 -113q0 -54 32 -124.5t71 -128.5t73 -126.5t37 -117.5q19 49 19 114z" />
<glyph unicode="&#xa8;" horiz-adv-x="327" d="M115 704q0 -27 -7 -37t-25 -10t-25.5 10t-7.5 37t7.5 37t25.5 10t25 -10t7 -37zM270 704q0 -27 -7.5 -37t-25.5 -10t-25 10t-7 37t7 37t25 10t25.5 -10t7.5 -37z" />
<glyph unicode="&#xa9;" horiz-adv-x="585" d="M294 138q26 0 46 24.5t25 67.5l48 -12q-8 -54 -39.5 -88.5t-78.5 -34.5q-132 0 -132 279q0 281 131 281q46 0 73.5 -33t35.5 -88l-48 -12q-11 90 -63 90q-41 0 -58.5 -57t-17.5 -181t18 -180t60 -56zM290 -7q98 0 164 104t66 277t-66 277t-164 104t-164 -103.5 t-66 -277.5t66 -277.5t164 -103.5zM290 -44q-114 0 -192 113.5t-78 304.5t78 304.5t192 113.5t192 -113.5t78 -304.5t-78 -304.5t-192 -113.5z" />
<glyph unicode="&#xaa;" horiz-adv-x="269" d="M87 668l-44 10q6 36 32 59t65 23q89 0 89 -119v-257h-34l-9 68q-33 -75 -81 -75q-35 0 -57.5 26t-22.5 82q0 55 28 82t72 27q32 0 60 -19v50q0 103 -45 103q-22 0 -35.5 -16.5t-17.5 -43.5zM108 411q17 0 38.5 22t38.5 70v46q-24 12 -60 12q-54 0 -54 -76q0 -36 11 -55 t26 -19zM46 280v34h170v-34h-170z" />
<glyph unicode="&#xab;" horiz-adv-x="401" d="M50 322l140 228l31 -18l-105 -210l105 -210l-31 -18zM180 322l140 228l31 -18l-105 -210l105 -210l-31 -18z" />
<glyph unicode="&#xac;" horiz-adv-x="317" d="M30 322v39h257v-168h-39v129h-218z" />
<glyph unicode="&#xad;" horiz-adv-x="237" d="M30 282v44h177v-44h-177z" />
<glyph unicode="&#xae;" horiz-adv-x="398" d="M361 565q0 -87 -46 -151t-118 -64t-117.5 64t-45.5 151t45.5 151t117.5 64q74 0 119 -64t45 -151zM65 565q0 -77 37 -132.5t95 -55.5t95.5 55.5t37.5 132.5t-36.5 132.5t-96.5 55.5q-58 0 -95 -56t-37 -132zM171 456h-35v230h55q75 0 75 -59q0 -55 -50 -66l62 -105h-45 l-48 103h-14v-103zM190 577q38 0 38 50q0 22 -8.5 30.5t-29.5 8.5h-19v-89h19z" />
<glyph unicode="&#xaf;" horiz-adv-x="273" d="M37 672v44h217v-44h-217z" />
<glyph unicode="&#xb0;" horiz-adv-x="237" d="M217 735q0 -44 -27 -74.5t-72 -30.5t-71.5 30.5t-26.5 74.5t26.5 74.5t71.5 30.5t72 -30.5t27 -74.5zM59 735q0 -30 16 -50t43 -20q28 0 44 20t16 50q0 29 -16 49.5t-44 20.5q-27 0 -43 -20.5t-16 -49.5z" />
<glyph unicode="&#xb1;" horiz-adv-x="317" d="M30 366v39h108v109h39v-109h110v-39h-110v-109h-39v109h-108zM30 166v39h257v-39h-257z" />
<glyph unicode="&#xb2;" horiz-adv-x="217" d="M24 445q0 60 68 164q55 84 55 126q0 51 -39 51q-18 0 -31.5 -15.5t-17.5 -43.5l-38 6q8 42 32 62.5t55 20.5q35 0 57 -19.5t22 -61.5q0 -12 -2 -23t-9.5 -26.5t-11.5 -23t-18.5 -31.5t-19.5 -33q-52 -89 -59 -123l112 13v-43h-155z" />
<glyph unicode="&#xb3;" horiz-adv-x="222" d="M84 627h-4v31h4q32 0 49.5 21.5t17.5 55.5q0 52 -39 52q-40 0 -48 -60l-38 10q18 79 86 79q37 0 58 -22t21 -59q0 -31 -18 -57.5t-49 -33.5q31 -8 49.5 -33t18.5 -65q0 -53 -25 -79t-65 -26q-74 0 -87 80l39 10q9 -61 49 -61q49 0 49 75q0 82 -68 82z" />
<glyph unicode="&#xb4;" horiz-adv-x="206" d="M55 618h-28l65 152h66z" />
<glyph unicode="&#xb5;" horiz-adv-x="379" d="M60 540h50v-402q0 -61 12 -83t34 -22q25 0 56.5 39t56.5 116v352h50v-540h-38l-12 124q-52 -134 -119 -134q-31 0 -54 35l14 -249h-50v764z" />
<glyph unicode="&#xb6;" horiz-adv-x="407" d="M277 66v278h-46q-148 0 -148 203q0 102 39 152.5t109 50.5h96v-684q0 -166 -111 -166q-102 0 -127 130l47 12q7 -49 28 -75.5t51 -26.5t46 33t16 93z" />
<glyph unicode="&#xb7;" horiz-adv-x="170" d="M120 337q0 -29 -8 -39.5t-27 -10.5q-20 0 -27.5 10.5t-7.5 39.5t7.5 39.5t27.5 10.5q19 0 27 -10.5t8 -39.5z" />
<glyph unicode="&#xb8;" horiz-adv-x="174" d="M67 17h26l-11 -71q38 -8 59 -32t21 -59q0 -37 -25.5 -58.5t-64.5 -21.5q-32 0 -54.5 19t-27.5 46l33 8q4 -20 18 -31.5t34 -11.5q42 0 42 45q0 54 -85 63z" />
<glyph unicode="&#xb9;" horiz-adv-x="181" d="M84 810h40v-365h-40v333l-43 -64l-29 24z" />
<glyph unicode="&#xba;" horiz-adv-x="266" d="M25 568q0 192 108 192t108 -192q0 -191 -108 -191t-108 191zM71 568q0 -159 60 -159q34 0 49 39t15 120q0 160 -64 160q-60 0 -60 -160zM47 280v34h170v-34h-170z" />
<glyph unicode="&#xbb;" horiz-adv-x="401" d="M221 322l-140 -228l-31 18l105 210l-105 210l31 18zM351 322l-140 -228l-31 18l105 210l-105 210l31 18z" />
<glyph unicode="&#xbc;" horiz-adv-x="483" d="M421 -5h-40v92h-112l-6 29l120 249h38v-246l42 3v-35h-42v-92zM400 750h43l-359 -750h-43zM110 750h40v-365h-40v333l-43 -64l-29 24zM303 110l78 6v118l7 85l-5 1l-23 -63z" />
<glyph unicode="&#xbd;" horiz-adv-x="483" d="M400 750h43l-359 -750h-43zM304 0q0 60 68 164q55 84 55 126q0 51 -39 51q-18 0 -31.5 -15.5t-17.5 -43.5l-38 6q8 42 32 62.5t55 20.5q35 0 57 -19.5t22 -61.5q0 -12 -2 -23t-9.5 -26.5t-11.5 -23t-18.5 -31.5t-19.5 -33q-52 -89 -59 -123l112 13v-43h-155zM110 750h40 v-365h-40v333l-43 -64l-29 24z" />
<glyph unicode="&#xbe;" horiz-adv-x="483" d="M421 -5h-40v92h-112l-6 29l120 249h38v-246l42 3v-35h-42v-92zM400 750h43l-359 -750h-43zM97 567h-4v31h4q32 0 49.5 21.5t17.5 55.5q0 52 -39 52q-40 0 -48 -60l-38 10q18 79 86 79q37 0 58 -22t21 -59q0 -31 -18 -57.5t-49 -33.5q31 -8 49.5 -33t18.5 -65 q0 -53 -25 -79t-65 -26q-74 0 -87 80l39 10q9 -61 49 -61q49 0 49 75q0 82 -68 82zM303 110l78 6v118l7 85l-5 1l-23 -63z" />
<glyph unicode="&#xbf;" horiz-adv-x="318" d="M143 496q0 31 8 42t29 11t29 -11t8 -42t-8 -42t-29 -11t-29 11t-8 42zM163 351h38q0 -102 -14 -163t-45 -117q-4 -9 -25 -48t-29.5 -65t-8.5 -56q0 -46 21 -71t60 -25q37 0 63.5 37t35.5 105l47 -12q-28 -170 -150 -170q-59 0 -93.5 35t-34.5 101q0 27 8 54.5t16.5 44.5 t24.5 45t23 42q32 57 47.5 115.5t15.5 147.5z" />
<glyph unicode="&#xc0;" horiz-adv-x="408" d="M336 0l-44 222h-176l-44 -222h-52l157 750h54l157 -750h-52zM202 698l-8 -80l-70 -352h159l-69 352l-8 80h-4zM238 803h-29l-120 127h74z" />
<glyph unicode="&#xc1;" horiz-adv-x="408" d="M336 0l-44 222h-176l-44 -222h-52l157 750h54l157 -750h-52zM202 698l-8 -80l-70 -352h159l-69 352l-8 80h-4zM207 803h-29l75 127h74z" />
<glyph unicode="&#xc2;" horiz-adv-x="408" d="M336 0l-44 222h-176l-44 -222h-52l157 750h54l157 -750h-52zM202 698l-8 -80l-70 -352h159l-69 352l-8 80h-4zM204 932l122 -122l-21 -21l-101 76l-101 -76l-21 21z" />
<glyph unicode="&#xc3;" horiz-adv-x="408" d="M336 0l-44 222h-176l-44 -222h-52l157 750h54l157 -750h-52zM202 698l-8 -80l-70 -352h159l-69 352l-8 80h-4zM315 919l25 -12q-26 -54 -46 -78.5t-42 -24.5q-18 0 -35.5 17.5t-32 35t-24.5 17.5q-21 0 -59 -69l-25 12q25 54 46 78.5t45 24.5q19 0 37 -17.5t31.5 -35 t21.5 -17.5q20 0 58 69z" />
<glyph unicode="&#xc4;" horiz-adv-x="408" d="M336 0l-44 222h-176l-44 -222h-52l157 750h54l157 -750h-52zM202 698l-8 -80l-70 -352h159l-69 352l-8 80h-4zM159 867q0 -27 -7 -37t-25 -10t-25.5 10t-7.5 37t7.5 37t25.5 10t25 -10t7 -37zM314 867q0 -27 -7.5 -37t-25.5 -10t-25 10t-7 37t7 37t25 10t25.5 -10 t7.5 -37z" />
<glyph unicode="&#xc5;" horiz-adv-x="408" d="M290 830q0 -30 -15.5 -53.5t-42.5 -31.5l156 -745h-52l-44 222h-176l-44 -222h-52l156 745q-26 8 -41.5 31.5t-15.5 53.5q0 37 23.5 63t61.5 26q39 0 62.5 -26t23.5 -63zM202 698l-8 -80l-70 -352h159l-69 352l-8 80h-4zM155 830q0 -22 13.5 -39t35.5 -17q23 0 36.5 16.5 t13.5 39.5t-13.5 40t-36.5 17q-22 0 -35.5 -17t-13.5 -40z" />
<glyph unicode="&#xc6;" horiz-adv-x="554" d="M304 0v222h-156l-75 -222h-54l273 750h242v-50l-180 13v-294l149 11v-52l-149 10v-352l180 14v-50h-230zM163 266h141v341l6 91h-4l-27 -91z" />
<glyph unicode="&#xc7;" horiz-adv-x="399" d="M310 175l49 -13q-36 -166 -140 -171l-7 -45q38 -8 59 -32t21 -59q0 -37 -25.5 -58.5t-64.5 -21.5q-32 0 -54.5 19t-27.5 46l33 8q4 -20 18 -31.5t34 -11.5q42 0 42 45q0 54 -85 63l26 79q-138 23 -138 382q0 385 161 385q53 0 86 -40t50 -129l-47 -12q-24 141 -91 141 q-106 0 -106 -345q0 -344 106 -344q71 0 101 145z" />
<glyph unicode="&#xc8;" horiz-adv-x="330" d="M80 0v750h230v-50l-180 13v-294l149 11v-52l-149 10v-352l180 14v-50h-230zM226 803h-29l-120 127h74z" />
<glyph unicode="&#xc9;" horiz-adv-x="330" d="M80 0v750h230v-50l-180 13v-294l149 11v-52l-149 10v-352l180 14v-50h-230zM199 803h-29l75 127h74z" />
<glyph unicode="&#xca;" horiz-adv-x="330" d="M80 0v750h230v-50l-180 13v-294l149 11v-52l-149 10v-352l180 14v-50h-230zM195 932l122 -122l-21 -21l-101 76l-101 -76l-21 21z" />
<glyph unicode="&#xcb;" horiz-adv-x="330" d="M80 0v750h230v-50l-180 13v-294l149 11v-52l-149 10v-352l180 14v-50h-230zM150 867q0 -27 -7 -37t-25 -10t-25.5 10t-7.5 37t7.5 37t25.5 10t25 -10t7 -37zM305 867q0 -27 -7.5 -37t-25.5 -10t-25 10t-7 37t7 37t25 10t25.5 -10t7.5 -37z" />
<glyph unicode="&#xcc;" horiz-adv-x="230" d="M30 716v34h170v-34h-60v-682h60v-34h-170v34h60v682h-60zM155 803h-29l-120 127h74z" />
<glyph unicode="&#xcd;" horiz-adv-x="230" d="M30 716v34h170v-34h-60v-682h60v-34h-170v34h60v682h-60zM119 803h-29l75 127h74z" />
<glyph unicode="&#xce;" horiz-adv-x="230" d="M30 716v34h170v-34h-60v-682h60v-34h-170v34h60v682h-60zM115 932l122 -122l-21 -21l-101 76l-101 -76l-21 21z" />
<glyph unicode="&#xcf;" horiz-adv-x="230" d="M30 716v34h170v-34h-60v-682h60v-34h-170v34h60v682h-60zM225 867q0 -27 -7.5 -37t-25.5 -10t-25 10t-7 37t7 37t25 10t25.5 -10t7.5 -37zM70 867q0 -27 -7 -37t-25 -10t-25.5 10t-7.5 37t7.5 37t25.5 10t25 -10t7 -37z" />
<glyph unicode="&#xd0;" horiz-adv-x="442" d="M33 382v43h47v325h133q174 0 174 -376q0 -199 -45 -286.5t-129 -87.5h-133v382h-47zM211 43q64 0 93.5 82t29.5 249t-29.5 250t-93.5 83h-81v-282h120v-43h-120v-339h81z" />
<glyph unicode="&#xd1;" horiz-adv-x="480" d="M130 0h-50v750h50l176 -507l48 -167h4l-8 103v571h50v-750h-50l-176 508l-48 167h-4l8 -103v-572zM356 919l25 -12q-26 -54 -46 -78.5t-42 -24.5q-18 0 -35.5 17.5t-32 35t-24.5 17.5q-21 0 -59 -69l-25 12q25 54 46 78.5t45 24.5q19 0 37 -17.5t31.5 -35t21.5 -17.5 q20 0 58 69z" />
<glyph unicode="&#xd2;" horiz-adv-x="447" d="M50 374q0 204 44.5 294.5t128.5 90.5t129 -90.5t45 -294.5t-45 -294t-129 -90t-128.5 90t-44.5 294zM103 374q0 -344 120 -344q64 0 92.5 85.5t28.5 258.5t-28.5 259t-92.5 86q-120 0 -120 -345zM249 803h-29l-120 127h74z" />
<glyph unicode="&#xd3;" horiz-adv-x="447" d="M50 374q0 204 44.5 294.5t128.5 90.5t129 -90.5t45 -294.5t-45 -294t-129 -90t-128.5 90t-44.5 294zM103 374q0 -344 120 -344q64 0 92.5 85.5t28.5 258.5t-28.5 259t-92.5 86q-120 0 -120 -345zM218 803h-29l75 127h74z" />
<glyph unicode="&#xd4;" horiz-adv-x="447" d="M50 374q0 204 44.5 294.5t128.5 90.5t129 -90.5t45 -294.5t-45 -294t-129 -90t-128.5 90t-44.5 294zM103 374q0 -344 120 -344q64 0 92.5 85.5t28.5 258.5t-28.5 259t-92.5 86q-120 0 -120 -345zM222 932l122 -122l-21 -21l-101 76l-101 -76l-21 21z" />
<glyph unicode="&#xd5;" horiz-adv-x="447" d="M50 374q0 204 44.5 294.5t128.5 90.5t129 -90.5t45 -294.5t-45 -294t-129 -90t-128.5 90t-44.5 294zM103 374q0 -344 120 -344q64 0 92.5 85.5t28.5 258.5t-28.5 259t-92.5 86q-120 0 -120 -345zM331 919l25 -12q-26 -54 -46 -78.5t-42 -24.5q-18 0 -35.5 17.5t-32 35 t-24.5 17.5q-21 0 -59 -69l-25 12q25 54 46 78.5t45 24.5q19 0 37 -17.5t31.5 -35t21.5 -17.5q20 0 58 69z" />
<glyph unicode="&#xd6;" horiz-adv-x="447" d="M50 374q0 204 44.5 294.5t128.5 90.5t129 -90.5t45 -294.5t-45 -294t-129 -90t-128.5 90t-44.5 294zM103 374q0 -344 120 -344q64 0 92.5 85.5t28.5 258.5t-28.5 259t-92.5 86q-120 0 -120 -345zM177 867q0 -27 -7 -37t-25 -10t-25.5 10t-7.5 37t7.5 37t25.5 10t25 -10 t7 -37zM332 867q0 -27 -7.5 -37t-25.5 -10t-25 10t-7 37t7 37t25 10t25.5 -10t7.5 -37z" />
<glyph unicode="&#xd7;" horiz-adv-x="317" d="M239 451l28 -28l-82 -82l82 -82l-27 -28l-83 82l-82 -82l-27 28l82 82l-82 82l28 28l81 -82z" />
<glyph unicode="&#xd8;" horiz-adv-x="447" d="M50 374q0 204 44.5 294.5t128.5 90.5q61 0 101 -46l31 87h40l-46 -127q48 -94 48 -299q0 -204 -45 -294t-129 -90q-64 0 -103 48l-32 -88h-40l47 129q-45 95 -45 295zM344 374q0 149 -20 229l-184 -508q30 -65 83 -65q64 0 92.5 85.5t28.5 258.5zM103 374q0 -139 19 -221 l182 506q-28 60 -81 60q-120 0 -120 -345z" />
<glyph unicode="&#xd9;" horiz-adv-x="450" d="M70 284v466h50v-466q0 -253 104 -253q106 0 106 253v466h50v-466q0 -159 -40.5 -226.5t-114.5 -67.5q-75 0 -115 67.5t-40 226.5zM254 803h-29l-120 127h74z" />
<glyph unicode="&#xda;" horiz-adv-x="450" d="M70 284v466h50v-466q0 -253 104 -253q106 0 106 253v466h50v-466q0 -159 -40.5 -226.5t-114.5 -67.5q-75 0 -115 67.5t-40 226.5zM214 803h-29l75 127h74z" />
<glyph unicode="&#xdb;" horiz-adv-x="450" d="M70 284v466h50v-466q0 -253 104 -253q106 0 106 253v466h50v-466q0 -159 -40.5 -226.5t-114.5 -67.5q-75 0 -115 67.5t-40 226.5zM224 932l122 -122l-21 -21l-101 76l-101 -76l-21 21z" />
<glyph unicode="&#xdc;" horiz-adv-x="450" d="M70 284v466h50v-466q0 -253 104 -253q106 0 106 253v466h50v-466q0 -159 -40.5 -226.5t-114.5 -67.5q-75 0 -115 67.5t-40 226.5zM179 867q0 -27 -7 -37t-25 -10t-25.5 10t-7.5 37t7.5 37t25.5 10t25 -10t7 -37zM334 867q0 -27 -7.5 -37t-25.5 -10t-25 10t-7 37t7 37 t25 10t25.5 -10t7.5 -37z" />
<glyph unicode="&#xdd;" horiz-adv-x="408" d="M24 750h58l124 -385l120 385h58l-155 -398v-352h-50v352zM198 803h-29l75 127h74z" />
<glyph unicode="&#xde;" horiz-adv-x="407" d="M130 0h-50v750h50v-136h63q82 0 128 -60t46 -179q0 -239 -174 -239h-63v-136zM191 571h-61v-392h61q65 0 94 47.5t29 148.5t-29 148.5t-94 47.5z" />
<glyph unicode="&#xdf;" horiz-adv-x="439" d="M165 51l39 31q11 -23 30.5 -37.5t41.5 -14.5q32 0 52.5 24.5t20.5 62.5q0 40 -15.5 71t-59.5 72q-47 44 -67 79.5t-20 88.5q0 34 16 64.5t34.5 50t34.5 47.5t16 57q0 37 -26 63.5t-60 26.5q-82 0 -82 -88v-649h-50v652q0 125 132 125q63 0 99.5 -35.5t36.5 -94.5 q0 -35 -16 -66t-34.5 -50.5t-34.5 -47t-16 -55.5q0 -32 17.5 -61.5t59.5 -71.5q49 -48 67 -83.5t18 -93.5q0 -60 -35 -94t-88 -34q-76 0 -111 61z" />
<glyph unicode="&#xe0;" horiz-adv-x="363" d="M113 415l-49 12q8 54 41.5 88.5t84.5 34.5q52 0 82.5 -37.5t30.5 -107.5v-405h-40l-3 110h-4q-21 -63 -49 -91.5t-65 -28.5q-46 0 -74 34t-28 110q0 77 37 114t95 37q43 0 81 -27v124q0 128 -63 128q-32 0 -52 -25t-25 -70zM147 33q25 0 53.5 27.5t52.5 96.5v71 q-34 17 -81 17q-38 0 -58.5 -29t-20.5 -82q0 -101 54 -101zM220 618h-28l-103 152h66z" />
<glyph unicode="&#xe1;" horiz-adv-x="363" d="M113 415l-49 12q8 54 41.5 88.5t84.5 34.5q52 0 82.5 -37.5t30.5 -107.5v-405h-40l-3 110h-4q-21 -63 -49 -91.5t-65 -28.5q-46 0 -74 34t-28 110q0 77 37 114t95 37q43 0 81 -27v124q0 128 -63 128q-32 0 -52 -25t-25 -70zM147 33q25 0 53.5 27.5t52.5 96.5v71 q-34 17 -81 17q-38 0 -58.5 -29t-20.5 -82q0 -101 54 -101zM189 618h-28l65 152h66z" />
<glyph unicode="&#xe2;" horiz-adv-x="363" d="M113 415l-49 12q8 54 41.5 88.5t84.5 34.5q52 0 82.5 -37.5t30.5 -107.5v-405h-40l-3 110h-4q-21 -63 -49 -91.5t-65 -28.5q-46 0 -74 34t-28 110q0 77 37 114t95 37q43 0 81 -27v124q0 128 -63 128q-32 0 -52 -25t-25 -70zM147 33q25 0 53.5 27.5t52.5 96.5v71 q-34 17 -81 17q-38 0 -58.5 -29t-20.5 -82q0 -101 54 -101zM187 770l112 -142l-21 -18l-91 91l-91 -91l-21 18z" />
<glyph unicode="&#xe3;" horiz-adv-x="363" d="M113 415l-49 12q8 54 41.5 88.5t84.5 34.5q52 0 82.5 -37.5t30.5 -107.5v-405h-40l-3 110h-4q-21 -63 -49 -91.5t-65 -28.5q-46 0 -74 34t-28 110q0 77 37 114t95 37q43 0 81 -27v124q0 128 -63 128q-32 0 -52 -25t-25 -70zM147 33q25 0 53.5 27.5t52.5 96.5v71 q-34 17 -81 17q-38 0 -58.5 -29t-20.5 -82q0 -101 54 -101zM282 749l25 -12q-22 -59 -41 -86t-40 -27q-17 0 -33.5 20t-30 40t-22.5 20q-20 0 -52 -79l-25 12q23 60 42 86.5t43 26.5q17 0 34 -20t29.5 -40t18.5 -20q20 0 52 79z" />
<glyph unicode="&#xe4;" horiz-adv-x="363" d="M113 415l-49 12q8 54 41.5 88.5t84.5 34.5q52 0 82.5 -37.5t30.5 -107.5v-405h-40l-3 110h-4q-21 -63 -49 -91.5t-65 -28.5q-46 0 -74 34t-28 110q0 77 37 114t95 37q43 0 81 -27v124q0 128 -63 128q-32 0 -52 -25t-25 -70zM147 33q25 0 53.5 27.5t52.5 96.5v71 q-34 17 -81 17q-38 0 -58.5 -29t-20.5 -82q0 -101 54 -101zM141 704q0 -27 -7 -37t-25 -10t-25.5 10t-7.5 37t7.5 37t25.5 10t25 -10t7 -37zM296 704q0 -27 -7.5 -37t-25.5 -10t-25 10t-7 37t7 37t25 10t25.5 -10t7.5 -37z" />
<glyph unicode="&#xe5;" horiz-adv-x="363" d="M113 415l-49 12q8 54 41.5 88.5t84.5 34.5q52 0 82.5 -37.5t30.5 -107.5v-405h-40l-3 110h-4q-21 -63 -49 -91.5t-65 -28.5q-46 0 -74 34t-28 110q0 77 37 114t95 37q43 0 81 -27v124q0 128 -63 128q-32 0 -52 -25t-25 -70zM147 33q25 0 53.5 27.5t52.5 96.5v71 q-34 17 -81 17q-38 0 -58.5 -29t-20.5 -82q0 -101 54 -101zM276 691q0 -37 -23.5 -63t-62.5 -26q-38 0 -61.5 26t-23.5 63t23.5 63t61.5 26q39 0 62.5 -26t23.5 -63zM141 691q0 -22 13.5 -39t35.5 -17q23 0 36.5 16.5t13.5 39.5t-13.5 40t-36.5 17q-22 0 -35.5 -17 t-13.5 -40z" />
<glyph unicode="&#xe6;" horiz-adv-x="543" d="M381 30q25 0 45.5 26t25.5 69l48 -12q-8 -54 -39.5 -88.5t-78.5 -34.5q-48 0 -75.5 33.5t-37.5 112.5q-28 -82 -58.5 -114t-68.5 -32q-46 0 -74 36.5t-28 117.5q0 77 37 112.5t95 35.5q33 0 81 -10v100q0 128 -63 128q-32 0 -52 -25t-25 -70l-49 12q8 54 41.5 88.5 t84.5 34.5q78 0 93 -102q30 102 100 102q132 0 118 -297h-198q1 -115 19 -169t59 -54zM147 33q25 0 53.5 27.5t52.5 96.5v95h-81q-38 0 -58.5 -27.5t-20.5 -80.5q0 -111 54 -111zM381 510q-41 0 -59 -55.5t-19 -173.5l145 12q2 119 -14.5 168t-52.5 49z" />
<glyph unicode="&#xe7;" horiz-adv-x="320" d="M171 30q25 0 45.5 26t25.5 69l48 -12q-8 -51 -36.5 -84.5t-71.5 -37.5l-7 -45q38 -8 59 -32t21 -59q0 -37 -25.5 -58.5t-64.5 -21.5q-32 0 -54.5 19t-27.5 46l33 8q4 -20 18 -31.5t34 -11.5q42 0 42 45q0 54 -85 63l26 79q-111 21 -111 277q0 281 131 281q46 0 73.5 -33 t35.5 -88l-48 -12q-11 93 -63 93q-41 0 -58.5 -58.5t-17.5 -182.5t18 -181.5t60 -57.5z" />
<glyph unicode="&#xe8;" horiz-adv-x="331" d="M171 30q25 0 45.5 26t25.5 69l48 -12q-8 -54 -39.5 -88.5t-78.5 -34.5q-132 0 -132 279q0 281 133 281q65 0 95 -65.5t23 -211.5h-198v-4q0 -124 18 -181.5t60 -57.5zM171 510q-74 0 -78 -209l145 12q2 108 -14.5 152.5t-52.5 44.5zM198 618h-28l-103 152h66z" />
<glyph unicode="&#xe9;" horiz-adv-x="331" d="M171 30q25 0 45.5 26t25.5 69l48 -12q-8 -54 -39.5 -88.5t-78.5 -34.5q-132 0 -132 279q0 281 133 281q65 0 95 -65.5t23 -211.5h-198v-4q0 -124 18 -181.5t60 -57.5zM171 510q-74 0 -78 -209l145 12q2 108 -14.5 152.5t-52.5 44.5zM168 618h-28l65 152h66z" />
<glyph unicode="&#xea;" horiz-adv-x="331" d="M171 30q25 0 45.5 26t25.5 69l48 -12q-8 -54 -39.5 -88.5t-78.5 -34.5q-132 0 -132 279q0 281 133 281q65 0 95 -65.5t23 -211.5h-198v-4q0 -124 18 -181.5t60 -57.5zM171 510q-74 0 -78 -209l145 12q2 108 -14.5 152.5t-52.5 44.5zM174 770l112 -142l-21 -18l-91 91 l-91 -91l-21 18z" />
<glyph unicode="&#xeb;" horiz-adv-x="333" d="M171 30q25 0 45.5 26t25.5 69l48 -12q-8 -54 -39.5 -88.5t-78.5 -34.5q-132 0 -132 279q0 281 133 281q65 0 95 -65.5t23 -211.5h-198v-4q0 -124 18 -181.5t60 -57.5zM171 510q-74 0 -78 -209l145 12q2 108 -14.5 152.5t-52.5 44.5zM126 704q0 -27 -7 -37t-25 -10 t-25.5 10t-7.5 37t7.5 37t25.5 10t25 -10t7 -37zM281 704q0 -27 -7.5 -37t-25.5 -10t-25 10t-7 37t7 37t25 10t25.5 -10t7.5 -37z" />
<glyph unicode="&#xec;" horiz-adv-x="192" d="M30 512v28h90v-540h-50v503zM118 618h-28l-103 152h66z" />
<glyph unicode="&#xed;" horiz-adv-x="192" d="M30 512v28h90v-540h-50v503zM88 618h-28l65 152h66z" />
<glyph unicode="&#xee;" horiz-adv-x="192" d="M30 512v28h90v-540h-50v503zM90 770l112 -142l-21 -18l-91 91l-91 -91l-21 18z" />
<glyph unicode="&#xef;" horiz-adv-x="192" d="M30 512v28h90v-540h-50v503zM187 704q0 -27 -7.5 -37t-25.5 -10t-25 10t-7 37t7 37t25 10t25.5 -10t7.5 -37zM52 704q0 -27 -7 -37t-25 -10t-25.5 10t-7.5 37t7.5 37t25.5 10t25 -10t7 -37z" />
<glyph unicode="&#xf0;" horiz-adv-x="367" d="M162 550q50 0 105 -94q-16 141 -66 214l-100 -78v48l75 59q-38 36 -93 49l6 29q68 -11 117 -56l76 60v-48l-50 -40q95 -118 95 -378q0 -175 -36.5 -250t-107.5 -75q-143 0 -143 279q0 281 122 281zM274 315q0 28 -2 74q-2 3 -8.5 14.5t-10 17.5t-10.5 17t-12 17.5 t-12.5 16t-13.5 14.5t-13 10.5t-14.5 8t-14.5 2.5q-70 0 -70 -238q0 -123 20.5 -181t67.5 -58q51 0 72 64.5t21 220.5z" />
<glyph unicode="&#xf1;" horiz-adv-x="379" d="M110 0h-50v540h38l7 -135h4q15 52 50 98.5t83 46.5q42 0 59.5 -32t17.5 -113v-405h-50v382q0 69 -8 97t-31 28q-25 0 -60 -40t-60 -116v-351zM286 749l25 -12q-22 -59 -41 -86t-40 -27q-17 0 -33.5 20t-30 40t-22.5 20q-20 0 -52 -79l-25 12q23 60 42 86.5t43 26.5 q17 0 34 -20t29.5 -40t18.5 -20q20 0 52 79z" />
<glyph unicode="&#xf2;" horiz-adv-x="367" d="M40 269q0 281 143 281q144 0 144 -281q0 -279 -144 -279q-143 0 -143 279zM93 269q0 -123 20.5 -181t67.5 -58q50 0 71.5 57.5t21.5 181.5q0 125 -21.5 183t-71.5 58q-47 0 -67.5 -58.5t-20.5 -182.5zM210 618h-28l-103 152h66z" />
<glyph unicode="&#xf3;" horiz-adv-x="367" d="M40 269q0 281 143 281q144 0 144 -281q0 -279 -144 -279q-143 0 -143 279zM93 269q0 -123 20.5 -181t67.5 -58q50 0 71.5 57.5t21.5 181.5q0 125 -21.5 183t-71.5 58q-47 0 -67.5 -58.5t-20.5 -182.5zM170 618h-28l65 152h66z" />
<glyph unicode="&#xf4;" horiz-adv-x="367" d="M40 269q0 281 143 281q144 0 144 -281q0 -279 -144 -279q-143 0 -143 279zM93 269q0 -123 20.5 -181t67.5 -58q50 0 71.5 57.5t21.5 181.5q0 125 -21.5 183t-71.5 58q-47 0 -67.5 -58.5t-20.5 -182.5zM183 770l112 -142l-21 -18l-91 91l-91 -91l-21 18z" />
<glyph unicode="&#xf5;" horiz-adv-x="367" d="M40 269q0 281 143 281q144 0 144 -281q0 -279 -144 -279q-143 0 -143 279zM93 269q0 -123 20.5 -181t67.5 -58q50 0 71.5 57.5t21.5 181.5q0 125 -21.5 183t-71.5 58q-47 0 -67.5 -58.5t-20.5 -182.5zM281 749l25 -12q-22 -59 -41 -86t-40 -27q-17 0 -33.5 20t-30 40 t-22.5 20q-20 0 -52 -79l-25 12q23 60 42 86.5t43 26.5q17 0 34 -20t29.5 -40t18.5 -20q20 0 52 79z" />
<glyph unicode="&#xf6;" horiz-adv-x="367" d="M40 269q0 281 143 281q144 0 144 -281q0 -279 -144 -279q-143 0 -143 279zM93 269q0 -123 20.5 -181t67.5 -58q50 0 71.5 57.5t21.5 181.5q0 125 -21.5 183t-71.5 58q-47 0 -67.5 -58.5t-20.5 -182.5zM137 704q0 -27 -7 -37t-25 -10t-25.5 10t-7.5 37t7.5 37t25.5 10 t25 -10t7 -37zM292 704q0 -27 -7.5 -37t-25.5 -10t-25 10t-7 37t7 37t25 10t25.5 -10t7.5 -37z" />
<glyph unicode="&#xf7;" horiz-adv-x="317" d="M125 466q0 19 7 25.5t26 6.5q18 0 25 -7t7 -25t-7 -25.5t-25 -7.5t-25.5 7.5t-7.5 25.5zM125 218q0 19 7 25.5t26 6.5q18 0 25 -7t7 -25t-7 -25.5t-25 -7.5t-25.5 7.5t-7.5 25.5zM30 322v39h257v-39h-257z" />
<glyph unicode="&#xf8;" horiz-adv-x="367" d="M40 269q0 281 143 281q44 0 73 -26l24 66h40l-36 -99q43 -69 43 -222q0 -279 -144 -279q-40 0 -71 23l-23 -63h-40l34 96q-43 68 -43 223zM93 269q0 -104 11 -165l135 374q-21 32 -58 32q-47 0 -67.5 -58.5t-20.5 -182.5zM274 269q0 102 -11 163l-135 -374q19 -28 53 -28 q50 0 71.5 57.5t21.5 181.5z" />
<glyph unicode="&#xf9;" horiz-adv-x="379" d="M269 540h50v-540h-38l-6 128h-4q-51 -138 -127 -138q-42 0 -63 31.5t-21 113.5v405h50v-402q0 -61 12 -83t34 -22q25 0 56.5 39t56.5 116v352zM205 618h-28l-103 152h66z" />
<glyph unicode="&#xfa;" horiz-adv-x="379" d="M269 540h50v-540h-38l-6 128h-4q-51 -138 -127 -138q-42 0 -63 31.5t-21 113.5v405h50v-402q0 -61 12 -83t34 -22q25 0 56.5 39t56.5 116v352zM182 618h-28l65 152h66z" />
<glyph unicode="&#xfb;" horiz-adv-x="379" d="M269 540h50v-540h-38l-6 128h-4q-51 -138 -127 -138q-42 0 -63 31.5t-21 113.5v405h50v-402q0 -61 12 -83t34 -22q25 0 56.5 39t56.5 116v352zM193 770l112 -142l-21 -18l-91 91l-91 -91l-21 18z" />
<glyph unicode="&#xfc;" horiz-adv-x="379" d="M269 540h50v-540h-38l-6 128h-4q-51 -138 -127 -138q-42 0 -63 31.5t-21 113.5v405h50v-402q0 -61 12 -83t34 -22q25 0 56.5 39t56.5 116v352zM147 704q0 -27 -7 -37t-25 -10t-25.5 10t-7.5 37t7.5 37t25.5 10t25 -10t7 -37zM302 704q0 -27 -7.5 -37t-25.5 -10t-25 10 t-7 37t7 37t25 10t25.5 -10t7.5 -37z" />
<glyph unicode="&#xfd;" horiz-adv-x="314" d="M15 540h58l76 -345l9 -60h4l6 60l68 345h58l-115 -458l-54 -312h-58l76 311zM162 618h-28l65 152h66z" />
<glyph unicode="&#xfe;" horiz-adv-x="373" d="M60 770h50v-352q50 132 113 132q24 0 42.5 -11.5t34.5 -40t24.5 -86.5t8.5 -143q0 -279 -116 -279q-32 0 -57.5 22.5t-49.5 80.5v-323h-50v1000zM217 507q-24 0 -53.5 -39t-53.5 -117v-194q43 -124 101 -124q69 0 69 236q0 55 -4 98t-10 68.5t-14.5 42.5t-17 23t-17.5 6z " />
<glyph unicode="&#xff;" horiz-adv-x="314" d="M15 540h58l76 -345l9 -60h4l6 60l68 345h58l-115 -458l-54 -312h-58l76 311zM118 704q0 -27 -7 -37t-25 -10t-25.5 10t-7.5 37t7.5 37t25.5 10t25 -10t7 -37zM273 704q0 -27 -7.5 -37t-25.5 -10t-25 10t-7 37t7 37t25 10t25.5 -10t7.5 -37z" />
<glyph unicode="&#x100;" horiz-adv-x="408" d="M336 0l-44 222h-176l-44 -222h-52l157 750h54l157 -750h-52zM202 698l-8 -80l-70 -352h159l-69 352l-8 80h-4zM95 830v44h217v-44h-217z" />
<glyph unicode="&#x101;" horiz-adv-x="363" d="M113 415l-49 12q8 54 41.5 88.5t84.5 34.5q52 0 82.5 -37.5t30.5 -107.5v-405h-40l-3 110h-4q-21 -63 -49 -91.5t-65 -28.5q-46 0 -74 34t-28 110q0 77 37 114t95 37q43 0 81 -27v124q0 128 -63 128q-32 0 -52 -25t-25 -70zM147 33q25 0 53.5 27.5t52.5 96.5v71 q-34 17 -81 17q-38 0 -58.5 -29t-20.5 -82q0 -101 54 -101zM73 672v44h217v-44h-217z" />
<glyph unicode="&#x102;" horiz-adv-x="408" d="M336 0l-44 222h-176l-44 -222h-52l157 750h54l157 -750h-52zM202 698l-8 -80l-70 -352h159l-69 352l-8 80h-4zM204 795q-38 0 -64.5 29t-39.5 75l21 10q11 -32 33.5 -49.5t49.5 -17.5t49.5 17.5t33.5 49.5l21 -10q-13 -46 -39.5 -75t-64.5 -29z" />
<glyph unicode="&#x103;" horiz-adv-x="363" d="M113 415l-49 12q8 54 41.5 88.5t84.5 34.5q52 0 82.5 -37.5t30.5 -107.5v-405h-40l-3 110h-4q-21 -63 -49 -91.5t-65 -28.5q-46 0 -74 34t-28 110q0 77 37 114t95 37q43 0 81 -27v124q0 128 -63 128q-32 0 -52 -25t-25 -70zM147 33q25 0 53.5 27.5t52.5 96.5v71 q-34 17 -81 17q-38 0 -58.5 -29t-20.5 -82q0 -101 54 -101zM191 635q-38 0 -64.5 29t-39.5 75l21 10q11 -32 33.5 -49.5t49.5 -17.5t49.5 17.5t33.5 49.5l21 -10q-13 -46 -39.5 -75t-64.5 -29z" />
<glyph unicode="&#x104;" horiz-adv-x="408" d="M336 0l-44 222h-176l-44 -222h-52l157 750h54l157 -750q-47 -50 -62 -75t-15 -53q0 -22 11.5 -35t32.5 -13q16 0 33 7v-36q-23 -10 -45 -10q-36 0 -59.5 24.5t-23.5 55.5q0 33 18 63.5t68 71.5h-10zM202 698l-8 -80l-70 -352h159l-69 352l-8 80h-4z" />
<glyph unicode="&#x105;" horiz-adv-x="363" d="M113 415l-49 12q8 54 41.5 88.5t84.5 34.5q52 0 82.5 -37.5t30.5 -107.5v-405q-47 -50 -62 -75t-15 -53q0 -22 11.5 -35t32.5 -13q16 0 33 7v-36q-23 -10 -45 -10q-36 0 -59.5 24.5t-23.5 55.5q0 33 18.5 64t69.5 72l-3 109h-4q-21 -63 -49 -91.5t-65 -28.5q-46 0 -74 34 t-28 110q0 77 37 114t95 37q43 0 81 -27v124q0 128 -63 128q-32 0 -52 -25t-25 -70zM147 33q25 0 53.5 27.5t52.5 96.5v71q-34 17 -81 17q-38 0 -58.5 -29t-20.5 -82q0 -101 54 -101z" />
<glyph unicode="&#x106;" horiz-adv-x="399" d="M310 175l49 -13q-37 -172 -148 -172q-78 0 -119.5 90t-41.5 294q0 385 161 385q53 0 86 -40t50 -129l-47 -12q-24 141 -91 141q-106 0 -106 -345q0 -344 106 -344q71 0 101 145zM204 803h-29l75 127h74z" />
<glyph unicode="&#x107;" horiz-adv-x="320" d="M171 30q25 0 45.5 26t25.5 69l48 -12q-8 -54 -39.5 -88.5t-78.5 -34.5q-132 0 -132 279q0 281 131 281q46 0 73.5 -33t35.5 -88l-48 -12q-11 93 -63 93q-41 0 -58.5 -58.5t-17.5 -182.5t18 -181.5t60 -57.5zM159 618h-28l65 152h66z" />
<glyph unicode="&#x108;" horiz-adv-x="399" d="M310 175l49 -13q-37 -172 -148 -172q-78 0 -119.5 90t-41.5 294q0 385 161 385q53 0 86 -40t50 -129l-47 -12q-24 141 -91 141q-106 0 -106 -345q0 -344 106 -344q71 0 101 145zM209 932l122 -122l-21 -21l-101 76l-101 -76l-21 21z" />
<glyph unicode="&#x109;" horiz-adv-x="320" d="M171 30q25 0 45.5 26t25.5 69l48 -12q-8 -54 -39.5 -88.5t-78.5 -34.5q-132 0 -132 279q0 281 131 281q46 0 73.5 -33t35.5 -88l-48 -12q-11 93 -63 93q-41 0 -58.5 -58.5t-17.5 -182.5t18 -181.5t60 -57.5zM176 770l112 -142l-21 -18l-91 91l-91 -91l-21 18z" />
<glyph unicode="&#x10a;" horiz-adv-x="399" d="M310 175l49 -13q-37 -172 -148 -172q-78 0 -119.5 90t-41.5 294q0 385 161 385q53 0 86 -40t50 -129l-47 -12q-24 141 -91 141q-106 0 -106 -345q0 -344 106 -344q71 0 101 145zM247 872q0 -31 -8 -42t-29 -11t-29 11t-8 42t8 42t29 11t29 -11t8 -42z" />
<glyph unicode="&#x10b;" horiz-adv-x="320" d="M171 30q25 0 45.5 26t25.5 69l48 -12q-8 -54 -39.5 -88.5t-78.5 -34.5q-132 0 -132 279q0 281 131 281q46 0 73.5 -33t35.5 -88l-48 -12q-11 93 -63 93q-41 0 -58.5 -58.5t-17.5 -182.5t18 -181.5t60 -57.5zM206 700q0 -31 -8 -42t-29 -11t-29 11t-8 42t8 42t29 11 t29 -11t8 -42z" />
<glyph unicode="&#x10c;" horiz-adv-x="399" d="M310 175l49 -13q-37 -172 -148 -172q-78 0 -119.5 90t-41.5 294q0 385 161 385q53 0 86 -40t50 -129l-47 -12q-24 141 -91 141q-106 0 -106 -345q0 -344 106 -344q71 0 101 145zM209 789l-122 122l21 21l101 -77l101 77l21 -21z" />
<glyph unicode="&#x10d;" horiz-adv-x="320" d="M171 30q25 0 45.5 26t25.5 69l48 -12q-8 -54 -39.5 -88.5t-78.5 -34.5q-132 0 -132 279q0 281 131 281q46 0 73.5 -33t35.5 -88l-48 -12q-11 93 -63 93q-41 0 -58.5 -58.5t-17.5 -182.5t18 -181.5t60 -57.5zM174 615l-112 142l21 18l91 -91l91 91l21 -18z" />
<glyph unicode="&#x10e;" horiz-adv-x="442" d="M80 0v750h133q174 0 174 -376q0 -199 -45 -286.5t-129 -87.5h-133zM211 43q64 0 93.5 82t29.5 249t-29.5 250t-93.5 83h-81v-664h81zM196 789l-122 122l21 21l101 -77l101 77l21 -21z" />
<glyph unicode="&#x10f;" horiz-adv-x="448" d="M40 269q0 281 122 281q29 0 56.5 -29.5t47.5 -77.5h4l-7 97v230h50v-770h-38l-4 107h-4q-24 -66 -51 -91.5t-60 -25.5q-116 0 -116 279zM162 33q23 0 50.5 28t50.5 96v248q-59 102 -100 102q-70 0 -70 -238q0 -236 69 -236zM401 576h-30l21 204h56z" />
<glyph unicode="&#x110;" horiz-adv-x="442" d="M33 382v43h47v325h133q174 0 174 -376q0 -199 -45 -286.5t-129 -87.5h-133v382h-47zM211 43q64 0 93.5 82t29.5 249t-29.5 250t-93.5 83h-81v-282h120v-43h-120v-339h81z" />
<glyph unicode="&#x111;" horiz-adv-x="373" d="M148 632v39h115v99h50v-99h57v-39h-57v-632h-38l-4 107h-4q-24 -66 -51 -91.5t-60 -25.5q-116 0 -116 279q0 281 122 281q29 0 56.5 -29.5t47.5 -77.5h4l-7 97v92h-115zM162 33q23 0 50.5 28t50.5 96v248q-59 102 -100 102q-70 0 -70 -238q0 -236 69 -236z" />
<glyph unicode="&#x112;" horiz-adv-x="330" d="M80 0v750h230v-50l-180 13v-294l149 11v-52l-149 10v-352l180 14v-50h-230zM87 830v44h217v-44h-217z" />
<glyph unicode="&#x113;" horiz-adv-x="333" d="M171 30q25 0 45.5 26t25.5 69l48 -12q-8 -54 -39.5 -88.5t-78.5 -34.5q-132 0 -132 279q0 281 133 281q65 0 95 -65.5t23 -211.5h-198v-4q0 -124 18 -181.5t60 -57.5zM171 510q-74 0 -78 -209l145 12q2 108 -14.5 152.5t-52.5 44.5zM62 672v44h217v-44h-217z" />
<glyph unicode="&#x114;" horiz-adv-x="330" d="M80 0v750h230v-50l-180 13v-294l149 11v-52l-149 10v-352l180 14v-50h-230zM198 795q-38 0 -64.5 29t-39.5 75l21 10q11 -32 33.5 -49.5t49.5 -17.5t49.5 17.5t33.5 49.5l21 -10q-13 -46 -39.5 -75t-64.5 -29z" />
<glyph unicode="&#x115;" horiz-adv-x="333" d="M171 30q25 0 45.5 26t25.5 69l48 -12q-8 -54 -39.5 -88.5t-78.5 -34.5q-132 0 -132 279q0 281 133 281q65 0 95 -65.5t23 -211.5h-198v-4q0 -124 18 -181.5t60 -57.5zM171 510q-74 0 -78 -209l145 12q2 108 -14.5 152.5t-52.5 44.5zM173 635q-38 0 -64.5 29t-39.5 75 l21 10q11 -32 33.5 -49.5t49.5 -17.5t49.5 17.5t33.5 49.5l21 -10q-13 -46 -39.5 -75t-64.5 -29z" />
<glyph unicode="&#x116;" horiz-adv-x="330" d="M80 0v750h230v-50l-180 13v-294l149 11v-52l-149 10v-352l180 14v-50h-230zM241 872q0 -31 -8 -42t-29 -11t-29 11t-8 42t8 42t29 11t29 -11t8 -42z" />
<glyph unicode="&#x117;" horiz-adv-x="333" d="M171 30q25 0 45.5 26t25.5 69l48 -12q-8 -54 -39.5 -88.5t-78.5 -34.5q-132 0 -132 279q0 281 133 281q65 0 95 -65.5t23 -211.5h-198v-4q0 -124 18 -181.5t60 -57.5zM171 510q-74 0 -78 -209l145 12q2 108 -14.5 152.5t-52.5 44.5zM213 700q0 -31 -8 -42t-29 -11t-29 11 t-8 42t8 42t29 11t29 -11t8 -42z" />
<glyph unicode="&#x118;" horiz-adv-x="330" d="M80 0v750h230v-50l-180 13v-294l149 11v-52l-149 10v-352l180 14v-50q-47 -50 -62 -75t-15 -53q0 -22 11.5 -35t32.5 -13q16 0 33 7v-36q-23 -10 -45 -10q-36 0 -59.5 24.5t-23.5 55.5q0 33 18 63.5t68 71.5h-188z" />
<glyph unicode="&#x119;" horiz-adv-x="333" d="M171 30q25 0 45.5 26t25.5 69l48 -12q-8 -52 -37 -86q-41 -56 -55 -89t-14 -66q0 -22 11.5 -35t32.5 -13q16 0 33 7v-36q-23 -10 -45 -10q-36 0 -57.5 24t-21.5 56q0 62 55 127q-12 -2 -20 -2q-132 0 -132 279q0 281 133 281q65 0 95 -65.5t23 -211.5h-198v-4 q0 -124 18 -181.5t60 -57.5zM171 510q-74 0 -78 -209l145 12q2 108 -14.5 152.5t-52.5 44.5z" />
<glyph unicode="&#x11a;" horiz-adv-x="330" d="M80 0v750h230v-50l-180 13v-294l149 11v-52l-149 10v-352l180 14v-50h-230zM196 789l-122 122l21 21l101 -77l101 77l21 -21z" />
<glyph unicode="&#x11b;" horiz-adv-x="333" d="M171 30q25 0 45.5 26t25.5 69l48 -12q-8 -54 -39.5 -88.5t-78.5 -34.5q-132 0 -132 279q0 281 133 281q65 0 95 -65.5t23 -211.5h-198v-4q0 -124 18 -181.5t60 -57.5zM171 510q-74 0 -78 -209l145 12q2 108 -14.5 152.5t-52.5 44.5zM175 615l-112 142l21 18l91 -91l91 91 l21 -18z" />
<glyph unicode="&#x11c;" horiz-adv-x="429" d="M242 326v28h143q0 -194 -42 -279t-122 -85q-171 0 -171 384q0 385 171 385q56 0 92 -40t54 -129l-47 -12q-27 141 -101 141q-116 0 -116 -345q0 -344 118 -344q56 0 82 69.5t29 211.5zM209 932l122 -122l-21 -21l-101 76l-101 -76l-21 21z" />
<glyph unicode="&#x11d;" horiz-adv-x="355" d="M38 359q0 191 133 191q55 0 79 -24l105 25v-47h-87q37 -48 37 -145q0 -189 -134 -189q-34 0 -56 11q-31 -36 -31 -72q0 -27 29 -43.5t89 -27.5q73 -14 101.5 -47t28.5 -88t-38 -99t-115 -44q-47 0 -80.5 13t-49.5 34.5t-22.5 42t-6.5 41.5q0 81 66 132q-43 26 -43 72 q0 47 48 101q-53 44 -53 163zM91 359q0 -77 18 -113t60 -36q45 0 64 35.5t19 113.5q0 79 -19 115t-64 36q-42 0 -60 -36t-18 -115zM180 -8q-44 8 -76 21q-33 -45 -33 -107q0 -42 25.5 -73t85.5 -31q58 0 84 30t26 71q0 26 -25.5 52t-86.5 37zM177 770l112 -142l-21 -18 l-91 91l-91 -91l-21 18z" />
<glyph unicode="&#x11e;" horiz-adv-x="429" d="M242 326v28h143q0 -194 -42 -279t-122 -85q-171 0 -171 384q0 385 171 385q56 0 92 -40t54 -129l-47 -12q-27 141 -101 141q-116 0 -116 -345q0 -344 118 -344q56 0 82 69.5t29 211.5zM211 795q-38 0 -64.5 29t-39.5 75l21 10q11 -32 33.5 -49.5t49.5 -17.5t49.5 17.5 t33.5 49.5l21 -10q-13 -46 -39.5 -75t-64.5 -29z" />
<glyph unicode="&#x11f;" horiz-adv-x="355" d="M38 359q0 191 133 191q55 0 79 -24l105 25v-47h-87q37 -48 37 -145q0 -189 -134 -189q-34 0 -56 11q-31 -36 -31 -72q0 -27 29 -43.5t89 -27.5q73 -14 101.5 -47t28.5 -88t-38 -99t-115 -44q-47 0 -80.5 13t-49.5 34.5t-22.5 42t-6.5 41.5q0 81 66 132q-43 26 -43 72 q0 47 48 101q-53 44 -53 163zM91 359q0 -77 18 -113t60 -36q45 0 64 35.5t19 113.5q0 79 -19 115t-64 36q-42 0 -60 -36t-18 -115zM180 -8q-44 8 -76 21q-33 -45 -33 -107q0 -42 25.5 -73t85.5 -31q58 0 84 30t26 71q0 26 -25.5 52t-86.5 37zM183 635q-38 0 -64.5 29 t-39.5 75l21 10q11 -32 33.5 -49.5t49.5 -17.5t49.5 17.5t33.5 49.5l21 -10q-13 -46 -39.5 -75t-64.5 -29z" />
<glyph unicode="&#x120;" horiz-adv-x="429" d="M242 326v28h143q0 -194 -42 -279t-122 -85q-171 0 -171 384q0 385 171 385q56 0 92 -40t54 -129l-47 -12q-27 141 -101 141q-116 0 -116 -345q0 -344 118 -344q56 0 82 69.5t29 211.5zM246 872q0 -31 -8 -42t-29 -11t-29 11t-8 42t8 42t29 11t29 -11t8 -42z" />
<glyph unicode="&#x121;" horiz-adv-x="355" d="M38 359q0 191 133 191q55 0 79 -24l105 25v-47h-87q37 -48 37 -145q0 -189 -134 -189q-34 0 -56 11q-31 -36 -31 -72q0 -27 29 -43.5t89 -27.5q73 -14 101.5 -47t28.5 -88t-38 -99t-115 -44q-47 0 -80.5 13t-49.5 34.5t-22.5 42t-6.5 41.5q0 81 66 132q-43 26 -43 72 q0 47 48 101q-53 44 -53 163zM91 359q0 -77 18 -113t60 -36q45 0 64 35.5t19 113.5q0 79 -19 115t-64 36q-42 0 -60 -36t-18 -115zM180 -8q-44 8 -76 21q-33 -45 -33 -107q0 -42 25.5 -73t85.5 -31q58 0 84 30t26 71q0 26 -25.5 52t-86.5 37zM226 700q0 -31 -8 -42t-29 -11 t-29 11t-8 42t8 42t29 11t29 -11t8 -42z" />
<glyph unicode="&#x122;" horiz-adv-x="429" d="M242 326v28h143q0 -194 -42 -279t-122 -85q-171 0 -171 384q0 385 171 385q56 0 92 -40t54 -129l-47 -12q-27 141 -101 141q-116 0 -116 -345q0 -344 118 -344q56 0 82 69.5t29 211.5zM177 -224h-29l37 172h60z" />
<glyph unicode="&#x123;" horiz-adv-x="355" d="M38 359q0 191 133 191q55 0 79 -24l105 25v-47h-87q37 -48 37 -145q0 -189 -134 -189q-34 0 -56 11q-31 -36 -31 -72q0 -27 29 -43.5t89 -27.5q73 -14 101.5 -47t28.5 -88t-38 -99t-115 -44q-47 0 -80.5 13t-49.5 34.5t-22.5 42t-6.5 41.5q0 81 66 132q-43 26 -43 72 q0 47 48 101q-53 44 -53 163zM91 359q0 -77 18 -113t60 -36q45 0 64 35.5t19 113.5q0 79 -19 115t-64 36q-42 0 -60 -36t-18 -115zM180 -8q-44 8 -76 21q-33 -45 -33 -107q0 -42 25.5 -73t85.5 -31q58 0 84 30t26 71q0 26 -25.5 52t-86.5 37zM207 770h29l-37 -172h-60z" />
<glyph unicode="&#x124;" horiz-adv-x="470" d="M130 0h-50v750h50v-324h210v324h50v-750h-50v382h-210v-382zM235 932l122 -122l-21 -21l-101 76l-101 -76l-21 21z" />
<glyph unicode="&#x125;" horiz-adv-x="379" d="M110 0h-50v770h50v-355q55 135 132 135q42 0 59.5 -32t17.5 -113v-405h-50v382q0 69 -8 97t-31 28q-25 0 -60 -40t-60 -116v-351zM190 932l122 -122l-21 -21l-101 76l-101 -76l-21 21z" />
<glyph unicode="&#x126;" horiz-adv-x="470" d="M23 560v39h57v151h50v-151h210v151h50v-151h57v-39h-57v-560h-50v382h-210v-382h-50v560h-57zM130 560v-134h210v134h-210z" />
<glyph unicode="&#x127;" horiz-adv-x="379" d="M3 632v39h57v99h50v-99h115v-39h-115v-217q55 135 132 135q42 0 59.5 -32t17.5 -113v-405h-50v382q0 69 -8 97t-31 28q-25 0 -60 -40t-60 -116v-351h-50v632h-57z" />
<glyph unicode="&#x128;" horiz-adv-x="230" d="M30 716v34h170v-34h-60v-682h60v-34h-170v34h60v682h-60zM222 919l25 -12q-26 -54 -46 -78.5t-42 -24.5q-18 0 -35.5 17.5t-32 35t-24.5 17.5q-21 0 -59 -69l-25 12q25 54 46 78.5t45 24.5q19 0 37 -17.5t31.5 -35t21.5 -17.5q20 0 58 69z" />
<glyph unicode="&#x129;" horiz-adv-x="192" d="M30 512v28h90v-540h-50v503zM190 749l25 -12q-22 -59 -41 -86t-40 -27q-17 0 -33.5 20t-30 40t-22.5 20q-20 0 -52 -79l-25 12q23 60 42 86.5t43 26.5q17 0 34 -20t29.5 -40t18.5 -20q20 0 52 79z" />
<glyph unicode="&#x12a;" horiz-adv-x="230" d="M30 716v34h170v-34h-60v-682h60v-34h-170v34h60v682h-60zM27 882v44h177v-44h-177z" />
<glyph unicode="&#x12b;" horiz-adv-x="192" d="M30 512v28h90v-540h-50v503zM8 672v44h177v-44h-177z" />
<glyph unicode="&#x12e;" horiz-adv-x="230" d="M30 716v34h170v-34h-60v-682h60v-34h-20q-47 -50 -62 -75t-15 -53q0 -22 11.5 -35t32.5 -13q16 0 33 7v-36q-23 -10 -45 -10q-36 0 -59.5 24.5t-23.5 55.5q0 33 18 63.5t68 71.5h-108v34h60v682h-60z" />
<glyph unicode="&#x12f;" horiz-adv-x="192" d="M30 512v28h90v-540q-47 -50 -62 -75t-15 -53q0 -22 11.5 -35t32.5 -13q16 0 33 7v-36q-23 -10 -45 -10q-36 0 -59.5 24.5t-23.5 55.5q0 33 18 63.5t68 71.5h-8v503zM127 700q0 -31 -8 -42t-29 -11t-29 11t-8 42t8 42t29 11t29 -11t8 -42z" />
<glyph unicode="&#x130;" horiz-adv-x="230" d="M30 716v34h170v-34h-60v-682h60v-34h-170v34h60v682h-60zM152 872q0 -31 -8 -42t-29 -11t-29 11t-8 42t8 42t29 11t29 -11t8 -42z" />
<glyph unicode="&#x131;" horiz-adv-x="192" d="M30 512v28h90v-540h-50v503z" />
<glyph unicode="&#x132;" horiz-adv-x="610" d="M530 750v-519q0 -241 -137 -241q-112 0 -133 172l49 13q8 -72 27.5 -107t56.5 -35q87 0 87 178v539h50zM30 716v34h170v-34h-60v-682h60v-34h-170v34h60v682h-60z" />
<glyph unicode="&#x133;" horiz-adv-x="384" d="M222 512v28h90v-590q0 -68 -22.5 -96.5t-67.5 -28.5q-32 0 -53 7v45q18 -9 41 -9q29 0 40.5 23.5t11.5 81.5v530zM30 512v28h90v-540h-50v503zM319 700q0 -31 -8 -42t-29 -11t-29 11t-8 42t8 42t29 11t29 -11t8 -42zM127 700q0 -31 -8 -42t-29 -11t-29 11t-8 42t8 42 t29 11t29 -11t8 -42z" />
<glyph unicode="&#x134;" d="M300 750v-519q0 -241 -137 -241q-112 0 -133 172l49 13q8 -72 27.5 -107t56.5 -35q87 0 87 178v539h50zM273 932l122 -122l-21 -21l-101 76l-101 -76l-21 21z" />
<glyph unicode="&#x135;" horiz-adv-x="192" d="M30 512v28h90v-590q0 -68 -22.5 -96.5t-67.5 -28.5q-32 0 -53 7v45q18 -9 41 -9q29 0 40.5 23.5t11.5 81.5v530zM88 770l112 -142l-21 -18l-91 91l-91 -91l-21 18z" />
<glyph unicode="&#x136;" horiz-adv-x="418" d="M130 0h-50v750h50v-332h55l142 332h62l-175 -351l196 -399h-60l-167 379l1 1h-54v-380zM205 -224h-29l37 172h60z" />
<glyph unicode="&#x137;" horiz-adv-x="349" d="M110 0h-50v770h50v-459h48l100 229h58l-125 -249l144 -291h-58l-120 274h-47v-274zM156 -224h-29l37 172h60z" />
<glyph unicode="&#x138;" horiz-adv-x="349" d="M110 0h-50v540h50v-229h48l100 229h58l-125 -249l144 -291h-58l-120 274h-47v-274z" />
<glyph unicode="&#x139;" horiz-adv-x="330" d="M80 0v750h50v-714l180 14v-50h-230zM98 803h-29l75 127h74z" />
<glyph unicode="&#x13a;" horiz-adv-x="186" d="M174 41v-41q-17 -7 -44 -7t-44.5 18.5t-17.5 56.5v702h50v-699q0 -35 25 -35q16 0 31 5zM86 803h-29l75 127h74z" />
<glyph unicode="&#x13b;" horiz-adv-x="330" d="M80 0v750h50v-714l180 14v-50h-230zM159 -224h-29l37 172h60z" />
<glyph unicode="&#x13c;" horiz-adv-x="186" d="M174 41v-41q-17 -7 -44 -7t-44.5 18.5t-17.5 56.5v702h50v-699q0 -35 25 -35q16 0 31 5zM73 -224h-29l37 172h60z" />
<glyph unicode="&#x13d;" horiz-adv-x="330" d="M80 0v750h50v-714l180 14v-50h-230zM218 576h-30l21 204h56z" />
<glyph unicode="&#x13e;" horiz-adv-x="253" d="M174 41v-41q-17 -7 -44 -7t-44.5 18.5t-17.5 56.5v702h50v-699q0 -35 25 -35q16 0 31 5zM206 576h-30l21 204h56z" />
<glyph unicode="&#x13f;" horiz-adv-x="330" d="M80 0v750h50v-714l180 14v-50h-230zM280 337q0 -29 -8 -39.5t-27 -10.5q-20 0 -27.5 10.5t-7.5 39.5t7.5 39.5t27.5 10.5q19 0 27 -10.5t8 -39.5z" />
<glyph unicode="&#x140;" horiz-adv-x="306" d="M250 396q0 -29 -8 -39.5t-27 -10.5q-20 0 -27.5 10.5t-7.5 39.5t7.5 39.5t27.5 10.5q19 0 27 -10.5t8 -39.5zM174 41v-41q-17 -7 -44 -7t-44.5 18.5t-17.5 56.5v702h50v-699q0 -35 25 -35q16 0 31 5z" />
<glyph unicode="&#x141;" horiz-adv-x="330" d="M80 0v327l-57 -38v43l57 39v379h50v-353l109 74v-46l-109 -72v-317l180 14v-50h-230z" />
<glyph unicode="&#x142;" horiz-adv-x="186" d="M174 41v-41q-17 -7 -44 -7t-44.5 18.5t-17.5 56.5v290l-63 -71v54l63 71v358h50v-318l64 73v-54l-64 -73v-327q0 -35 25 -35q16 0 31 5z" />
<glyph unicode="&#x143;" horiz-adv-x="480" d="M130 0h-50v750h50l176 -507l48 -167h4l-8 103v571h50v-750h-50l-176 508l-48 167h-4l8 -103v-572zM236 803h-29l75 127h74z" />
<glyph unicode="&#x144;" horiz-adv-x="379" d="M110 0h-50v540h38l7 -135h4q15 52 50 98.5t83 46.5q42 0 59.5 -32t17.5 -113v-405h-50v382q0 69 -8 97t-31 28q-25 0 -60 -40t-60 -116v-351zM175 618h-28l65 152h66z" />
<glyph unicode="&#x145;" horiz-adv-x="480" d="M130 0h-50v750h50l176 -507l48 -167h4l-8 103v571h50v-750h-50l-176 508l-48 167h-4l8 -103v-572zM202 -224h-29l37 172h60z" />
<glyph unicode="&#x146;" horiz-adv-x="379" d="M110 0h-50v540h38l7 -135h4q15 52 50 98.5t83 46.5q42 0 59.5 -32t17.5 -113v-405h-50v382q0 69 -8 97t-31 28q-25 0 -60 -40t-60 -116v-351zM157 -224h-29l37 172h60z" />
<glyph unicode="&#x147;" horiz-adv-x="480" d="M130 0h-50v750h50l176 -507l48 -167h4l-8 103v571h50v-750h-50l-176 508l-48 167h-4l8 -103v-572zM239 789l-122 122l21 21l101 -77l101 77l21 -21z" />
<glyph unicode="&#x148;" horiz-adv-x="379" d="M110 0h-50v540h38l7 -135h4q15 52 50 98.5t83 46.5q42 0 59.5 -32t17.5 -113v-405h-50v382q0 69 -8 97t-31 28q-25 0 -60 -40t-60 -116v-351zM190 615l-112 142l21 18l91 -91l91 91l21 -18z" />
<glyph unicode="&#x149;" horiz-adv-x="408" d="M139 0h-50v540h38l7 -135h4q15 52 50 98.5t83 46.5q42 0 59.5 -32t17.5 -113v-405h-50v382q0 69 -8 97t-31 28q-25 0 -60 -40t-60 -116v-351zM54 576h-36l61 204h66z" />
<glyph unicode="&#x14c;" horiz-adv-x="447" d="M50 374q0 204 44.5 294.5t128.5 90.5t129 -90.5t45 -294.5t-45 -294t-129 -90t-128.5 90t-44.5 294zM103 374q0 -344 120 -344q64 0 92.5 85.5t28.5 258.5t-28.5 259t-92.5 86q-120 0 -120 -345zM118 830v44h217v-44h-217z" />
<glyph unicode="&#x14d;" horiz-adv-x="367" d="M86 672v44h197v-44h-197zM40 269q0 281 143 281q144 0 144 -281q0 -279 -144 -279q-143 0 -143 279zM93 269q0 -123 20.5 -181t67.5 -58q50 0 71.5 57.5t21.5 181.5q0 125 -21.5 183t-71.5 58q-47 0 -67.5 -58.5t-20.5 -182.5z" />
<glyph unicode="&#x14e;" horiz-adv-x="447" d="M50 374q0 204 44.5 294.5t128.5 90.5t129 -90.5t45 -294.5t-45 -294t-129 -90t-128.5 90t-44.5 294zM103 374q0 -344 120 -344q64 0 92.5 85.5t28.5 258.5t-28.5 259t-92.5 86q-120 0 -120 -345zM223 795q-38 0 -64.5 29t-39.5 75l21 10q11 -32 33.5 -49.5t49.5 -17.5 t49.5 17.5t33.5 49.5l21 -10q-13 -46 -39.5 -75t-64.5 -29z" />
<glyph unicode="&#x14f;" horiz-adv-x="367" d="M40 269q0 281 143 281q144 0 144 -281q0 -279 -144 -279q-143 0 -143 279zM93 269q0 -123 20.5 -181t67.5 -58q50 0 71.5 57.5t21.5 181.5q0 125 -21.5 183t-71.5 58q-47 0 -67.5 -58.5t-20.5 -182.5zM183 635q-38 0 -64.5 29t-39.5 75l21 10q11 -32 33.5 -49.5 t49.5 -17.5t49.5 17.5t33.5 49.5l21 -10q-13 -46 -39.5 -75t-64.5 -29z" />
<glyph unicode="&#x150;" horiz-adv-x="447" d="M50 374q0 204 44.5 294.5t128.5 90.5t129 -90.5t45 -294.5t-45 -294t-129 -90t-128.5 90t-44.5 294zM103 374q0 -344 120 -344q64 0 92.5 85.5t28.5 258.5t-28.5 259t-92.5 86q-120 0 -120 -345zM154 803h-29l75 127h74zM281 803h-29l75 127h74z" />
<glyph unicode="&#x151;" horiz-adv-x="367" d="M40 269q0 281 143 281q144 0 144 -281q0 -279 -144 -279q-143 0 -143 279zM93 269q0 -123 20.5 -181t67.5 -58q50 0 71.5 57.5t21.5 181.5q0 125 -21.5 183t-71.5 58q-47 0 -67.5 -58.5t-20.5 -182.5zM122 618h-28l65 152h66zM238 618h-28l65 152h66z" />
<glyph unicode="&#x152;" horiz-adv-x="556" d="M306 0q-29 -10 -63 -10q-94 0 -143.5 90t-49.5 294t49.5 294.5t143.5 90.5q31 0 60 -9h233v-50l-180 13v-294l149 11v-52l-149 10v-352l180 14v-50h-230zM243 30q37 0 63 20v649q-28 20 -63 20q-140 0 -140 -345q0 -344 140 -344z" />
<glyph unicode="&#x153;" horiz-adv-x="568" d="M406 30q25 0 45.5 26t25.5 69l48 -12q-8 -54 -39.5 -88.5t-78.5 -34.5q-88 0 -116 111q-27 -111 -108 -111q-143 0 -143 279q0 281 143 281q81 0 108 -112q29 112 117 112q65 0 95 -65.5t23 -211.5h-208v-4q0 -124 20.5 -181.5t67.5 -57.5zM93 269q0 -123 20.5 -181 t67.5 -58q45 0 64 57.5t19 181.5q0 125 -19 183t-64 58q-47 0 -67.5 -58.5t-20.5 -182.5zM406 510q-44 0 -65 -51t-23 -158l155 12q2 108 -14.5 152.5t-52.5 44.5z" />
<glyph unicode="&#x154;" horiz-adv-x="442" d="M130 0h-50v750h113q83 0 128.5 -51.5t45.5 -157.5q0 -186 -141 -207l164 -334h-60l-147 332h-53v-332zM191 375q65 0 94 39.5t29 126.5t-29 126.5t-94 39.5h-61v-332h61zM194 803h-29l75 127h74z" />
<glyph unicode="&#x155;" horiz-adv-x="262" d="M110 0h-50v540h38l7 -128h4q55 138 133 138v-68q-85 0 -132 -132v-350zM145 618h-28l65 152h66z" />
<glyph unicode="&#x156;" horiz-adv-x="442" d="M130 0h-50v750h113q83 0 128.5 -51.5t45.5 -157.5q0 -186 -141 -207l164 -334h-60l-147 332h-53v-332zM191 375q65 0 94 39.5t29 126.5t-29 126.5t-94 39.5h-61v-332h61zM196 -224h-29l37 172h60z" />
<glyph unicode="&#x157;" horiz-adv-x="262" d="M110 0h-50v540h38l7 -128h4q55 138 133 138v-68q-85 0 -132 -132v-350zM53 -224h-29l37 172h60z" />
<glyph unicode="&#x158;" horiz-adv-x="442" d="M130 0h-50v750h113q83 0 128.5 -51.5t45.5 -157.5q0 -186 -141 -207l164 -334h-60l-147 332h-53v-332zM191 375q65 0 94 39.5t29 126.5t-29 126.5t-94 39.5h-61v-332h61zM218 789l-122 122l21 21l101 -77l101 77l21 -21z" />
<glyph unicode="&#x159;" horiz-adv-x="262" d="M110 0h-50v540h38l7 -128h4q55 138 133 138v-68q-85 0 -132 -132v-350zM151 615l-112 142l21 18l91 -91l91 91l21 -18z" />
<glyph unicode="&#x15a;" horiz-adv-x="382" d="M291 174q0 98 -114 203q-66 60 -92 107.5t-26 109.5q0 87 39.5 126t101.5 39q110 0 137 -169l-47 -12q-18 138 -92 138q-40 0 -64 -32t-24 -90q0 -49 22 -86.5t84 -91.5q126 -108 126 -242q0 -89 -42.5 -136.5t-112.5 -47.5q-118 0 -147 172l49 13q10 -69 36 -105.5 t64 -36.5q102 0 102 141zM183 803h-29l75 127h74z" />
<glyph unicode="&#x15b;" horiz-adv-x="319" d="M271 429l-48 -12q-11 90 -63 90q-63 0 -63 -79q0 -32 20 -61.5t67 -71.5q54 -48 74.5 -83.5t20.5 -93.5q0 -61 -36.5 -94.5t-94.5 -33.5q-47 0 -78.5 34.5t-39.5 88.5l48 12q5 -43 25.5 -67.5t46.5 -24.5q37 0 58 23t21 61q0 39 -17.5 70t-67.5 73q-52 43 -74.5 79 t-22.5 89q0 57 31.5 89.5t83.5 32.5q91 0 109 -121zM145 618h-28l65 152h66z" />
<glyph unicode="&#x15c;" horiz-adv-x="382" d="M291 174q0 98 -114 203q-66 60 -92 107.5t-26 109.5q0 87 39.5 126t101.5 39q110 0 137 -169l-47 -12q-18 138 -92 138q-40 0 -64 -32t-24 -90q0 -49 22 -86.5t84 -91.5q126 -108 126 -242q0 -89 -42.5 -136.5t-112.5 -47.5q-118 0 -147 172l49 13q10 -69 36 -105.5 t64 -36.5q102 0 102 141zM200 932l122 -122l-21 -21l-101 76l-101 -76l-21 21z" />
<glyph unicode="&#x15d;" horiz-adv-x="319" d="M271 429l-48 -12q-11 90 -63 90q-63 0 -63 -79q0 -32 20 -61.5t67 -71.5q54 -48 74.5 -83.5t20.5 -93.5q0 -61 -36.5 -94.5t-94.5 -33.5q-47 0 -78.5 34.5t-39.5 88.5l48 12q5 -43 25.5 -67.5t46.5 -24.5q37 0 58 23t21 61q0 39 -17.5 70t-67.5 73q-52 43 -74.5 79 t-22.5 89q0 57 31.5 89.5t83.5 32.5q91 0 109 -121zM165 770l112 -142l-21 -18l-91 91l-91 -91l-21 18z" />
<glyph unicode="&#x15e;" horiz-adv-x="382" d="M291 174q0 98 -114 203q-66 60 -92 107.5t-26 109.5q0 87 39.5 126t101.5 39q110 0 137 -169l-47 -12q-18 138 -92 138q-40 0 -64 -32t-24 -90q0 -49 22 -86.5t84 -91.5q126 -108 126 -242q0 -86 -39 -132.5t-105 -50.5l-7 -45q38 -8 59 -32t21 -59q0 -37 -25.5 -58.5 t-64.5 -21.5q-32 0 -54.5 19t-27.5 46l33 8q4 -20 18 -31.5t34 -11.5q42 0 42 45q0 54 -85 63l26 79q-100 13 -127 170l49 13q10 -69 36 -105.5t64 -36.5q102 0 102 141z" />
<glyph unicode="&#x15f;" horiz-adv-x="319" d="M271 429l-48 -12q-11 90 -63 90q-63 0 -63 -79q0 -32 20 -61.5t67 -71.5q54 -48 74.5 -83.5t20.5 -93.5q0 -54 -29.5 -87t-77.5 -39l-7 -46q38 -8 59 -32t21 -59q0 -37 -25.5 -58.5t-64.5 -21.5q-32 0 -54.5 19t-27.5 46l33 8q4 -20 18 -31.5t34 -11.5q42 0 42 45 q0 54 -85 63l26 77q-45 3 -74.5 37t-36.5 86l48 12q5 -43 25.5 -67.5t46.5 -24.5q37 0 58 23t21 61q0 39 -17.5 70t-67.5 73q-52 43 -74.5 79t-22.5 89q0 57 31.5 89.5t83.5 32.5q91 0 109 -121z" />
<glyph unicode="&#x160;" horiz-adv-x="382" d="M291 174q0 98 -114 203q-66 60 -92 107.5t-26 109.5q0 87 39.5 126t101.5 39q110 0 137 -169l-47 -12q-18 138 -92 138q-40 0 -64 -32t-24 -90q0 -49 22 -86.5t84 -91.5q126 -108 126 -242q0 -89 -42.5 -136.5t-112.5 -47.5q-118 0 -147 172l49 13q10 -69 36 -105.5 t64 -36.5q102 0 102 141zM197 789l-122 122l21 21l101 -77l101 77l21 -21z" />
<glyph unicode="&#x161;" horiz-adv-x="319" d="M271 429l-48 -12q-11 90 -63 90q-63 0 -63 -79q0 -32 20 -61.5t67 -71.5q54 -48 74.5 -83.5t20.5 -93.5q0 -61 -36.5 -94.5t-94.5 -33.5q-47 0 -78.5 34.5t-39.5 88.5l48 12q5 -43 25.5 -67.5t46.5 -24.5q37 0 58 23t21 61q0 39 -17.5 70t-67.5 73q-52 43 -74.5 79 t-22.5 89q0 57 31.5 89.5t83.5 32.5q91 0 109 -121zM160 615l-112 142l21 18l91 -91l91 91l21 -18z" />
<glyph unicode="&#x162;" horiz-adv-x="350" d="M200 0h-11l-8 -54q38 -8 59 -32t21 -59q0 -37 -25.5 -58.5t-64.5 -21.5q-32 0 -54.5 19t-27.5 46l33 8q4 -20 18 -31.5t34 -11.5q42 0 42 45q0 54 -85 63l29 87h-10v706h-130v44h310v-44h-130v-706z" />
<glyph unicode="&#x163;" horiz-adv-x="230" d="M30 497v28l40 4v9l10 112h40v-115l91 10v-48h-91v-354q0 -58 11.5 -81.5t40.5 -23.5q23 0 41 9v-45q-21 -7 -53 -7h-11l-7 -49q38 -8 59 -32t21 -59q0 -37 -25.5 -58.5t-64.5 -21.5q-32 0 -54.5 19t-27.5 46l33 8q4 -20 18 -31.5t34 -11.5q42 0 42 45q0 54 -85 63l29 88 q-51 20 -51 119v377h-40z" />
<glyph unicode="&#x164;" horiz-adv-x="350" d="M200 0h-50v706h-130v44h310v-44h-130v-706zM175 789l-122 122l21 21l101 -77l101 77l21 -21z" />
<glyph unicode="&#x165;" horiz-adv-x="230" d="M30 497v28l40 4v9l10 112h40v-115l91 10v-48h-91v-354q0 -58 11.5 -81.5t40.5 -23.5q23 0 41 9v-45q-21 -7 -53 -7q-45 0 -67.5 28.5t-22.5 96.5v377h-40zM204 618h-30l16 162h56z" />
<glyph unicode="&#x166;" horiz-adv-x="350" d="M20 706v44h310v-44h-130v-280h100v-44h-100v-382h-50v382h-100v44h100v280h-130z" />
<glyph unicode="&#x167;" horiz-adv-x="230" d="M30 497v28l40 4v9l10 112h40v-115l91 10v-48h-91v-163h91v-38h-91v-153q0 -58 11.5 -81.5t40.5 -23.5q23 0 41 9v-45q-21 -7 -53 -7q-45 0 -67.5 28.5t-22.5 96.5v176h-40v38h40v163h-40z" />
<glyph unicode="&#x168;" horiz-adv-x="450" d="M70 284v466h50v-466q0 -253 104 -253q106 0 106 253v466h50v-466q0 -159 -40.5 -226.5t-114.5 -67.5q-75 0 -115 67.5t-40 226.5zM332 919l25 -12q-26 -54 -46 -78.5t-42 -24.5q-18 0 -35.5 17.5t-32 35t-24.5 17.5q-21 0 -59 -69l-25 12q25 54 46 78.5t45 24.5 q19 0 37 -17.5t31.5 -35t21.5 -17.5q20 0 58 69z" />
<glyph unicode="&#x169;" horiz-adv-x="379" d="M269 540h50v-540h-38l-6 128h-4q-51 -138 -127 -138q-42 0 -63 31.5t-21 113.5v405h50v-402q0 -61 12 -83t34 -22q25 0 56.5 39t56.5 116v352zM287 749l25 -12q-22 -59 -41 -86t-40 -27q-17 0 -33.5 20t-30 40t-22.5 20q-20 0 -52 -79l-25 12q23 60 42 86.5t43 26.5 q17 0 34 -20t29.5 -40t18.5 -20q20 0 52 79z" />
<glyph unicode="&#x16a;" horiz-adv-x="450" d="M70 284v466h50v-466q0 -253 104 -253q106 0 106 253v466h50v-466q0 -159 -40.5 -226.5t-114.5 -67.5q-75 0 -115 67.5t-40 226.5zM119 830v44h217v-44h-217z" />
<glyph unicode="&#x16b;" horiz-adv-x="379" d="M269 540h50v-540h-38l-6 128h-4q-51 -138 -127 -138q-42 0 -63 31.5t-21 113.5v405h50v-402q0 -61 12 -83t34 -22q25 0 56.5 39t56.5 116v352zM83 672v44h217v-44h-217z" />
<glyph unicode="&#x16c;" horiz-adv-x="450" d="M70 284v466h50v-466q0 -253 104 -253q106 0 106 253v466h50v-466q0 -159 -40.5 -226.5t-114.5 -67.5q-75 0 -115 67.5t-40 226.5zM225 795q-38 0 -64.5 29t-39.5 75l21 10q11 -32 33.5 -49.5t49.5 -17.5t49.5 17.5t33.5 49.5l21 -10q-13 -46 -39.5 -75t-64.5 -29z" />
<glyph unicode="&#x16d;" horiz-adv-x="379" d="M269 540h50v-540h-38l-6 128h-4q-51 -138 -127 -138q-42 0 -63 31.5t-21 113.5v405h50v-402q0 -61 12 -83t34 -22q25 0 56.5 39t56.5 116v352zM191 635q-38 0 -64.5 29t-39.5 75l21 10q11 -32 33.5 -49.5t49.5 -17.5t49.5 17.5t33.5 49.5l21 -10q-13 -46 -39.5 -75 t-64.5 -29z" />
<glyph unicode="&#x16e;" horiz-adv-x="450" d="M70 284v466h50v-466q0 -253 104 -253q106 0 106 253v466h50v-466q0 -159 -40.5 -226.5t-114.5 -67.5q-75 0 -115 67.5t-40 226.5zM313 830q0 -37 -23.5 -63t-62.5 -26q-38 0 -61.5 26t-23.5 63t23.5 63t61.5 26q39 0 62.5 -26t23.5 -63zM178 830q0 -22 13.5 -39t35.5 -17 q23 0 36.5 16.5t13.5 39.5t-13.5 40t-36.5 17q-22 0 -35.5 -17t-13.5 -40z" />
<glyph unicode="&#x16f;" horiz-adv-x="379" d="M269 540h50v-540h-38l-6 128h-4q-51 -138 -127 -138q-42 0 -63 31.5t-21 113.5v405h50v-402q0 -61 12 -83t34 -22q25 0 56.5 39t56.5 116v352zM279 691q0 -37 -23.5 -63t-62.5 -26q-38 0 -61.5 26t-23.5 63t23.5 63t61.5 26q39 0 62.5 -26t23.5 -63zM144 691 q0 -22 13.5 -39t35.5 -17q23 0 36.5 16.5t13.5 39.5t-13.5 40t-36.5 17q-22 0 -35.5 -17t-13.5 -40z" />
<glyph unicode="&#x170;" horiz-adv-x="450" d="M70 284v466h50v-466q0 -253 104 -253q106 0 106 253v466h50v-466q0 -159 -40.5 -226.5t-114.5 -67.5q-75 0 -115 67.5t-40 226.5zM151 803h-29l75 127h74zM278 803h-29l75 127h74z" />
<glyph unicode="&#x171;" horiz-adv-x="379" d="M269 540h50v-540h-38l-6 128h-4q-51 -138 -127 -138q-42 0 -63 31.5t-21 113.5v405h50v-402q0 -61 12 -83t34 -22q25 0 56.5 39t56.5 116v352zM121 618h-28l65 152h66zM237 618h-28l65 152h66z" />
<glyph unicode="&#x172;" horiz-adv-x="450" d="M70 284v466h50v-466q0 -253 104 -253q106 0 106 253v466h50v-466q0 -221 -85 -275q-48 -50 -66.5 -80t-18.5 -57q0 -22 11.5 -35t32.5 -13q16 0 33 7v-36q-23 -10 -45 -10q-36 0 -59.5 24.5t-23.5 55.5q0 59 73 125h-7q-75 0 -115 67.5t-40 226.5z" />
<glyph unicode="&#x173;" horiz-adv-x="379" d="M269 540h50v-540q-47 -50 -62 -75t-15 -53q0 -22 11.5 -35t32.5 -13q16 0 33 7v-36q-23 -10 -45 -10q-36 0 -59.5 24.5t-23.5 55.5q0 34 19 65t71 73l-6 125h-4q-51 -138 -127 -138q-42 0 -63 31.5t-21 113.5v405h50v-402q0 -61 12 -83t34 -22q25 0 56.5 39t56.5 116v352 z" />
<glyph unicode="&#x174;" horiz-adv-x="581" d="M24 750h58l114 -644l8 -72h4l9 72l72 309l-60 335h58l92 -644l8 -71h4l9 71l99 644h58l-146 -750h-48l-50 280l-8 71h-4l-11 -71l-62 -280h-48zM297 932l122 -122l-21 -21l-101 76l-101 -76l-21 21z" />
<glyph unicode="&#x175;" horiz-adv-x="472" d="M188 540h48l73 -439l7 -62h4l6 62l68 439h58l-119 -540h-40l-45 231l-6 57h-4l-10 -57l-57 -231h-40l-111 540h58l70 -439l5 -62h4l9 62l60 241zM240 770l112 -142l-21 -18l-91 91l-91 -91l-21 18z" />
<glyph unicode="&#x176;" horiz-adv-x="408" d="M24 750h58l124 -385l120 385h58l-155 -398v-352h-50v352zM205 932l122 -122l-21 -21l-101 76l-101 -76l-21 21z" />
<glyph unicode="&#x177;" horiz-adv-x="314" d="M15 540h58l76 -345l9 -60h4l6 60l68 345h58l-115 -458l-54 -312h-58l76 311zM156 770l112 -142l-21 -18l-91 91l-91 -91l-21 18z" />
<glyph unicode="&#x178;" horiz-adv-x="408" d="M24 750h58l124 -385l120 385h58l-155 -398v-352h-50v352zM317 867q0 -27 -7.5 -37t-25.5 -10t-25 10t-7 37t7 37t25 10t25.5 -10t7.5 -37zM162 867q0 -27 -7 -37t-25 -10t-25.5 10t-7.5 37t7.5 37t25.5 10t25 -10t7 -37z" />
<glyph unicode="&#x179;" horiz-adv-x="334" d="M56 750h264l-247 -717l222 17v-50h-285l246 716l-200 -16v50zM170 803h-29l75 127h74z" />
<glyph unicode="&#x17a;" horiz-adv-x="279" d="M251 540l-183 -512l181 17v-45h-239l182 511l-156 -16v45h215zM143 618h-28l65 152h66z" />
<glyph unicode="&#x17b;" horiz-adv-x="334" d="M320 750l-247 -717l222 17v-50h-285l246 716l-200 -16v50h264zM207 872q0 -31 -8 -42t-29 -11t-29 11t-8 42t8 42t29 11t29 -11t8 -42z" />
<glyph unicode="&#x17c;" horiz-adv-x="279" d="M251 540l-183 -512l181 17v-45h-239l182 511l-156 -16v45h215zM182 700q0 -31 -8 -42t-29 -11t-29 11t-8 42t8 42t29 11t29 -11t8 -42z" />
<glyph unicode="&#x17d;" horiz-adv-x="334" d="M56 750h264l-247 -717l222 17v-50h-285l246 716l-200 -16v50zM177 789l-122 122l21 21l101 -77l101 77l21 -21z" />
<glyph unicode="&#x17e;" horiz-adv-x="279" d="M251 540l-183 -512l181 17v-45h-239l182 511l-156 -16v45h215zM137 615l-112 142l21 18l91 -91l91 91l21 -18z" />
<glyph unicode="&#x17f;" horiz-adv-x="230" d="M213 770v-45q-18 9 -41 9q-29 0 -40.5 -19t-11.5 -66v-649h-50v652q0 63 25 94t65 31q32 0 53 -7z" />
<glyph unicode="&#x192;" horiz-adv-x="266" d="M34 426l4 28l46 5l18 111q17 108 50 149t82 41q37 0 63 -14l-7 -44q-21 15 -51 15q-31 0 -52 -30.5t-35 -117.5l-17 -104l90 10l-8 -49h-89l-53 -331q-17 -108 -50 -149t-82 -41q-37 0 -63 14l7 44q21 -15 51 -15q31 0 52 30.5t35 117.5l53 330h-44z" />
<glyph unicode="&#x218;" horiz-adv-x="382" d="M291 174q0 98 -114 203q-66 60 -92 107.5t-26 109.5q0 87 39.5 126t101.5 39q110 0 137 -169l-47 -12q-18 138 -92 138q-40 0 -64 -32t-24 -90q0 -49 22 -86.5t84 -91.5q126 -108 126 -242q0 -89 -42.5 -136.5t-112.5 -47.5q-118 0 -147 172l49 13q10 -69 36 -105.5 t64 -36.5q102 0 102 141zM168 -224h-29l37 172h60z" />
<glyph unicode="&#x219;" horiz-adv-x="319" d="M271 429l-48 -12q-11 90 -63 90q-63 0 -63 -79q0 -32 20 -61.5t67 -71.5q54 -48 74.5 -83.5t20.5 -93.5q0 -61 -36.5 -94.5t-94.5 -33.5q-47 0 -78.5 34.5t-39.5 88.5l48 12q5 -43 25.5 -67.5t46.5 -24.5q37 0 58 23t21 61q0 39 -17.5 70t-67.5 73q-52 43 -74.5 79 t-22.5 89q0 57 31.5 89.5t83.5 32.5q91 0 109 -121zM130 -224h-29l37 172h60z" />
<glyph unicode="&#x21a;" horiz-adv-x="350" d="M200 0h-50v706h-130v44h310v-44h-130v-706zM143 -224h-29l37 172h60z" />
<glyph unicode="&#x21b;" horiz-adv-x="230" d="M30 497v28l40 4v9l10 112h40v-115l91 10v-48h-91v-354q0 -58 11.5 -81.5t40.5 -23.5q23 0 41 9v-45q-21 -7 -53 -7q-45 0 -67.5 28.5t-22.5 96.5v377h-40zM105 -224h-29l37 172h60z" />
<glyph unicode="&#x237;" horiz-adv-x="192" d="M30 512v28h90v-590q0 -68 -22.5 -96.5t-67.5 -28.5q-32 0 -53 7v45q18 -9 41 -9q29 0 40.5 23.5t11.5 81.5v530z" />
<glyph unicode="&#x2c6;" horiz-adv-x="280" d="M140 770l112 -142l-21 -18l-91 91l-91 -91l-21 18z" />
<glyph unicode="&#x2c7;" horiz-adv-x="280" d="M140 615l-112 142l21 18l91 -91l91 91l21 -18z" />
<glyph unicode="&#x2c9;" horiz-adv-x="273" d="M37 672v44h217v-44h-217z" />
<glyph unicode="&#x2d8;" horiz-adv-x="280" d="M140 635q-38 0 -64.5 29t-39.5 75l21 10q11 -32 33.5 -49.5t49.5 -17.5t49.5 17.5t33.5 49.5l21 -10q-13 -46 -39.5 -75t-64.5 -29z" />
<glyph unicode="&#x2d9;" horiz-adv-x="192" d="M127 700q0 -31 -8 -42t-29 -11t-29 11t-8 42t8 42t29 11t29 -11t8 -42z" />
<glyph unicode="&#x2da;" horiz-adv-x="237" d="M201 691q0 -37 -23.5 -63t-62.5 -26q-38 0 -61.5 26t-23.5 63t23.5 63t61.5 26q39 0 62.5 -26t23.5 -63zM66 691q0 -22 13.5 -39t35.5 -17q23 0 36.5 16.5t13.5 39.5t-13.5 40t-36.5 17q-22 0 -35.5 -17t-13.5 -40z" />
<glyph unicode="&#x2db;" horiz-adv-x="213" d="M161 23l12 -23q-47 -50 -62 -75t-15 -53q0 -22 11.5 -35t32.5 -13q16 0 33 7v-36q-23 -10 -45 -10q-36 0 -59.5 24.5t-23.5 55.5q0 37 24 72t92 86z" />
<glyph unicode="&#x2dc;" horiz-adv-x="277" d="M245 749l25 -12q-22 -59 -41 -86t-40 -27q-17 0 -33.5 20t-30 40t-22.5 20q-20 0 -52 -79l-25 12q23 60 42 86.5t43 26.5q17 0 34 -20t29.5 -40t18.5 -20q20 0 52 79z" />
<glyph unicode="&#x2dd;" horiz-adv-x="294" d="M55 618h-28l65 152h66zM171 618h-28l65 152h66z" />
<glyph unicode="&#x394;" horiz-adv-x="450" d="M212 760h26l172 -719v-41h-370v41zM225 653l-141 -612h281z" />
<glyph unicode="&#x3a9;" horiz-adv-x="426" d="M213 760q66 0 114.5 -74t48.5 -201q0 -73 -15 -142.5t-33.5 -112.5t-33.5 -92t-15 -88h73v-50h-110v22q0 55 13.5 112.5t30 100t30 109.5t13.5 141q0 86 -29.5 154t-86.5 68t-86.5 -68t-29.5 -154q0 -74 13.5 -141t30 -109.5t30 -100t13.5 -112.5v-22h-110v50h73 q0 39 -15 88t-33.5 92t-33.5 112.5t-15 142.5q0 127 48.5 201t114.5 74z" />
<glyph unicode="&#x3bc;" horiz-adv-x="379" d="M60 540h50v-402q0 -61 12 -83t34 -22q25 0 56.5 39t56.5 116v352h50v-540h-38l-12 124q-52 -134 -119 -134q-31 0 -54 35l14 -249h-50v764z" />
<glyph unicode="&#x3c0;" horiz-adv-x="357" d="M129 0h-57l19 490h-81v30l53 20h284v-50h-64v-490h-47v490h-107v-490z" />
<glyph unicode="&#x1e80;" horiz-adv-x="581" d="M24 750h58l114 -644l8 -72h4l9 72l72 309l-60 335h58l92 -644l8 -71h4l9 71l99 644h58l-146 -750h-48l-50 280l-8 71h-4l-11 -71l-62 -280h-48zM334 803h-29l-120 127h74z" />
<glyph unicode="&#x1e81;" horiz-adv-x="472" d="M188 540h48l73 -439l7 -62h4l6 62l68 439h58l-119 -540h-40l-45 231l-6 57h-4l-10 -57l-57 -231h-40l-111 540h58l70 -439l5 -62h4l9 62l60 241zM270 618h-28l-103 152h66z" />
<glyph unicode="&#x1e82;" horiz-adv-x="581" d="M24 750h58l114 -644l8 -72h4l9 72l72 309l-60 335h58l92 -644l8 -71h4l9 71l99 644h58l-146 -750h-48l-50 280l-8 71h-4l-11 -71l-62 -280h-48zM255 803h-29l75 127h74z" />
<glyph unicode="&#x1e83;" horiz-adv-x="472" d="M188 540h48l73 -439l7 -62h4l6 62l68 439h58l-119 -540h-40l-45 231l-6 57h-4l-10 -57l-57 -231h-40l-111 540h58l70 -439l5 -62h4l9 62l60 241zM212 618h-28l65 152h66z" />
<glyph unicode="&#x1e84;" horiz-adv-x="581" d="M24 750h58l114 -644l8 -72h4l9 72l72 309l-60 335h58l92 -644l8 -71h4l9 71l99 644h58l-146 -750h-48l-50 280l-8 71h-4l-11 -71l-62 -280h-48zM247 867q0 -27 -7 -37t-25 -10t-25.5 10t-7.5 37t7.5 37t25.5 10t25 -10t7 -37zM402 867q0 -27 -7.5 -37t-25.5 -10t-25 10 t-7 37t7 37t25 10t25.5 -10t7.5 -37z" />
<glyph unicode="&#x1e85;" horiz-adv-x="472" d="M188 540h48l73 -439l7 -62h4l6 62l68 439h58l-119 -540h-40l-45 231l-6 57h-4l-10 -57l-57 -231h-40l-111 540h58l70 -439l5 -62h4l9 62l60 241zM191 704q0 -27 -7 -37t-25 -10t-25.5 10t-7.5 37t7.5 37t25.5 10t25 -10t7 -37zM346 704q0 -27 -7.5 -37t-25.5 -10t-25 10 t-7 37t7 37t25 10t25.5 -10t7.5 -37z" />
<glyph unicode="&#x1e9e;" horiz-adv-x="449" d="M165 51l39 31q11 -23 30.5 -37.5t41.5 -14.5q40 0 66.5 44.5t26.5 142.5q0 43 -5 72.5t-20.5 61t-48.5 55.5t-85 42l121 185q-3 44 -30.5 74t-68.5 30q-57 0 -84.5 -44.5t-27.5 -123.5v-569h-50v572q0 104 42.5 154.5t119.5 50.5q62 0 102.5 -40.5t48.5 -103.5l-116 -171 q79 -31 115.5 -87t36.5 -157q0 -115 -41.5 -171.5t-101.5 -56.5q-76 0 -111 61z" />
<glyph unicode="&#x2013;" horiz-adv-x="337" d="M30 322v39h277v-39h-277z" />
<glyph unicode="&#x2014;" horiz-adv-x="567" d="M30 322v39h507v-39h-507z" />
<glyph unicode="&#x2018;" horiz-adv-x="167" d="M111 780h36l-61 -204h-66z" />
<glyph unicode="&#x2019;" horiz-adv-x="167" d="M56 576h-36l61 204h66z" />
<glyph unicode="&#x201a;" horiz-adv-x="167" d="M56 -104h-36l61 204h66z" />
<glyph unicode="&#x201c;" horiz-adv-x="277" d="M221 780h36l-61 -204h-66zM111 780h36l-61 -204h-66z" />
<glyph unicode="&#x201d;" horiz-adv-x="277" d="M56 576h-36l61 204h66zM166 576h-36l61 204h66z" />
<glyph unicode="&#x201e;" horiz-adv-x="277" d="M56 -104h-36l61 204h66zM166 -104h-36l61 204h66z" />
<glyph unicode="&#x2020;" horiz-adv-x="257" d="M20 566v34h85l-4 170h54l-4 -170h86v-34h-87l-5 -204l7 -422h-48l7 422l-5 204h-86z" />
<glyph unicode="&#x2021;" horiz-adv-x="257" d="M20 566v34h85l-4 170h54l-4 -170h86v-34h-87l-5 -204l3 -208h89v-34h-88l3 -180h-48l3 180h-87v34h87l4 208l-5 204h-86z" />
<glyph unicode="&#x2022;" horiz-adv-x="203" d="M153 270q0 -43 -11 -58.5t-40 -15.5t-40.5 15.5t-11.5 58.5t11.5 58.5t40.5 15.5t40 -15.5t11 -58.5z" />
<glyph unicode="&#x2026;" horiz-adv-x="606" d="M137 50q0 -31 -8 -42t-29 -11t-29 11t-8 42t8 42t29 11t29 -11t8 -42zM339 50q0 -31 -8 -42t-29 -11t-29 11t-8 42t8 42t29 11t29 -11t8 -42zM541 50q0 -31 -8 -42t-29 -11t-29 11t-8 42t8 42t29 11t29 -11t8 -42z" />
<glyph unicode="&#x2030;" horiz-adv-x="669" d="M400 750h43l-359 -750h-43zM119 756q42 0 65.5 -51t23.5 -137q0 -87 -23.5 -137t-65.5 -50t-65.5 50t-23.5 137q0 86 23.5 137t65.5 51zM119 422q52 0 52 146q0 70 -14 108.5t-38 38.5t-38 -38.5t-14 -108.5q0 -146 52 -146zM365 371q42 0 65.5 -51t23.5 -137 q0 -87 -23.5 -137t-65.5 -50t-65.5 50t-23.5 137q0 86 23.5 137t65.5 51zM365 37q52 0 52 146q0 70 -14 108.5t-38 38.5t-38 -38.5t-14 -108.5q0 -146 52 -146zM565 371q42 0 65.5 -51t23.5 -137q0 -87 -23.5 -137t-65.5 -50t-65.5 50t-23.5 137q0 86 23.5 137t65.5 51z M565 37q52 0 52 146q0 70 -14 108.5t-38 38.5t-38 -38.5t-14 -108.5q0 -146 52 -146z" />
<glyph unicode="&#x2039;" horiz-adv-x="271" d="M50 322l140 228l31 -18l-105 -210l105 -210l-31 -18z" />
<glyph unicode="&#x203a;" horiz-adv-x="271" d="M221 322l-140 -228l-31 18l105 210l-105 210l31 18z" />
<glyph unicode="&#x2044;" horiz-adv-x="53" d="M185 750h43l-359 -750h-43z" />
<glyph unicode="&#x2070;" horiz-adv-x="252" d="M126 816q42 0 65.5 -51t23.5 -137q0 -87 -23.5 -137t-65.5 -50t-65.5 50t-23.5 137q0 86 23.5 137t65.5 51zM126 482q52 0 52 146q0 70 -14 108.5t-38 38.5t-38 -38.5t-14 -108.5q0 -146 52 -146z" />
<glyph unicode="&#x2074;" horiz-adv-x="232" d="M173 440h-40v92h-112l-6 29l120 249h38v-246l42 3v-35h-42v-92zM55 555l78 6v118l7 85l-5 1l-23 -63z" />
<glyph unicode="&#x2075;" horiz-adv-x="222" d="M60 531q9 -61 46 -61q50 0 50 94q0 89 -55 89q-20 0 -42 -16l-25 12l12 161h137v-41l-100 13l-8 -113q19 13 41 13q34 0 57 -29t23 -88q0 -124 -91 -124q-68 0 -84 80z" />
<glyph unicode="&#x2076;" horiz-adv-x="234" d="M69 628v-15q23 47 66 47q27 0 49 -27.5t22 -81.5q0 -57 -25 -83.5t-60 -26.5q-19 0 -33 5.5t-28.5 23t-22.5 57.5t-8 101q0 188 90 188q64 0 81 -81l-38 -8q-8 59 -43 59q-50 0 -50 -158zM125 633q-31 0 -55 -49q2 -48 11 -74.5t18 -32.5t22 -6q45 0 45 79 q0 42 -11.5 62.5t-29.5 20.5z" />
<glyph unicode="&#x2077;" horiz-adv-x="207" d="M21 810h170l-112 -365h-40l103 337l-121 -13v41z" />
<glyph unicode="&#x2078;" horiz-adv-x="211" d="M192 534q0 -40 -24 -66.5t-63 -26.5t-62.5 25.5t-23.5 66.5q0 62 63 107q-56 46 -56 97q0 35 20.5 59t58.5 24q36 0 57.5 -21.5t21.5 -55.5q0 -57 -60 -94q22 -18 33.5 -30t23 -35t11.5 -50zM54 536q0 -30 15 -47.5t36 -17.5t36 16.5t15 41.5q0 23 -9.5 42.5t-20.5 30.5 t-30 27q-42 -42 -42 -93zM149 740q0 22 -12 36t-32 14q-23 0 -32.5 -16.5t-9.5 -35.5q0 -38 48 -77q38 36 38 79z" />
<glyph unicode="&#x2079;" horiz-adv-x="244" d="M115 471q26 0 39.5 33.5t13.5 124.5v15q-24 -47 -66 -47q-27 0 -49 27.5t-22 81.5q0 57 25 83.5t60 26.5q19 0 33 -5.5t28.5 -23t22.5 -57.5t8 -101q0 -188 -94 -188q-63 0 -80 81l38 8q9 -59 43 -59zM112 624q31 0 54 48q-2 48 -11 75t-18 33t-21 6q-45 0 -45 -79 q0 -42 11.5 -62.5t29.5 -20.5z" />
<glyph unicode="&#x2080;" horiz-adv-x="252" d="M126 311q42 0 65.5 -51t23.5 -137q0 -87 -23.5 -137t-65.5 -50t-65.5 50t-23.5 137q0 86 23.5 137t65.5 51zM126 -23q52 0 52 146q0 70 -14 108.5t-38 38.5t-38 -38.5t-14 -108.5q0 -146 52 -146z" />
<glyph unicode="&#x2081;" horiz-adv-x="181" d="M84 305h40v-365h-40v333l-43 -64l-29 24z" />
<glyph unicode="&#x2082;" horiz-adv-x="217" d="M24 -60q0 60 68 164q55 84 55 126q0 51 -39 51q-18 0 -31.5 -15.5t-17.5 -43.5l-38 6q8 42 32 62.5t55 20.5q35 0 57 -19.5t22 -61.5q0 -12 -2 -23t-9.5 -26.5t-11.5 -23t-18.5 -31.5t-19.5 -33q-52 -89 -59 -122l112 12v-43h-155z" />
<glyph unicode="&#x2083;" horiz-adv-x="222" d="M84 122h-4v31h4q32 0 49.5 21.5t17.5 55.5q0 52 -39 52q-40 0 -48 -60l-38 10q18 79 86 79q37 0 58 -22t21 -59q0 -31 -18 -57.5t-49 -33.5q31 -8 49.5 -33t18.5 -65q0 -53 -25 -79t-65 -26q-74 0 -87 80l39 10q9 -61 49 -61q49 0 49 75q0 82 -68 82z" />
<glyph unicode="&#x2084;" horiz-adv-x="232" d="M173 -65h-40v92h-112l-6 29l120 249h38v-246l42 3v-35h-42v-92zM55 50l78 6v118l7 85l-5 1l-23 -63z" />
<glyph unicode="&#x2085;" horiz-adv-x="222" d="M60 26q9 -61 46 -61q50 0 50 94q0 89 -55 89q-20 0 -42 -16l-25 12l12 161h137v-41l-100 13l-8 -113q19 13 41 13q34 0 57 -29t23 -88q0 -124 -91 -124q-68 0 -84 80z" />
<glyph unicode="&#x2086;" horiz-adv-x="234" d="M69 123v-15q23 47 66 47q27 0 49 -27.5t22 -81.5q0 -57 -25 -83.5t-60 -26.5q-19 0 -33 5.5t-28.5 23t-22.5 57.5t-8 101q0 188 90 188q64 0 81 -81l-38 -8q-8 59 -43 59q-50 0 -50 -158zM125 128q-31 0 -55 -49q2 -48 11 -74.5t18 -32.5t22 -6q45 0 45 79 q0 42 -11.5 62.5t-29.5 20.5z" />
<glyph unicode="&#x2087;" horiz-adv-x="207" d="M21 305h170l-112 -365h-40l103 337l-121 -13v41z" />
<glyph unicode="&#x2088;" horiz-adv-x="211" d="M192 29q0 -40 -24 -66.5t-63 -26.5t-62.5 25.5t-23.5 66.5q0 62 63 107q-56 46 -56 97q0 35 20.5 59t58.5 24q36 0 57.5 -21.5t21.5 -55.5q0 -57 -60 -94q22 -18 33.5 -30t23 -35t11.5 -50zM54 31q0 -30 15 -47.5t36 -17.5t36 16.5t15 41.5q0 23 -9.5 42.5t-20.5 30.5 t-30 27q-42 -42 -42 -93zM149 235q0 22 -12 36t-32 14q-23 0 -32.5 -16.5t-9.5 -35.5q0 -38 48 -77q38 36 38 79z" />
<glyph unicode="&#x2089;" horiz-adv-x="244" d="M115 -34q26 0 39.5 33.5t13.5 124.5v15q-24 -47 -66 -47q-27 0 -49 27.5t-22 81.5q0 57 25 83.5t60 26.5q19 0 33 -5.5t28.5 -23t22.5 -57.5t8 -101q0 -188 -94 -188q-63 0 -80 81l38 8q9 -59 43 -59zM112 119q32 0 55 48q-3 48 -12 75t-18 33t-21 6q-45 0 -45 -79 q0 -42 11.5 -62.5t29.5 -20.5z" />
<glyph unicode="&#x20a3;" horiz-adv-x="330" d="M0 189v39h80v522h230v-50l-180 13v-304l149 11v-52l-149 10v-150h109v-39h-109v-189h-50v189h-80z" />
<glyph unicode="&#x20a4;" horiz-adv-x="330" d="M108 479v-23h131v-39h-131v-91h131v-39h-131v-119q0 -85 -35 -133l235 15v-50h-280l-5 24q36 47 36 138v125h-59v39h59v91h-59v39h59v23q0 281 131 281q46 0 73.5 -33t35.5 -88l-48 -12q-11 93 -63 93q-80 0 -80 -241z" />
<glyph unicode="&#x20a7;" horiz-adv-x="926" d="M130 0h-50v750h113q82 0 128 -60t46 -179q0 -239 -174 -239h-63v-272zM191 707h-61v-392h61q65 0 94 47.5t29 148.5t-29 148.5t-94 47.5zM878 429l-48 -12q-11 90 -63 90q-63 0 -63 -79q0 -32 20 -61.5t67 -71.5q54 -48 74.5 -83.5t20.5 -93.5q0 -61 -36.5 -94.5 t-94.5 -33.5q-47 0 -78.5 34.5t-39.5 88.5l48 12q5 -43 25.5 -67.5t46.5 -24.5q37 0 58 23t21 61q0 39 -17.5 70t-67.5 73q-52 43 -74.5 79t-22.5 89q0 57 31.5 89.5t83.5 32.5q91 0 109 -121zM417 497v28l40 4v9l10 112h40v-115l91 10v-48h-91v-354q0 -58 11.5 -81.5 t40.5 -23.5q23 0 41 9v-45q-21 -7 -53 -7q-45 0 -67.5 28.5t-22.5 96.5v377h-40z" />
<glyph unicode="&#x20ac;" horiz-adv-x="404" d="M0 417v39h57q15 303 159 303q53 0 86 -40t50 -129l-47 -12q-23 141 -91 141q-94 0 -105 -263h158l-13 -39h-146v-43v-48h117l-12 -39h-103q11 -257 104 -257q71 0 101 145l49 -13q-37 -172 -148 -172q-143 0 -159 297h-57v39h55v48v43h-55z" />
<glyph unicode="&#x2113;" horiz-adv-x="276" d="M26 296l-14 26q32 18 58 40v265q0 82 26.5 117.5t58.5 35.5t59 -35.5t27 -117.5q0 -167 -121 -278v-231q0 -47 11.5 -66t40.5 -19q23 0 41 9v-45q-21 -7 -53 -7q-40 0 -65 31t-25 94v208q-22 -15 -44 -27zM190 627q0 113 -35 113t-35 -113v-230q70 86 70 230z" />
<glyph unicode="&#x2122;" horiz-adv-x="517" d="M454 384h-39v305l-63 -193h-27l-62 192v-304h-38v366h38l72 -174l4 -25l5 25l71 174h39v-366zM115 384h-39v341l-76 -9v34h190v-34l-75 8v-340z" />
<glyph unicode="&#x2126;" horiz-adv-x="446" d="M223 760q66 0 114.5 -74t48.5 -201q0 -73 -15 -142.5t-33.5 -112.5t-33.5 -92t-15 -88h73v-50h-110v22q0 55 13.5 112.5t30 100t30 109.5t13.5 141q0 86 -29.5 154t-86.5 68t-86.5 -68t-29.5 -154q0 -74 13.5 -141t30 -109.5t30 -100t13.5 -112.5v-22h-110v50h73 q0 39 -15 88t-33.5 92t-33.5 112.5t-15 142.5q0 127 48.5 201t114.5 74z" />
<glyph unicode="&#x212e;" horiz-adv-x="800" d="M184 108q87 -100 218 -100q66 0 125.5 30t102.5 82h52q-51 -61 -124.5 -96.5t-157.5 -35.5q-147 0 -250.5 98t-103.5 238t103.5 238t250.5 98t250.5 -98t103.5 -238v-8h-574q-4 0 -4 -4v-184q0 -8 8 -20zM180 334h440q6 0 6 6v184q0 12 -10 22q-91 94 -214 94 q-127 0 -218 -98q-8 -12 -8 -22v-180q0 -6 4 -6z" />
<glyph unicode="&#x2202;" horiz-adv-x="367" d="M205 550q26 0 48 -31t37 -83q4 76 4 116q0 90 -27 144t-74 54q-42 0 -87 -34l-17 29q57 39 113 39q67 0 106 -61t39 -168q0 -158 -25 -284.5t-76.5 -203.5t-121.5 -77q-114 0 -114 167q0 93 24 182.5t70 150t101 60.5zM127 30q58 0 98.5 92.5t57.5 240.5 q-8 47 -30.5 95.5t-45.5 48.5q-42 0 -76 -60t-51 -141.5t-17 -159.5q0 -116 64 -116z" />
<glyph unicode="&#x2206;" horiz-adv-x="450" d="M212 760h26l172 -719v-41h-370v41zM225 653l-141 -612h281z" />
<glyph unicode="&#x220f;" horiz-adv-x="500" d="M130 -80h-50v830h340v-830h-50v786h-240v-786z" />
<glyph unicode="&#x2211;" horiz-adv-x="364" d="M266 339l-147 -382l210 13v-50h-249v34l139 385l-139 377v34h249v-50l-210 13z" />
<glyph unicode="&#x2212;" horiz-adv-x="317" d="M30 322v39h257v-39h-257z" />
<glyph unicode="&#x2215;" horiz-adv-x="163" d="M240 750h43l-359 -750h-43z" />
<glyph unicode="&#x2219;" horiz-adv-x="174" d="M124 270q0 -31 -8 -42t-29 -11t-29 11t-8 42t8 42t29 11t29 -11t8 -42z" />
<glyph unicode="&#x221a;" horiz-adv-x="416" d="M27 406v28h93l86 -376l157 774h43l-187 -832h-43l-93 393z" />
<glyph unicode="&#x221e;" horiz-adv-x="650" d="M469 480q62 0 101.5 -46t39.5 -121q0 -77 -40.5 -119.5t-97.5 -42.5q-47 0 -83.5 31t-71.5 92q-31 -54 -63 -83.5t-78 -29.5q-55 0 -95.5 39.5t-40.5 117.5q0 74 39 112t94 38q44 0 79.5 -35.5t56.5 -87.5q35 64 70.5 99.5t89.5 35.5zM460 195q48 0 79 33.5t31 86.5 q0 47 -25.5 82.5t-71.5 35.5q-24 0 -44.5 -10t-39 -33t-28.5 -39t-29 -50q35 -57 63.5 -81.5t64.5 -24.5zM179 424q-38 0 -68.5 -26t-30.5 -80q0 -32 10.5 -55t26.5 -34t31.5 -16t29.5 -5q35 0 61 28t55 82q-22 48 -53 77t-62 29z" />
<glyph unicode="&#x222b;" horiz-adv-x="230" d="M70 -27v679q0 63 25 94t65 31q32 0 53 -7v-45q-18 9 -41 9q-29 0 -40.5 -19t-11.5 -66v-699q0 -68 -22.5 -96.5t-67.5 -28.5q-32 0 -53 7v45q18 -9 41 -9q29 0 40.5 23.5t11.5 81.5z" />
<glyph unicode="&#x2248;" horiz-adv-x="317" d="M95 427q-15 0 -25.5 -11t-30.5 -44l-24 15q40 76 86 76q25 0 74 -33q35 -24 48 -24q15 0 25.5 11t30.5 44l24 -15q-40 -76 -86 -76q-25 0 -74 33q-35 24 -48 24zM95 277q-15 0 -25.5 -11t-30.5 -44l-24 15q40 76 86 76q25 0 74 -33q35 -24 48 -24q15 0 25.5 11t30.5 44 l24 -15q-40 -76 -86 -76q-25 0 -74 33q-35 24 -48 24z" />
<glyph unicode="&#x2260;" horiz-adv-x="317" d="M30 397v39h153l54 112l32 -14l-47 -98h65v-39h-84l-53 -111h137v-39h-155l-54 -112l-32 14l47 98h-63v39h81l53 111h-134z" />
<glyph unicode="&#x2264;" horiz-adv-x="300" d="M20 372l182 182l37 -38l-171 -144l171 -144l-37 -38zM240 135v-39h-189v39h189z" />
<glyph unicode="&#x2265;" horiz-adv-x="300" d="M280 372l-182 -182l-37 38l171 144l-171 144l37 38zM60 96v39h189v-39h-189z" />
<glyph unicode="&#x24c5;" horiz-adv-x="585" d="M290 -44q-114 0 -192 113.5t-78 304.5t78 304.5t192 113.5t192 -113.5t78 -304.5t-78 -304.5t-192 -113.5zM290 -7q98 0 164 104t66 277t-66 277t-164 104t-164 -103.5t-66 -277.5t66 -277.5t164 -103.5zM240 100h-47v550h93q65 0 103.5 -44t38.5 -131q0 -91 -38 -133.5 t-104 -42.5h-46v-199zM284 618h-44v-287h44q48 0 69.5 35t21.5 109q0 73 -21.5 108t-69.5 35z" />
<glyph unicode="&#x25ca;" horiz-adv-x="406" d="M191 0l-162 380l162 380h26l162 -380l-162 -380h-26zM76 380l128 -314l127 314l-127 314z" />
<glyph unicode="&#x25fc;" horiz-adv-x="540" d="M0 540h540v-540h-540v540z" />
<glyph unicode="&#xfb01;" horiz-adv-x="422" d="M30 497v28l40 4v123q0 63 25 94t65 31q32 0 53 -7v-45q-18 9 -41 9q-29 0 -40.5 -19t-11.5 -66v-114l91 10v-48h-91v-497h-50v497h-40zM260 512v28h90v-540h-50v503zM357 700q0 -31 -8 -42t-29 -11t-29 11t-8 42t8 42t29 11t29 -11t8 -42z" />
<glyph unicode="&#xfb02;" horiz-adv-x="410" d="M30 497v28l40 4v123q0 63 25 94t65 31q32 0 53 -7v-45q-18 9 -41 9q-29 0 -40.5 -19t-11.5 -66v-114l91 10v-48h-91v-497h-50v497h-40zM396 41v-41q-17 -7 -44 -7t-44.5 18.5t-17.5 56.5v702h50v-699q0 -35 25 -35q16 0 31 5z" />
<glyph horiz-adv-x="166" d="M50 -224h-29l37 172h60z" />
<glyph horiz-adv-x="192" d="M30 512v28h90v-540h-50v503zM127 700q0 -31 -8 -42t-29 -11t-29 11t-8 42t8 42t29 11t29 -11t8 -42z" />
<glyph horiz-adv-x="252" d="M126 756q42 0 65.5 -51t23.5 -137q0 -87 -23.5 -137t-65.5 -50t-65.5 50t-23.5 137q0 86 23.5 137t65.5 51zM126 422q52 0 52 146q0 70 -14 108.5t-38 38.5t-38 -38.5t-14 -108.5q0 -146 52 -146z" />
<glyph horiz-adv-x="181" d="M84 750h40v-365h-40v333l-43 -64l-29 24z" />
<glyph horiz-adv-x="217" d="M24 385q0 60 68 164q55 84 55 126q0 51 -39 51q-18 0 -31.5 -15.5t-17.5 -43.5l-38 6q8 42 32 62.5t55 20.5q35 0 57 -19.5t22 -61.5q0 -12 -2 -23t-9.5 -26.5t-11.5 -23t-18.5 -31.5t-19.5 -33q-52 -89 -59 -123l112 13v-43h-155z" />
<glyph horiz-adv-x="222" d="M84 567h-4v31h4q32 0 49.5 21.5t17.5 55.5q0 52 -39 52q-40 0 -48 -60l-38 10q18 79 86 79q37 0 58 -22t21 -59q0 -31 -18 -57.5t-49 -33.5q31 -8 49.5 -33t18.5 -65q0 -53 -25 -79t-65 -26q-74 0 -87 80l39 10q9 -61 49 -61q49 0 49 75q0 82 -68 82z" />
<glyph horiz-adv-x="232" d="M173 380h-40v92h-112l-6 29l120 249h38v-246l42 3v-35h-42v-92zM55 495l78 6v197z" />
<glyph horiz-adv-x="222" d="M60 471q9 -61 46 -61q50 0 50 94q0 89 -55 89q-20 0 -42 -16l-25 12l12 161h137v-41l-100 13l-8 -113q19 13 41 13q34 0 57 -29t23 -88q0 -124 -91 -124q-68 0 -84 80z" />
<glyph horiz-adv-x="234" d="M69 568v-15q23 47 66 47q27 0 49 -27.5t22 -81.5q0 -57 -25 -83.5t-60 -26.5q-19 0 -33 5.5t-28.5 23t-22.5 57.5t-8 101q0 188 90 188q64 0 81 -81l-38 -8q-8 59 -43 59q-50 0 -50 -158zM125 573q-31 0 -55 -49q2 -48 11 -74.5t18 -32.5t22 -6q45 0 45 79 q0 42 -11.5 62.5t-29.5 20.5z" />
<glyph horiz-adv-x="207" d="M21 750h170l-112 -365h-40l103 337l-121 -13v41z" />
<glyph horiz-adv-x="211" d="M192 474q0 -40 -24 -66.5t-63 -26.5t-62.5 25.5t-23.5 66.5q0 62 63 107q-56 46 -56 97q0 35 20.5 59t58.5 24q36 0 57.5 -21.5t21.5 -55.5q0 -57 -60 -94q22 -18 33.5 -30t23 -35t11.5 -50zM54 476q0 -30 15 -47.5t36 -17.5t36 16.5t15 41.5q0 23 -9.5 42.5t-20.5 30.5 t-30 27q-42 -42 -42 -93zM149 680q0 22 -12 36t-32 14q-23 0 -32.5 -16.5t-9.5 -35.5q0 -38 48 -77q38 36 38 79z" />
<glyph horiz-adv-x="244" d="M115 411q26 0 39.5 33.5t13.5 124.5v15q-24 -47 -66 -47q-27 0 -49 27.5t-22 81.5q0 57 25 83.5t60 26.5q19 0 33 -5.5t28.5 -23t22.5 -57.5t8 -101q0 -188 -94 -188q-63 0 -80 81l38 8q9 -59 43 -59zM112 564q31 0 54 48q-2 48 -11 75t-18 33t-21 6q-45 0 -45 -79 q0 -42 11.5 -62.5t29.5 -20.5z" />
<glyph horiz-adv-x="252" d="M126 371q42 0 65.5 -51t23.5 -137q0 -87 -23.5 -137t-65.5 -50t-65.5 50t-23.5 137q0 86 23.5 137t65.5 51zM126 37q52 0 52 146q0 70 -14 108.5t-38 38.5t-38 -38.5t-14 -108.5q0 -146 52 -146z" />
<glyph horiz-adv-x="181" d="M84 365h40v-365h-40v333l-43 -64l-29 24z" />
<glyph horiz-adv-x="217" d="M24 0q0 60 68 164q55 84 55 126q0 51 -39 51q-18 0 -31.5 -15.5t-17.5 -43.5l-38 6q8 42 32 62.5t55 20.5q35 0 57 -19.5t22 -61.5q0 -12 -2 -23t-9.5 -26.5t-11.5 -23t-18.5 -31.5t-19.5 -33q-52 -89 -59 -123l112 13v-43h-155z" />
<glyph horiz-adv-x="222" d="M84 182h-4v31h4q32 0 49.5 21.5t17.5 55.5q0 52 -39 52q-40 0 -48 -60l-38 10q18 79 86 79q37 0 58 -22t21 -59q0 -31 -18 -57.5t-49 -33.5q31 -8 49.5 -33t18.5 -65q0 -53 -25 -79t-65 -26q-74 0 -87 80l39 10q9 -61 49 -61q49 0 49 75q0 82 -68 82z" />
<glyph horiz-adv-x="232" d="M173 -5h-40v92h-112l-6 29l120 249h38v-246l42 3v-35h-42v-92zM55 110l78 6v118l7 85l-5 1l-23 -63z" />
<glyph horiz-adv-x="222" d="M60 86q9 -61 46 -61q50 0 50 94q0 89 -55 89q-20 0 -42 -16l-25 12l12 161h137v-41l-100 13l-8 -113q19 13 41 13q34 0 57 -29t23 -88q0 -124 -91 -124q-68 0 -84 80z" />
<glyph horiz-adv-x="234" d="M69 183v-15q23 47 66 47q27 0 49 -27.5t22 -81.5q0 -57 -25 -83.5t-60 -26.5q-19 0 -33 5.5t-28.5 23t-22.5 57.5t-8 101q0 188 90 188q64 0 81 -81l-38 -8q-8 59 -43 59q-50 0 -50 -158zM125 188q-31 0 -55 -49q2 -48 11 -74.5t18 -32.5t22 -6q45 0 45 79 q0 42 -11.5 62.5t-29.5 20.5z" />
<glyph horiz-adv-x="207" d="M21 365h170l-112 -365h-40l103 337l-121 -13v41z" />
<glyph horiz-adv-x="211" d="M192 89q0 -40 -24 -66.5t-63 -26.5t-62.5 25.5t-23.5 66.5q0 62 63 107q-56 46 -56 97q0 35 20.5 59t58.5 24q36 0 57.5 -21.5t21.5 -55.5q0 -57 -60 -94q22 -18 33.5 -30t23 -35t11.5 -50zM54 91q0 -30 15 -47.5t36 -17.5t36 16.5t15 41.5q0 23 -9.5 42.5t-20.5 30.5 t-30 27q-42 -42 -42 -93zM149 295q0 22 -12 36t-32 14q-23 0 -32.5 -16.5t-9.5 -35.5q0 -38 48 -77q38 36 38 79z" />
<glyph horiz-adv-x="244" d="M115 26q26 0 39.5 33.5t13.5 124.5v15q-24 -47 -66 -47q-27 0 -49 27.5t-22 81.5q0 57 25 83.5t60 26.5q19 0 33 -5.5t28.5 -23t22.5 -57.5t8 -101q0 -188 -94 -188q-63 0 -80 81l38 8q9 -59 43 -59zM112 179q32 0 55 48q-3 48 -12 75t-18 33t-21 6q-45 0 -45 -79 q0 -42 11.5 -62.5t29.5 -20.5z" />
<glyph horiz-adv-x="202" d="M138 50q0 -31 -8 -42t-29 -11t-29 11t-8 42t8 42t29 11t29 -11t8 -42zM72 770h58l-10 -575h-38z" />
<glyph horiz-adv-x="320" d="M187 -56h-50l2 87q-89 12 -109 115l44 12q14 -72 66 -86l6 218q-61 50 -83.5 85.5t-22.5 80.5q0 48 28 76.5t71 35.5l-2 89h50l-3 -89q80 -10 99 -113l-42 -11q-12 68 -58 84l-6 -201q67 -51 90 -88t23 -81q0 -55 -29 -87.5t-77 -39.5zM243 158q0 50 -65 115l5 -202 q28 6 44 29t16 58zM87 456q0 -58 59 -114l-6 186q-53 -16 -53 -72z" />
<glyph horiz-adv-x="522" d="M383 600h45l-287 -600h-45zM119 606q42 0 65.5 -51t23.5 -137q0 -87 -23.5 -137t-65.5 -50t-65.5 50t-23.5 137q0 86 23.5 137t65.5 51zM119 272q52 0 52 146q0 70 -14 108.5t-38 38.5t-38 -38.5t-14 -108.5q0 -146 52 -146zM403 371q42 0 65.5 -51t23.5 -137 q0 -87 -23.5 -137t-65.5 -50t-65.5 50t-23.5 137q0 86 23.5 137t65.5 51zM403 37q52 0 52 146q0 70 -14 108.5t-38 38.5t-38 -38.5t-14 -108.5q0 -146 52 -146z" />
<glyph horiz-adv-x="417" d="M384 -2h-54l-62 106q-56 -114 -116 -114q-48 0 -81.5 37t-33.5 105q0 113 107 189q-33 62 -45 98.5t-12 71.5q0 55 30.5 87t71.5 32q45 0 71.5 -28t40.5 -97l-48 -11q-6 46 -23 71t-41 25t-37.5 -21.5t-13.5 -55.5q0 -42 25.5 -99.5t114.5 -212.5l56 137l46 -12l-85 -155 q40 -70 89 -153zM249 135l-89 156q-70 -63 -70 -159q0 -45 20.5 -72.5t44.5 -27.5t45.5 26.5t48.5 76.5z" />
<glyph horiz-adv-x="226" d="M110 359q0 -159 32 -279t74 -163l-24 -24q-56 47 -94 166t-38 300t38 300t94 166l24 -24q-42 -43 -74 -163t-32 -279z" />
<glyph horiz-adv-x="226" d="M116 359q0 159 -32 279t-74 163l24 24q56 -47 94 -166t38 -300t-38 -300t-94 -166l-24 24q42 43 74 163t32 279z" />
<glyph horiz-adv-x="265" d="M219 809h44l-221 -900h-44z" />
<glyph horiz-adv-x="345" d="M305 300q0 -149 -34 -229.5t-99 -80.5t-98.5 80t-33.5 230t33.5 230t98.5 80t99 -80.5t34 -229.5zM84 300q0 -112 22 -184.5t66 -72.5t66.5 72.5t22.5 184.5t-22.5 184.5t-66.5 72.5t-66 -72.5t-22 -184.5z" />
<glyph horiz-adv-x="257" d="M117 600h50v-600h-50v470l6 89l-4 1l-31 -55l-39 -64l-39 33z" />
<glyph horiz-adv-x="316" d="M83 35l187 15v-50h-240q0 48 28.5 122t76.5 149q90 141 90 203q0 44 -19 69t-51 25q-28 0 -47.5 -30t-26.5 -84l-47 12q22 144 121 144q121 0 121 -136q0 -30 -13 -65.5t-24.5 -56t-49.5 -82.5q-4 -7 -7 -12l-6 -10q-86 -141 -93 -213z" />
<glyph horiz-adv-x="324" d="M120 300h-7v45h7q111 0 111 131q0 92 -66 92t-80 -114l-48 12q23 144 128 144q116 0 116 -134q0 -50 -23.5 -94t-73.5 -56q46 -14 73 -57t27 -106q0 -89 -36 -131t-99 -42q-53 0 -84.5 34t-44.5 111l49 13q17 -116 82 -116q82 0 82 130q0 71 -25.5 104.5t-87.5 33.5z" />
<glyph horiz-adv-x="313" d="M243 0h-50v153h-179l-6 29l187 418h48v-406l55 4v-45h-55v-153zM61 181l132 9v250l5 91h-4l-31 -87z" />
<glyph horiz-adv-x="331" d="M79 151q20 -121 80 -121q81 0 81 169q0 73 -22 113.5t-57 40.5q-38 0 -72 -44l-28 14l18 277h191v-50l-144 14l-10 -155l-9 -45l4 -1q23 28 64 28q48 0 82 -48t34 -142q0 -108 -36.5 -159.5t-95.5 -51.5q-50 0 -82 34.5t-47 113.5z" />
<glyph horiz-adv-x="338" d="M91 298l-5 -31l4 -1q6 15 14 26q36 51 87 51q47 0 79.5 -40.5t32.5 -122.5q0 -97 -36.5 -143.5t-86.5 -46.5q-23 0 -40 5t-37 23t-33 50t-21.5 90.5t-8.5 139.5q0 93 12 158t32.5 96.5t41.5 44.5t46 13q91 0 114 -136l-47 -12q-7 56 -26 82t-43 26q-79 0 -79 -272z M184 308q-53 0 -92 -82q3 -62 12 -103.5t22 -60.5t25.5 -25.5t28.5 -6.5q29 0 50.5 36.5t21.5 111.5q0 64 -19.5 97t-48.5 33z" />
<glyph horiz-adv-x="272" d="M10 600h247l-183 -600h-48l172 566l-188 -16v50z" />
<glyph horiz-adv-x="339" d="M299 145q0 -65 -34 -110t-96 -45q-60 0 -94.5 40.5t-34.5 108.5q0 46 27.5 94t70.5 80q-41 37 -63.5 72.5t-22.5 85.5q0 59 33.5 99t85.5 40q51 0 82 -35t31 -89q0 -45 -23 -86.5t-60 -70.5q47 -42 72.5 -83t25.5 -101zM84 142q0 -52 25 -82t60 -30q38 0 60.5 29t22.5 75 q0 36 -15 67.5t-31.5 49t-47.5 45.5q-74 -71 -74 -154zM241 482q0 40 -19 64t-51 24q-31 0 -51.5 -26.5t-20.5 -63.5q0 -40 21 -69t62 -65q59 65 59 136z" />
<glyph horiz-adv-x="338" d="M154 292q53 0 91 82q-3 62 -12 103.5t-22 60.5t-25 25.5t-28 6.5q-29 0 -50.5 -36.5t-21.5 -111.5q0 -64 19.5 -97t48.5 -33zM234 308q-36 -51 -87 -51q-47 0 -79.5 40.5t-32.5 122.5q0 97 36.5 143.5t86.5 46.5q23 0 40 -5t37 -23t33 -50t21.5 -90.5t8.5 -139.5 q0 -92 -13 -157.5t-34.5 -97t-43 -44.5t-46.5 -13q-91 0 -116 136l47 12q15 -108 71 -108q84 0 84 272l5 31l-4 1q-6 -15 -14 -26z" />
<glyph horiz-adv-x="318" d="M155 195h-38q0 102 14 163t45 117q4 9 25 48t29.5 65t8.5 56q0 46 -21 71t-60 25q-37 0 -63.5 -37t-35.5 -105l-47 12q28 170 150 170q59 0 93.5 -35t34.5 -101q0 -27 -8 -54.5t-16.5 -44.5t-24.5 -45t-23 -42q-32 -57 -47.5 -115.5t-15.5 -147.5zM175 50q0 -31 -8 -42 t-29 -11t-29 11t-8 42t8 42t29 11t29 -11t8 -42z" />
<glyph horiz-adv-x="270" d="M230 810v-28l-80 -11v-824l80 -11v-28h-130v902h130z" />
<glyph horiz-adv-x="265" d="M-2 809h44l221 -900h-44z" />
<glyph horiz-adv-x="270" d="M40 782v28h130v-902h-130v28l80 11v824z" />
<glyph horiz-adv-x="206" d="M168 643h-29l-120 127h74z" />
<glyph horiz-adv-x="354" d="M283 0l-32 169h-148l-31 -169h-52l127 600h61l126 -600h-51zM175 569l-7 -52l-57 -304h132l-57 304l-7 52h-4z" />
<glyph horiz-adv-x="375" d="M75 0v600h93q144 0 144 -144q0 -99 -89 -123q102 -27 102 -156q0 -177 -154 -177h-96zM169 312h-44v-269h44q54 0 78.5 32.5t24.5 101.5q0 70 -24.5 102.5t-78.5 32.5zM166 557h-41v-202h41q49 0 71 24t22 77t-22 77t-71 24z" />
<glyph horiz-adv-x="347" d="M268 145l49 -13q-32 -142 -126 -142q-74 0 -112.5 71t-38.5 239t38.5 239.5t112.5 71.5q49 0 78 -32.5t45 -106.5l-47 -12q-10 56 -28 83.5t-50 27.5q-50 0 -73 -67t-23 -204q0 -270 96 -270q56 0 79 115z" />
<glyph horiz-adv-x="381" d="M75 0v600h102q80 0 122 -70.5t42 -230.5t-42 -229.5t-122 -69.5h-102zM175 557h-50v-514h50q113 0 113 256q0 258 -113 258z" />
<glyph horiz-adv-x="315" d="M75 0v600h208v-50l-158 13v-225l134 11v-52l-134 11v-272l160 14v-50h-210z" />
<glyph horiz-adv-x="313" d="M125 0h-50v600h208v-50l-158 13v-233l134 11v-52l-134 11v-300z" />
<glyph horiz-adv-x="379" d="M217 256v28h122q0 -292 -150 -292q-149 0 -149 308q0 168 38.5 239.5t112.5 71.5q99 0 131 -139l-47 -12q-23 111 -86 111q-97 0 -97 -269t98 -269q89 0 96 210z" />
<glyph horiz-adv-x="418" d="M293 0v301h-168v-301h-50v600h50v-255h168v255h50v-600h-50z" />
<glyph horiz-adv-x="260" d="M45 566v34h170v-34h-59v-532h59v-34h-170v34h61v532h-61z" />
<glyph horiz-adv-x="331" d="M256 600v-399q0 -211 -117 -211q-52 0 -80.5 35t-38.5 107l49 13q7 -58 22.5 -85t47.5 -27q67 0 67 158v409h50z" />
<glyph horiz-adv-x="369" d="M125 0h-50v600h50v-262h44l112 262h62l-144 -281l160 -319h-60l-132 299l1 1h-43v-300z" />
<glyph horiz-adv-x="300" d="M75 0v600h50v-564l160 14v-50h-210z" />
<glyph horiz-adv-x="450" d="M125 0h-50v600h50l85 -299l13 -77h4l13 77l85 299h50v-600h-50v447l9 71h-4l-20 -95l-69 -243h-32l-69 243l-20 95h-4l9 -71v-447z" />
<glyph horiz-adv-x="426" d="M125 0h-50v600h50l138 -384l40 -130h6l-8 75v439h50v-600h-50l-138 387l-40 130h-6l8 -75v-442z" />
<glyph d="M40 300q0 310 149 310q151 0 151 -310t-151 -310q-149 0 -149 310zM93 300q0 -269 96 -269q98 0 98 269q0 270 -98 270q-96 0 -96 -270z" />
<glyph horiz-adv-x="365" d="M125 0h-50v600h96q73 0 113.5 -50t40.5 -149q0 -199 -154 -199h-46v-202zM169 557h-44v-312h44q54 0 78.5 38t24.5 118t-24.5 118t-78.5 38z" />
<glyph d="M40 302q0 309 149 309q151 0 151 -309q0 -215 -71 -280l67 -111h-60l-46 88q-18 -7 -41 -7q-149 0 -149 310zM167 120h43l34 -58q43 59 43 240q0 269 -98 269q-96 0 -96 -269t96 -269q12 0 21 3z" />
<glyph d="M125 0h-50v600h96q73 0 113.5 -42.5t40.5 -126.5q0 -145 -114 -166l134 -265h-60l-116 262h-44v-262zM169 557h-44v-252h44q54 0 78.5 31t24.5 95t-24.5 95t-78.5 31z" />
<glyph horiz-adv-x="339" d="M249 465q-18 103 -78 103q-31 0 -49.5 -25t-18.5 -68q0 -41 18.5 -66.5t71.5 -71.5q55 -48 80.5 -90.5t25.5 -103.5q0 -72 -35.5 -112.5t-92.5 -40.5q-104 0 -131 139l48 11q18 -107 86 -107q36 0 55 29t19 76q0 49 -20.5 79.5t-73.5 80.5q-37 34 -54.5 53.5t-32.5 52 t-15 71.5q0 67 34 101.5t87 34.5q99 0 123 -134z" />
<glyph horiz-adv-x="310" d="M180 0h-49v556h-111v44h270v-44h-110v-556z" />
<glyph horiz-adv-x="389" d="M60 600h50v-376q0 -193 84 -193q85 0 85 193v376h50v-376q0 -234 -135 -234q-134 0 -134 234v376z" />
<glyph horiz-adv-x="348" d="M20 600h58l88 -495l8 -74h4l8 74l84 495h58l-131 -600h-48z" />
<glyph horiz-adv-x="491" d="M20 600h58l86 -495l8 -74h4l8 74l52 217l-53 278h58l75 -495l8 -74h4l8 74l77 495h58l-124 -600h-48l-34 176l-11 82h-4l-14 -82l-41 -176h-48z" />
<glyph horiz-adv-x="357" d="M260 600h58l-118 -272l137 -328h-59l-106 291l-94 -291h-58l137 328l-113 272h58l84 -233z" />
<glyph horiz-adv-x="346" d="M268 600h58l-128 -315v-285h-50v280l-128 320h58l97 -304z" />
<glyph horiz-adv-x="298" d="M278 600l-195 -567l182 17v-50h-245l194 566l-160 -16v50h224z" />
<glyph horiz-adv-x="244" d="M20 354v31q53 0 74 32.5t21 107.5q0 37 -7.5 102t-7.5 95q0 56 33.5 87t90.5 31v-28q-42 0 -60 -22.5t-18 -68.5q0 -25 8.5 -91t8.5 -101q0 -132 -79 -160q79 -28 79 -159q0 -38 -8.5 -111t-8.5 -101q0 -46 18 -68.5t60 -22.5v-28q-57 0 -90.5 31t-33.5 87q0 33 7.5 104 t7.5 113q0 75 -21 107.5t-74 32.5z" />
<glyph horiz-adv-x="250" d="M152 -134h-54l10 494l-10 480h54l-10 -480z" />
<glyph horiz-adv-x="244" d="M224 385v-31q-53 0 -74 -32.5t-21 -107.5q0 -42 7.5 -113t7.5 -104q0 -56 -33.5 -87t-90.5 -31v28q42 0 60 22.5t18 68.5q0 28 -8.5 101t-8.5 111q0 131 79 159q-43 15 -61 54.5t-18 105.5q0 35 8.5 101t8.5 91q0 46 -18 68.5t-60 22.5v28q57 0 90.5 -31t33.5 -87 q0 -30 -7.5 -95t-7.5 -102q0 -75 21 -107.5t74 -32.5z" />
<glyph horiz-adv-x="250" d="M106 460l-8 380h54l-8 -380h-38zM106 260h38l8 -394h-54z" />
<glyph horiz-adv-x="202" d="M138 496q0 -31 -8 -42t-29 -11t-29 11t-8 42t8 42t29 11t29 -11t8 -42zM130 -224h-58l10 575h38z" />
<glyph horiz-adv-x="298" d="M181 0h-46l2 78q-97 21 -97 221q0 202 97 223l-2 78h46l-3 -77q76 -11 90 -95l-40 -12q-10 58 -51 66l-4 -170l5 -195q42 11 51 69l39 -13q-6 -38 -30 -64t-59 -32zM84 299q0 -153 54 -178l5 191l-5 167q-54 -24 -54 -180z" />
<glyph horiz-adv-x="305" d="M108 389v-76h121v-39h-121v-126q0 -71 -31 -112l206 14v-50h-255l-5 24q36 38 36 118v132h-49v39h49v76q0 221 113 221q41 0 65.5 -29t32.5 -76l-48 -12q-11 77 -52 77q-62 0 -62 -181z" />
<glyph horiz-adv-x="346" d="M268 600h58l-125 -283h90v-39h-93v-65h93v-39h-93v-174h-50v174h-93v39h93v65h-93v39h87l-122 283h58l96 -281z" />
<glyph horiz-adv-x="327" d="M125 724q0 -27 -7 -37t-25 -10t-25.5 10t-7.5 37t7.5 37t25.5 10t25 -10t7 -37zM260 724q0 -27 -7.5 -37t-25.5 -10t-25 10t-7 37t7 37t25 10t25.5 -10t7.5 -37z" />
<glyph horiz-adv-x="252" d="M195 384l-20 95h-99l-19 -95h-47l90 366h52l90 -366h-47zM124 723l-11 -63l-30 -146h85l-30 146l-10 63h-4zM31 280v34h190v-34h-190z" />
<glyph horiz-adv-x="273" d="M37 695v44h197v-44h-197z" />
<glyph horiz-adv-x="206" d="M47 643h-29l75 127h74z" />
<glyph horiz-adv-x="318" d="M143 496q0 31 8 42t29 11t29 -11t8 -42t-8 -42t-29 -11t-29 11t-8 42zM163 351h38q0 -102 -14 -163t-45 -117q-4 -9 -25 -48t-29.5 -65t-8.5 -56q0 -46 21 -71t60 -25q37 0 63.5 37t35.5 105l47 -12q-28 -170 -150 -170q-59 0 -93.5 35t-34.5 101q0 27 8 54.5t16.5 44.5 t24.5 45t23 42q32 57 47.5 115.5t15.5 147.5z" />
<glyph horiz-adv-x="409" d="M155 51l39 31q11 -23 30.5 -37.5t41.5 -14.5q32 0 52.5 35.5t20.5 91.5q0 36 -4.5 60.5t-19 50.5t-45.5 45.5t-80 34.5l111 135q-4 37 -26 62t-53 25q-102 0 -102 -158v-412h-50v415q0 99 40 147t112 48q52 0 88.5 -36.5t42.5 -90.5l-104 -118q72 -24 106 -73t34 -134 q0 -78 -35.5 -123t-87.5 -45q-76 0 -111 61z" />
<glyph horiz-adv-x="354" d="M283 0l-32 169h-148l-31 -169h-52l127 600h61l126 -600h-51zM175 569l-7 -52l-57 -304h132l-57 304l-7 52h-4zM217 643h-29l-120 127h74z" />
<glyph horiz-adv-x="354" d="M283 0l-32 169h-148l-31 -169h-52l127 600h61l126 -600h-51zM175 569l-7 -52l-57 -304h132l-57 304l-7 52h-4zM174 643h-29l75 127h74z" />
<glyph horiz-adv-x="354" d="M283 0l-32 169h-148l-31 -169h-52l127 600h61l126 -600h-51zM175 569l-7 -52l-57 -304h132l-57 304l-7 52h-4zM177 780l122 -122l-21 -21l-101 76l-101 -76l-21 21z" />
<glyph horiz-adv-x="354" d="M283 0l-32 169h-148l-31 -169h-52l127 600h61l126 -600h-51zM175 569l-7 -52l-57 -304h132l-57 304l-7 52h-4zM290 769l25 -12q-26 -54 -46 -78.5t-42 -24.5q-18 0 -35.5 17.5t-32 35t-24.5 17.5q-21 0 -59 -69l-25 12q25 54 46 78.5t45 24.5q19 0 37 -17.5t31.5 -35 t21.5 -17.5q20 0 58 69z" />
<glyph horiz-adv-x="354" d="M283 0l-32 169h-148l-31 -169h-52l127 600h61l126 -600h-51zM175 569l-7 -52l-57 -304h132l-57 304l-7 52h-4zM142 724q0 -27 -7 -37t-25 -10t-25.5 10t-7.5 37t7.5 37t25.5 10t25 -10t7 -37zM277 724q0 -27 -7.5 -37t-25.5 -10t-25 10t-7 37t7 37t25 10t25.5 -10 t7.5 -37z" />
<glyph horiz-adv-x="354" d="M263 683q0 -29 -14.5 -52t-40.5 -32l126 -599h-51l-32 169h-148l-31 -169h-52l127 599q-26 9 -40.5 32t-14.5 52q0 37 23.5 63t61.5 26q39 0 62.5 -26t23.5 -63zM175 569l-7 -52l-57 -304h132l-57 304l-7 52h-4zM128 683q0 -22 13.5 -39t35.5 -17q23 0 36.5 16.5 t13.5 39.5t-13.5 40t-36.5 17q-22 0 -35.5 -17t-13.5 -40z" />
<glyph horiz-adv-x="487" d="M247 0v169h-128l-57 -169h-54l222 600h225v-50l-158 13v-225l134 11v-52l-134 11v-272l160 14v-50h-210zM134 213h113v266l5 80h-4l-24 -83z" />
<glyph horiz-adv-x="347" d="M268 145l49 -13q-31 -135 -115 -141l-7 -45q38 -8 59 -32t21 -59q0 -37 -25.5 -58.5t-64.5 -21.5q-32 0 -54.5 19t-27.5 46l33 8q4 -20 18 -31.5t34 -11.5q42 0 42 45q0 54 -85 63l26 79q-64 8 -97.5 79.5t-33.5 228.5q0 168 38.5 239.5t112.5 71.5q49 0 78 -32.5 t45 -106.5l-47 -12q-10 56 -28 83.5t-50 27.5q-50 0 -73 -67t-23 -204q0 -270 96 -270q56 0 79 115z" />
<glyph horiz-adv-x="315" d="M75 0v600h208v-50l-158 13v-225l134 11v-52l-134 11v-272l160 14v-50h-210zM224 643h-29l-120 127h74z" />
<glyph horiz-adv-x="315" d="M75 0v600h208v-50l-158 13v-225l134 11v-52l-134 11v-272l160 14v-50h-210zM165 643h-29l75 127h74z" />
<glyph horiz-adv-x="315" d="M75 0v600h208v-50l-158 13v-225l134 11v-52l-134 11v-272l160 14v-50h-210zM180 780l122 -122l-21 -21l-101 76l-101 -76l-21 21z" />
<glyph horiz-adv-x="315" d="M75 0v600h208v-50l-158 13v-225l134 11v-52l-134 11v-272l160 14v-50h-210zM146 724q0 -27 -7 -37t-25 -10t-25.5 10t-7.5 37t7.5 37t25.5 10t25 -10t7 -37zM281 724q0 -27 -7.5 -37t-25.5 -10t-25 10t-7 37t7 37t25 10t25.5 -10t7.5 -37z" />
<glyph horiz-adv-x="260" d="M45 566v34h170v-34h-59v-532h59v-34h-170v34h61v532h-61zM175 643h-29l-120 127h74z" />
<glyph horiz-adv-x="260" d="M45 566v34h170v-34h-59v-532h59v-34h-170v34h61v532h-61zM127 643h-29l75 127h74z" />
<glyph horiz-adv-x="260" d="M45 566v34h170v-34h-59v-532h59v-34h-170v34h61v532h-61zM132 780l122 -122l-21 -21l-101 76l-101 -76l-21 21z" />
<glyph horiz-adv-x="260" d="M45 566v34h170v-34h-59v-532h59v-34h-170v34h61v532h-61zM232 724q0 -27 -7.5 -37t-25.5 -10t-25 10t-7 37t7 37t25 10t25.5 -10t7.5 -37zM97 724q0 -27 -7 -37t-25 -10t-25.5 10t-7.5 37t7.5 37t25.5 10t25 -10t7 -37z" />
<glyph horiz-adv-x="381" d="M33 302v43h42v255h102q80 0 122 -70.5t42 -230.5t-42 -229.5t-122 -69.5h-102v302h-42zM220 302h-95v-259h50q113 0 113 256q0 258 -113 258h-50v-212h95v-43z" />
<glyph horiz-adv-x="426" d="M125 0h-50v600h50l138 -384l40 -130h6l-8 75v439h50v-600h-50l-138 387l-40 130h-6l8 -75v-442zM324 769l25 -12q-26 -54 -46 -78.5t-42 -24.5q-18 0 -35.5 17.5t-32 35t-24.5 17.5q-21 0 -59 -69l-25 12q25 54 46 78.5t45 24.5q19 0 37 -17.5t31.5 -35t21.5 -17.5 q20 0 58 69z" />
<glyph d="M40 300q0 310 149 310q151 0 151 -310t-151 -310q-149 0 -149 310zM93 300q0 -269 96 -269q98 0 98 269q0 270 -98 270q-96 0 -96 -270zM228 643h-29l-120 127h74z" />
<glyph d="M40 300q0 310 149 310q151 0 151 -310t-151 -310q-149 0 -149 310zM93 300q0 -269 96 -269q98 0 98 269q0 270 -98 270q-96 0 -96 -270zM181 643h-29l75 127h74z" />
<glyph d="M40 300q0 310 149 310q151 0 151 -310t-151 -310q-149 0 -149 310zM93 300q0 -269 96 -269q98 0 98 269q0 270 -98 270q-96 0 -96 -270zM190 780l122 -122l-21 -21l-101 76l-101 -76l-21 21z" />
<glyph d="M40 300q0 310 149 310q151 0 151 -310t-151 -310q-149 0 -149 310zM93 300q0 -269 96 -269q98 0 98 269q0 270 -98 270q-96 0 -96 -270zM303 769l25 -12q-26 -54 -46 -78.5t-42 -24.5q-18 0 -35.5 17.5t-32 35t-24.5 17.5q-21 0 -59 -69l-25 12q25 54 46 78.5t45 24.5 q19 0 37 -17.5t31.5 -35t21.5 -17.5q20 0 58 69z" />
<glyph d="M40 300q0 310 149 310q151 0 151 -310t-151 -310q-149 0 -149 310zM93 300q0 -269 96 -269q98 0 98 269q0 270 -98 270q-96 0 -96 -270zM156 724q0 -27 -7 -37t-25 -10t-25.5 10t-7.5 37t7.5 37t25.5 10t25 -10t7 -37zM291 724q0 -27 -7.5 -37t-25.5 -10t-25 10t-7 37 t7 37t25 10t25.5 -10t7.5 -37z" />
<glyph d="M40 300q0 310 149 310q49 0 82 -32l26 72h40l-39 -108q42 -76 42 -242q0 -310 -151 -310q-47 0 -80 30l-25 -70h-40l38 106q-42 76 -42 244zM93 300q0 -107 12 -181l148 409q-24 42 -64 42q-96 0 -96 -270zM287 300q0 118 -12 180l-147 -408q23 -41 61 -41q98 0 98 269z " />
<glyph horiz-adv-x="389" d="M60 600h50v-376q0 -193 84 -193q85 0 85 193v376h50v-376q0 -234 -135 -234q-134 0 -134 234v376zM222 643h-29l-120 127h74z" />
<glyph horiz-adv-x="389" d="M60 600h50v-376q0 -193 84 -193q85 0 85 193v376h50v-376q0 -234 -135 -234q-134 0 -134 234v376zM191 643h-29l75 127h74z" />
<glyph horiz-adv-x="389" d="M60 600h50v-376q0 -193 84 -193q85 0 85 193v376h50v-376q0 -234 -135 -234q-134 0 -134 234v376zM194 780l122 -122l-21 -21l-101 76l-101 -76l-21 21z" />
<glyph horiz-adv-x="389" d="M60 600h50v-376q0 -193 84 -193q85 0 85 193v376h50v-376q0 -234 -135 -234q-134 0 -134 234v376zM159 724q0 -27 -7 -37t-25 -10t-25.5 10t-7.5 37t7.5 37t25.5 10t25 -10t7 -37zM294 724q0 -27 -7.5 -37t-25.5 -10t-25 10t-7 37t7 37t25 10t25.5 -10t7.5 -37z" />
<glyph horiz-adv-x="346" d="M268 600h58l-128 -315v-285h-50v280l-128 320h58l97 -304zM172 643h-29l75 127h74z" />
<glyph horiz-adv-x="365" d="M125 0h-50v600h50v-100h46q73 0 113.5 -50t40.5 -149q0 -199 -154 -199h-46v-102zM169 457h-44v-312h44q54 0 78.5 38t24.5 118t-24.5 118t-78.5 38z" />
<glyph horiz-adv-x="346" d="M268 600h58l-128 -315v-285h-50v280l-128 320h58l97 -304zM274 724q0 -27 -7.5 -37t-25.5 -10t-25 10t-7 37t7 37t25 10t25.5 -10t7.5 -37zM139 724q0 -27 -7 -37t-25 -10t-25.5 10t-7.5 37t7.5 37t25.5 10t25 -10t7 -37z" />
<glyph horiz-adv-x="354" d="M283 0l-32 169h-148l-31 -169h-52l127 600h61l126 -600h-51zM175 569l-7 -52l-57 -304h132l-57 304l-7 52h-4zM79 695v44h197v-44h-197z" />
<glyph horiz-adv-x="354" d="M283 0l-32 169h-148l-31 -169h-52l127 600h61l126 -600h-51zM175 569l-7 -52l-57 -304h132l-57 304l-7 52h-4zM177 655q-38 0 -64.5 29t-39.5 75l21 10q11 -32 33.5 -49.5t49.5 -17.5t49.5 17.5t33.5 49.5l21 -10q-13 -46 -39.5 -75t-64.5 -29z" />
<glyph horiz-adv-x="354" d="M283 0l-32 169h-148l-31 -169h-52l127 600h61l126 -600q-47 -50 -62 -75t-15 -53q0 -22 11.5 -35t32.5 -13q16 0 33 7v-36q-23 -10 -45 -10q-36 0 -59.5 24.5t-23.5 55.5q0 33 18 63.5t68 71.5h-9zM175 569l-7 -52l-57 -304h132l-57 304l-7 52h-4z" />
<glyph horiz-adv-x="347" d="M268 145l49 -13q-32 -142 -126 -142q-74 0 -112.5 71t-38.5 239t38.5 239.5t112.5 71.5q49 0 78 -32.5t45 -106.5l-47 -12q-10 56 -28 83.5t-50 27.5q-50 0 -73 -67t-23 -204q0 -270 96 -270q56 0 79 115zM168 643h-29l75 127h74z" />
<glyph horiz-adv-x="347" d="M268 145l49 -13q-32 -142 -126 -142q-74 0 -112.5 71t-38.5 239t38.5 239.5t112.5 71.5q49 0 78 -32.5t45 -106.5l-47 -12q-10 56 -28 83.5t-50 27.5q-50 0 -73 -67t-23 -204q0 -270 96 -270q56 0 79 115zM190 780l122 -122l-21 -21l-101 76l-101 -76l-21 21z" />
<glyph horiz-adv-x="347" d="M268 145l49 -13q-32 -142 -126 -142q-74 0 -112.5 71t-38.5 239t38.5 239.5t112.5 71.5q49 0 78 -32.5t45 -106.5l-47 -12q-10 56 -28 83.5t-50 27.5q-50 0 -73 -67t-23 -204q0 -270 96 -270q56 0 79 115zM226 720q0 -31 -8 -42t-29 -11t-29 11t-8 42t8 42t29 11t29 -11 t8 -42z" />
<glyph horiz-adv-x="347" d="M268 145l49 -13q-32 -142 -126 -142q-74 0 -112.5 71t-38.5 239t38.5 239.5t112.5 71.5q49 0 78 -32.5t45 -106.5l-47 -12q-10 56 -28 83.5t-50 27.5q-50 0 -73 -67t-23 -204q0 -270 96 -270q56 0 79 115zM191 645l-122 122l21 21l101 -77l101 77l21 -21z" />
<glyph horiz-adv-x="381" d="M75 0v600h102q80 0 122 -70.5t42 -230.5t-42 -229.5t-122 -69.5h-102zM175 557h-50v-514h50q113 0 113 256q0 258 -113 258zM190 645l-122 122l21 21l101 -77l101 77l21 -21z" />
<glyph horiz-adv-x="381" d="M33 302v43h42v255h102q80 0 122 -70.5t42 -230.5t-42 -229.5t-122 -69.5h-102v302h-42zM220 302h-95v-259h50q113 0 113 256q0 258 -113 258h-50v-212h95v-43z" />
<glyph horiz-adv-x="315" d="M75 0v600h208v-50l-158 13v-225l134 11v-52l-134 11v-272l160 14v-50h-210zM80 695v44h197v-44h-197z" />
<glyph horiz-adv-x="315" d="M75 0v600h208v-50l-158 13v-225l134 11v-52l-134 11v-272l160 14v-50h-210zM179 655q-38 0 -64.5 29t-39.5 75l21 10q11 -32 33.5 -49.5t49.5 -17.5t49.5 17.5t33.5 49.5l21 -10q-13 -46 -39.5 -75t-64.5 -29z" />
<glyph horiz-adv-x="315" d="M75 0v600h208v-50l-158 13v-225l134 11v-52l-134 11v-272l160 14v-50h-210zM222 720q0 -31 -8 -42t-29 -11t-29 11t-8 42t8 42t29 11t29 -11t8 -42z" />
<glyph horiz-adv-x="315" d="M75 0v600h208v-50l-158 13v-225l134 11v-52l-134 11v-272l160 14v-50q-47 -50 -62 -75t-15 -53q0 -22 11.5 -35t32.5 -13q16 0 33 7v-36q-23 -10 -45 -10q-36 0 -59.5 24.5t-23.5 55.5q0 33 18 63.5t68 71.5h-168z" />
<glyph horiz-adv-x="315" d="M75 0v600h208v-50l-158 13v-225l134 11v-52l-134 11v-272l160 14v-50h-210zM188 645l-122 122l21 21l101 -77l101 77l21 -21z" />
<glyph horiz-adv-x="363" d="M217 256v28h122q0 -292 -150 -292q-149 0 -149 308q0 168 38.5 239.5t112.5 71.5q99 0 131 -139l-47 -12q-23 111 -86 111q-97 0 -97 -269t98 -269q89 0 96 210zM191 780l122 -122l-21 -21l-101 76l-101 -76l-21 21z" />
<glyph horiz-adv-x="363" d="M217 256v28h122q0 -292 -150 -292q-149 0 -149 308q0 168 38.5 239.5t112.5 71.5q99 0 131 -139l-47 -12q-23 111 -86 111q-97 0 -97 -269t98 -269q89 0 96 210zM189 655q-38 0 -64.5 29t-39.5 75l21 10q11 -32 33.5 -49.5t49.5 -17.5t49.5 17.5t33.5 49.5l21 -10 q-13 -46 -39.5 -75t-64.5 -29z" />
<glyph horiz-adv-x="363" d="M217 256v28h122q0 -292 -150 -292q-149 0 -149 308q0 168 38.5 239.5t112.5 71.5q99 0 131 -139l-47 -12q-23 111 -86 111q-97 0 -97 -269t98 -269q89 0 96 210zM226 720q0 -31 -8 -42t-29 -11t-29 11t-8 42t8 42t29 11t29 -11t8 -42z" />
<glyph horiz-adv-x="363" d="M217 256v28h122q0 -292 -150 -292q-149 0 -149 308q0 168 38.5 239.5t112.5 71.5q99 0 131 -139l-47 -12q-23 111 -86 111q-97 0 -97 -269t98 -269q89 0 96 210zM163 -224h-29l37 172h60z" />
<glyph horiz-adv-x="418" d="M293 0v301h-168v-301h-50v600h50v-255h168v255h50v-600h-50zM209 780l122 -122l-21 -21l-101 76l-101 -76l-21 21z" />
<glyph horiz-adv-x="418" d="M125 600v-117h168v117h50v-117h52v-39h-52v-444h-50v301h-168v-301h-50v444h-52v39h52v117h50zM125 444v-99h168v99h-168z" />
<glyph horiz-adv-x="260" d="M45 566v34h170v-34h-59v-532h59v-34h-170v34h61v532h-61zM240 769l25 -12q-26 -54 -46 -78.5t-42 -24.5q-18 0 -35.5 17.5t-32 35t-24.5 17.5q-21 0 -59 -69l-25 12q25 54 46 78.5t45 24.5q19 0 37 -17.5t31.5 -35t21.5 -17.5q20 0 58 69z" />
<glyph horiz-adv-x="260" d="M45 566v34h170v-34h-59v-532h59v-34h-170v34h61v532h-61zM33 695v44h197v-44h-197z" />
<glyph horiz-adv-x="260" d="M45 566v34h170v-34h-59v-532h59v-34h-35q-47 -50 -62 -75t-15 -53q0 -22 11.5 -35t32.5 -13q16 0 33 7v-36q-23 -10 -45 -10q-36 0 -59.5 24.5t-23.5 55.5q0 33 18 63.5t68 71.5h-93v34h61v532h-61z" />
<glyph horiz-adv-x="260" d="M45 566v34h170v-34h-59v-532h59v-34h-170v34h61v532h-61z" />
<glyph horiz-adv-x="331" d="M256 600v-399q0 -211 -117 -211q-52 0 -80.5 35t-38.5 107l49 13q7 -58 22.5 -85t47.5 -27q67 0 67 158v409h50zM225 780l122 -122l-21 -21l-101 76l-101 -76l-21 21z" />
<glyph horiz-adv-x="369" d="M125 0h-50v600h50v-262h44l112 262h62l-144 -281l160 -319h-60l-132 299l1 1h-43v-300zM170 -224h-29l37 172h60z" />
<glyph horiz-adv-x="420" d="M125 0h-50v600h50v-262h44l112 262h62l-144 -281l160 -319h-60l-132 299l1 1h-43v-300zM408 620h29l-37 -172h-60z" />
<glyph horiz-adv-x="305" d="M95 0v600h50v-564l160 14v-50h-210zM96 643h-29l75 127h74z" />
<glyph horiz-adv-x="305" d="M95 0v600h50v-564l160 14v-50h-210zM140 -224h-29l37 172h60z" />
<glyph horiz-adv-x="305" d="M95 0v600h50v-564l160 14v-50h-210zM213 426h-30l21 204h56z" />
<glyph horiz-adv-x="305" d="M95 0v600h50v-564l160 14v-50h-210zM260 307q0 -29 -8 -39.5t-27 -10.5q-20 0 -27.5 10.5t-7.5 39.5t7.5 39.5t27.5 10.5q19 0 27 -10.5t8 -39.5z" />
<glyph horiz-adv-x="305" d="M95 0v288l-72 -49v43l72 49v269h50v-243l94 64v-46l-94 -62v-277l160 14v-50h-210z" />
<glyph horiz-adv-x="426" d="M125 0h-50v600h50l138 -384l40 -130h6l-8 75v439h50v-600h-50l-138 387l-40 130h-6l8 -75v-442zM211 643h-29l75 127h74z" />
<glyph horiz-adv-x="426" d="M125 0h-50v600h50l138 -384l40 -130h6l-8 75v439h50v-600h-50l-138 387l-40 130h-6l8 -75v-442zM172 -224h-29l37 172h60z" />
<glyph horiz-adv-x="426" d="M125 0h-50v600h50l138 -384l40 -130h6l-8 75v439h50v-600h-50l-138 387l-40 130h-6l8 -75v-442zM214 645l-122 122l21 21l101 -77l101 77l21 -21z" />
<glyph horiz-adv-x="466" d="M165 0h-50v600h50l138 -384l40 -130h6l-8 75v439h50v-600h-50l-138 387l-40 130h-6l8 -75v-442zM54 576h-36l61 204h66z" />
<glyph d="M40 300q0 310 149 310q151 0 151 -310t-151 -310q-149 0 -149 310zM93 300q0 -269 96 -269q98 0 98 269q0 270 -98 270q-96 0 -96 -270zM91 695v44h197v-44h-197z" />
<glyph d="M40 300q0 310 149 310q151 0 151 -310t-151 -310q-149 0 -149 310zM93 300q0 -269 96 -269q98 0 98 269q0 270 -98 270q-96 0 -96 -270zM190 655q-38 0 -64.5 29t-39.5 75l21 10q11 -32 33.5 -49.5t49.5 -17.5t49.5 17.5t33.5 49.5l21 -10q-13 -46 -39.5 -75t-64.5 -29z " />
<glyph d="M40 300q0 310 149 310q151 0 151 -310t-151 -310q-149 0 -149 310zM93 300q0 -269 96 -269q98 0 98 269q0 270 -98 270q-96 0 -96 -270zM128 643h-29l75 127h74zM255 643h-29l75 127h74z" />
<glyph horiz-adv-x="494" d="M254 0q-24 -10 -55 -10q-159 0 -159 310t159 310q34 0 55 -10h208v-50l-158 13v-225l134 11v-52l-134 11v-272l160 14v-50h-210zM199 31q34 0 55 18v500q-21 21 -55 21q-106 0 -106 -270q0 -269 106 -269z" />
<glyph d="M125 0h-50v600h96q73 0 113.5 -42.5t40.5 -126.5q0 -145 -114 -166l134 -265h-60l-116 262h-44v-262zM169 557h-44v-252h44q54 0 78.5 31t24.5 95t-24.5 95t-78.5 31zM180 643h-29l75 127h74z" />
<glyph d="M125 0h-50v600h96q73 0 113.5 -42.5t40.5 -126.5q0 -145 -114 -166l134 -265h-60l-116 262h-44v-262zM169 557h-44v-252h44q54 0 78.5 31t24.5 95t-24.5 95t-78.5 31zM165 -224h-29l37 172h60z" />
<glyph d="M125 0h-50v600h96q73 0 113.5 -42.5t40.5 -126.5q0 -145 -114 -166l134 -265h-60l-116 262h-44v-262zM169 557h-44v-252h44q54 0 78.5 31t24.5 95t-24.5 95t-78.5 31zM193 645l-122 122l21 21l101 -77l101 77l21 -21z" />
<glyph horiz-adv-x="339" d="M249 465q-18 103 -78 103q-31 0 -49.5 -25t-18.5 -68q0 -41 18.5 -66.5t71.5 -71.5q55 -48 80.5 -90.5t25.5 -103.5q0 -72 -35.5 -112.5t-92.5 -40.5q-104 0 -131 139l48 11q18 -107 86 -107q36 0 55 29t19 76q0 49 -20.5 79.5t-73.5 80.5q-37 34 -54.5 53.5t-32.5 52 t-15 71.5q0 67 34 101.5t87 34.5q99 0 123 -134zM162 643h-29l75 127h74z" />
<glyph horiz-adv-x="339" d="M249 465q-18 103 -78 103q-31 0 -49.5 -25t-18.5 -68q0 -41 18.5 -66.5t71.5 -71.5q55 -48 80.5 -90.5t25.5 -103.5q0 -72 -35.5 -112.5t-92.5 -40.5q-104 0 -131 139l48 11q18 -107 86 -107q36 0 55 29t19 76q0 49 -20.5 79.5t-73.5 80.5q-37 34 -54.5 53.5t-32.5 52 t-15 71.5q0 67 34 101.5t87 34.5q99 0 123 -134zM175 780l122 -122l-21 -21l-101 76l-101 -76l-21 21z" />
<glyph horiz-adv-x="339" d="M249 465q-18 103 -78 103q-31 0 -49.5 -25t-18.5 -68q0 -41 18.5 -66.5t71.5 -71.5q55 -48 80.5 -90.5t25.5 -103.5q0 -70 -33 -110t-87 -43l-7 -44q38 -8 59 -32t21 -59q0 -37 -25.5 -58.5t-64.5 -21.5q-32 0 -54.5 19t-27.5 46l33 8q4 -20 18 -31.5t34 -11.5 q42 0 42 45q0 54 -85 63l26 79q-86 15 -108 137l48 11q18 -107 86 -107q36 0 55 29t19 76q0 49 -20.5 79.5t-73.5 80.5q-37 34 -54.5 53.5t-32.5 52t-15 71.5q0 67 34 101.5t87 34.5q99 0 123 -134z" />
<glyph horiz-adv-x="339" d="M249 465q-18 103 -78 103q-31 0 -49.5 -25t-18.5 -68q0 -41 18.5 -66.5t71.5 -71.5q55 -48 80.5 -90.5t25.5 -103.5q0 -72 -35.5 -112.5t-92.5 -40.5q-104 0 -131 139l48 11q18 -107 86 -107q36 0 55 29t19 76q0 49 -20.5 79.5t-73.5 80.5q-37 34 -54.5 53.5t-32.5 52 t-15 71.5q0 67 34 101.5t87 34.5q99 0 123 -134zM173 645l-122 122l21 21l101 -77l101 77l21 -21z" />
<glyph horiz-adv-x="310" d="M180 0h-10l-8 -54q38 -8 59 -32t21 -59q0 -37 -25.5 -58.5t-64.5 -21.5q-32 0 -54.5 19t-27.5 46l33 8q4 -20 18 -31.5t34 -11.5q42 0 42 45q0 54 -85 63l29 87h-10v556h-111v44h270v-44h-110v-556z" />
<glyph horiz-adv-x="310" d="M180 0h-49v556h-111v44h270v-44h-110v-556zM156 645l-122 122l21 21l101 -77l101 77l21 -21z" />
<glyph horiz-adv-x="310" d="M290 600v-44h-110v-232h66v-38h-66v-286h-49v286h-66v38h66v232h-111v44h270z" />
<glyph horiz-adv-x="389" d="M60 600h50v-376q0 -193 84 -193q85 0 85 193v376h50v-376q0 -234 -135 -234q-134 0 -134 234v376zM309 769l25 -12q-26 -54 -46 -78.5t-42 -24.5q-18 0 -35.5 17.5t-32 35t-24.5 17.5q-21 0 -59 -69l-25 12q25 54 46 78.5t45 24.5q19 0 37 -17.5t31.5 -35t21.5 -17.5 q20 0 58 69z" />
<glyph horiz-adv-x="389" d="M60 600h50v-376q0 -193 84 -193q85 0 85 193v376h50v-376q0 -234 -135 -234q-134 0 -134 234v376zM96 695v44h197v-44h-197z" />
<glyph horiz-adv-x="389" d="M60 600h50v-376q0 -193 84 -193q85 0 85 193v376h50v-376q0 -234 -135 -234q-134 0 -134 234v376zM194 655q-38 0 -64.5 29t-39.5 75l21 10q11 -32 33.5 -49.5t49.5 -17.5t49.5 17.5t33.5 49.5l21 -10q-13 -46 -39.5 -75t-64.5 -29z" />
<glyph horiz-adv-x="389" d="M60 600h50v-376q0 -193 84 -193q85 0 85 193v376h50v-376q0 -234 -135 -234q-134 0 -134 234v376zM280 683q0 -37 -23.5 -63t-62.5 -26q-38 0 -61.5 26t-23.5 63t23.5 63t61.5 26q39 0 62.5 -26t23.5 -63zM145 683q0 -22 13.5 -39t35.5 -17q23 0 36.5 16.5t13.5 39.5 t-13.5 40t-36.5 17q-22 0 -35.5 -17t-13.5 -40z" />
<glyph horiz-adv-x="389" d="M60 600h50v-376q0 -193 84 -193q85 0 85 193v376h50v-376q0 -234 -135 -234q-134 0 -134 234v376zM139 643h-29l75 127h74zM266 643h-29l75 127h74z" />
<glyph horiz-adv-x="389" d="M60 600h50v-376q0 -193 84 -193q85 0 85 193v376h50v-376q0 -167 -67 -214q-49 -51 -67.5 -81t-18.5 -57q0 -22 11.5 -35t32.5 -13q16 0 33 7v-36q-23 -10 -45 -10q-36 0 -59.5 24.5t-23.5 55.5q0 59 73 125h-4q-134 0 -134 234v376z" />
<glyph horiz-adv-x="491" d="M20 600h58l86 -495l8 -74h4l8 74l52 217l-53 278h58l75 -495l8 -74h4l8 74l77 495h58l-124 -600h-48l-34 176l-11 82h-4l-14 -82l-41 -176h-48zM247 780l122 -122l-21 -21l-101 76l-101 -76l-21 21z" />
<glyph horiz-adv-x="346" d="M268 600h58l-128 -315v-285h-50v280l-128 320h58l97 -304zM173 780l122 -122l-21 -21l-101 76l-101 -76l-21 21z" />
<glyph horiz-adv-x="298" d="M44 600h224l-195 -567l182 17v-50h-245l194 566l-160 -16v50zM147 643h-29l75 127h74z" />
<glyph horiz-adv-x="298" d="M268 600l-195 -567l182 17v-50h-245l194 566l-160 -16v50h224zM197 720q0 -31 -8 -42t-29 -11t-29 11t-8 42t8 42t29 11t29 -11t8 -42z" />
<glyph horiz-adv-x="298" d="M10 0l194 566l-160 -16v50h224l-195 -567l182 17v-50h-245zM161 645l-122 122l21 21l101 -77l101 77l21 -21z" />
<glyph horiz-adv-x="339" d="M249 465q-18 103 -78 103q-31 0 -49.5 -25t-18.5 -68q0 -41 18.5 -66.5t71.5 -71.5q55 -48 80.5 -90.5t25.5 -103.5q0 -72 -35.5 -112.5t-92.5 -40.5q-104 0 -131 139l48 11q18 -107 86 -107q36 0 55 29t19 76q0 49 -20.5 79.5t-73.5 80.5q-37 34 -54.5 53.5t-32.5 52 t-15 71.5q0 67 34 101.5t87 34.5q99 0 123 -134z" />
<glyph horiz-adv-x="266" d="M17 318l4 28l46 5l16 98q27 161 127 161q37 0 63 -14l-7 -44q-21 15 -51 15q-62 0 -82 -119l-15 -91l90 10l-8 -49h-89l-42 -259q-26 -154 -126 -154q-37 0 -63 14l7 44q21 -15 51 -15q62 0 81 112l42 258h-44z" />
<glyph horiz-adv-x="339" d="M249 465q-18 103 -78 103q-31 0 -49.5 -25t-18.5 -68q0 -41 18.5 -66.5t71.5 -71.5q55 -48 80.5 -90.5t25.5 -103.5q0 -72 -35.5 -112.5t-92.5 -40.5q-104 0 -131 139l48 11q18 -107 86 -107q36 0 55 29t19 76q0 49 -20.5 79.5t-73.5 80.5q-37 34 -54.5 53.5t-32.5 52 t-15 71.5q0 67 34 101.5t87 34.5q99 0 123 -134zM140 -224h-29l37 172h60z" />
<glyph horiz-adv-x="310" d="M180 0h-49v556h-111v44h270v-44h-110v-556zM128 -224h-29l37 172h60z" />
<glyph horiz-adv-x="331" d="M256 600v-399q0 -211 -117 -211q-52 0 -80.5 35t-38.5 107l49 13q7 -58 22.5 -85t47.5 -27q67 0 67 158v409h50z" />
<glyph horiz-adv-x="450" d="M125 0h-50v600h50l85 -299l13 -77h4l13 77l85 299h50v-600h-50v447l9 71h-4l-20 -95l-69 -243h-32l-69 243l-20 95h-4l9 -71v-447z" />
<glyph horiz-adv-x="450" d="M125 0h-50v600h300v-600h-50v556h-200v-556z" />
<glyph horiz-adv-x="491" d="M20 600h58l86 -495l8 -74h4l8 74l52 217l-53 278h58l75 -495l8 -74h4l8 74l77 495h58l-124 -600h-48l-34 176l-11 82h-4l-14 -82l-41 -176h-48zM290 643h-29l-120 127h74z" />
<glyph horiz-adv-x="491" d="M20 600h58l86 -495l8 -74h4l8 74l52 217l-53 278h58l75 -495l8 -74h4l8 74l77 495h58l-124 -600h-48l-34 176l-11 82h-4l-14 -82l-41 -176h-48zM210 643h-29l75 127h74z" />
<glyph horiz-adv-x="491" d="M20 600h58l86 -495l8 -74h4l8 74l52 217l-53 278h58l75 -495l8 -74h4l8 74l77 495h58l-124 -600h-48l-34 176l-11 82h-4l-14 -82l-41 -176h-48zM211 724q0 -27 -7 -37t-25 -10t-25.5 10t-7.5 37t7.5 37t25.5 10t25 -10t7 -37zM346 724q0 -27 -7.5 -37t-25.5 -10t-25 10 t-7 37t7 37t25 10t25.5 -10t7.5 -37z" />
<glyph horiz-adv-x="280" d="M140 780l122 -122l-21 -21l-101 76l-101 -76l-21 21z" />
<glyph horiz-adv-x="280" d="M140 645l-122 122l21 21l101 -77l101 77l21 -21z" />
<glyph horiz-adv-x="280" d="M140 655q-38 0 -64.5 29t-39.5 75l21 10q11 -32 33.5 -49.5t49.5 -17.5t49.5 17.5t33.5 49.5l21 -10q-13 -46 -39.5 -75t-64.5 -29z" />
<glyph horiz-adv-x="192" d="M127 720q0 -31 -8 -42t-29 -11t-29 11t-8 42t8 42t29 11t29 -11t8 -42z" />
<glyph horiz-adv-x="237" d="M201 683q0 -37 -23.5 -63t-62.5 -26q-38 0 -61.5 26t-23.5 63t23.5 63t61.5 26q39 0 62.5 -26t23.5 -63zM66 683q0 -22 13.5 -39t35.5 -17q23 0 36.5 16.5t13.5 39.5t-13.5 40t-36.5 17q-22 0 -35.5 -17t-13.5 -40z" />
<glyph horiz-adv-x="277" d="M249 769l25 -12q-26 -54 -46 -78.5t-42 -24.5q-18 0 -35.5 17.5t-32 35t-24.5 17.5q-21 0 -59 -69l-25 12q25 54 46 78.5t45 24.5q19 0 37 -17.5t31.5 -35t21.5 -17.5q20 0 58 69z" />
<glyph horiz-adv-x="294" d="M49 643h-29l75 127h74zM176 643h-29l75 127h74z" />
<glyph horiz-adv-x="717" d="M383 600h45l-287 -600h-45zM119 606q42 0 65.5 -51t23.5 -137q0 -87 -23.5 -137t-65.5 -50t-65.5 50t-23.5 137q0 86 23.5 137t65.5 51zM119 272q52 0 52 146q0 70 -14 108.5t-38 38.5t-38 -38.5t-14 -108.5q0 -146 52 -146zM403 371q42 0 65.5 -51t23.5 -137 q0 -87 -23.5 -137t-65.5 -50t-65.5 50t-23.5 137q0 86 23.5 137t65.5 51zM403 37q52 0 52 146q0 70 -14 108.5t-38 38.5t-38 -38.5t-14 -108.5q0 -146 52 -146zM613 371q42 0 65.5 -51t23.5 -137q0 -87 -23.5 -137t-65.5 -50t-65.5 50t-23.5 137q0 86 23.5 137t65.5 51z M613 37q52 0 52 146q0 70 -14 108.5t-38 38.5t-38 -38.5t-14 -108.5q0 -146 52 -146z" />
<glyph horiz-adv-x="357" d="M0 334v39h42q8 127 45.5 182.5t103.5 55.5q49 0 78 -32.5t45 -106.5l-47 -12q-10 56 -28 83.5t-50 27.5q-83 0 -94 -198h151l-13 -39h-140v-34v-39h111l-12 -39h-97q11 -192 94 -192q56 0 79 115l49 -13q-32 -142 -126 -142q-65 0 -102.5 54t-46.5 178h-42v39h40v39v34 h-40z" />
<glyph horiz-adv-x="260" d="M45 566v34h170v-34h-59v-532h59v-34h-170v34h61v532h-61zM168 720q0 -31 -8 -42t-29 -11t-29 11t-8 42t8 42t29 11t29 -11t8 -42z" />
<glyph horiz-adv-x="202" d="M138 50q0 -31 -8 -42t-29 -11t-29 11t-8 42t8 42t29 11t29 -11t8 -42zM72 620h58l-10 -425h-38z" />
<glyph horiz-adv-x="320" d="M187 -56h-50l2 87q-89 12 -109 115l44 12q14 -72 66 -86l6 218q-61 50 -83.5 85.5t-22.5 80.5q0 48 28 76.5t71 35.5l-2 89h50l-3 -89q80 -10 99 -113l-42 -11q-12 68 -58 84l-6 -201q67 -51 90 -88t23 -81q0 -55 -29 -87.5t-77 -39.5zM243 158q0 50 -65 115l5 -202 q28 6 44 29t16 58zM87 456q0 -58 59 -114l-6 186q-53 -16 -53 -72z" />
<glyph horiz-adv-x="518" d="M383 600h45l-287 -600h-45zM119 606q42 0 65.5 -51t23.5 -137q0 -87 -23.5 -137t-65.5 -50t-65.5 50t-23.5 137q0 86 23.5 137t65.5 51zM119 272q52 0 52 146q0 70 -14 108.5t-38 38.5t-38 -38.5t-14 -108.5q0 -146 52 -146zM403 371q42 0 65.5 -51t23.5 -137 q0 -87 -23.5 -137t-65.5 -50t-65.5 50t-23.5 137q0 86 23.5 137t65.5 51zM403 37q52 0 52 146q0 70 -14 108.5t-38 38.5t-38 -38.5t-14 -108.5q0 -146 52 -146z" />
<glyph horiz-adv-x="417" d="M384 -2h-54l-62 106q-56 -114 -116 -114q-48 0 -81.5 37t-33.5 105q0 113 107 189q-33 62 -45 98.5t-12 71.5q0 55 30.5 87t71.5 32q45 0 71.5 -28t40.5 -97l-48 -11q-6 46 -23 71t-41 25t-37.5 -21.5t-13.5 -55.5q0 -42 25.5 -99.5t114.5 -212.5l56 137l46 -12l-85 -155 q40 -70 89 -153zM249 135l-89 156q-70 -63 -70 -159q0 -45 20.5 -72.5t44.5 -27.5t45.5 26.5t48.5 76.5z" />
<glyph horiz-adv-x="216" d="M110 300q0 -132 29 -235.5t67 -147.5l-24 -24q-52 48 -87 150t-35 257t35 257t87 150l24 -24q-38 -44 -67 -147.5t-29 -235.5z" />
<glyph horiz-adv-x="216" d="M106 300q0 132 -29 235.5t-67 147.5l24 24q52 -48 87 -150t35 -257t-35 -257t-87 -150l-24 24q38 44 67 147.5t29 235.5z" />
<glyph horiz-adv-x="236" d="M190 690h44l-192 -781h-44z" />
<glyph horiz-adv-x="345" d="M305 300q0 -149 -34 -229.5t-99 -80.5t-98.5 80t-33.5 230t33.5 230t98.5 80t99 -80.5t34 -229.5zM84 300q0 -112 22 -184.5t66 -72.5t66.5 72.5t22.5 184.5t-22.5 184.5t-66.5 72.5t-66 -72.5t-22 -184.5z" />
<glyph horiz-adv-x="257" d="M117 600h50v-600h-50v470l6 89l-4 1l-31 -55l-39 -64l-39 33z" />
<glyph horiz-adv-x="316" d="M83 35l187 15v-50h-240q0 48 28.5 122t76.5 149q90 141 90 203q0 44 -19 69t-51 25q-28 0 -47.5 -30t-26.5 -84l-47 12q22 144 121 144q121 0 121 -136q0 -30 -13 -65.5t-24.5 -56t-49.5 -82.5q-4 -7 -7 -12l-6 -10q-86 -141 -93 -213z" />
<glyph horiz-adv-x="324" d="M120 300h-7v45h7q111 0 111 131q0 92 -66 92t-80 -114l-48 12q23 144 128 144q116 0 116 -134q0 -50 -23.5 -94t-73.5 -56q46 -14 73 -57t27 -106q0 -89 -36 -131t-99 -42q-53 0 -84.5 34t-44.5 111l49 13q17 -116 82 -116q82 0 82 130q0 71 -25.5 104.5t-87.5 33.5z" />
<glyph horiz-adv-x="313" d="M243 0h-50v153h-179l-6 29l187 418h48v-406l55 4v-45h-55v-153zM61 181l132 9v250l5 91h-4l-31 -87z" />
<glyph horiz-adv-x="331" d="M79 151q20 -121 80 -121q81 0 81 169q0 73 -22 113.5t-57 40.5q-38 0 -72 -44l-28 14l18 277h191v-50l-144 14l-10 -155l-9 -45l4 -1q23 28 64 28q48 0 82 -48t34 -142q0 -108 -36.5 -159.5t-95.5 -51.5q-50 0 -82 34.5t-47 113.5z" />
<glyph horiz-adv-x="338" d="M91 298l-5 -31l4 -1q6 15 14 26q36 51 87 51q47 0 79.5 -40.5t32.5 -122.5q0 -97 -36.5 -143.5t-86.5 -46.5q-23 0 -40 5t-37 23t-33 50t-21.5 90.5t-8.5 139.5q0 93 12 158t32.5 96.5t41.5 44.5t46 13q91 0 114 -136l-47 -12q-7 56 -26 82t-43 26q-79 0 -79 -272z M184 308q-53 0 -92 -82q3 -62 12 -103.5t22 -60.5t25.5 -25.5t28.5 -6.5q29 0 50.5 36.5t21.5 111.5q0 64 -19.5 97t-48.5 33z" />
<glyph horiz-adv-x="272" d="M10 600h247l-183 -600h-48l172 566l-188 -16v50z" />
<glyph horiz-adv-x="339" d="M299 145q0 -65 -34 -110t-96 -45q-60 0 -94.5 40.5t-34.5 108.5q0 46 27.5 94t70.5 80q-41 37 -63.5 72.5t-22.5 85.5q0 59 33.5 99t85.5 40q51 0 82 -35t31 -89q0 -45 -23 -86.5t-60 -70.5q47 -42 72.5 -83t25.5 -101zM84 142q0 -52 25 -82t60 -30q38 0 60.5 29t22.5 75 q0 36 -15 67.5t-31.5 49t-47.5 45.5q-74 -71 -74 -154zM241 482q0 40 -19 64t-51 24q-31 0 -51.5 -26.5t-20.5 -63.5q0 -40 21 -69t62 -65q59 65 59 136z" />
<glyph horiz-adv-x="338" d="M154 292q53 0 91 82q-3 62 -12 103.5t-22 60.5t-25 25.5t-28 6.5q-29 0 -50.5 -36.5t-21.5 -111.5q0 -64 19.5 -97t48.5 -33zM234 308q-36 -51 -87 -51q-47 0 -79.5 40.5t-32.5 122.5q0 97 36.5 143.5t86.5 46.5q23 0 40 -5t37 -23t33 -50t21.5 -90.5t8.5 -139.5 q0 -92 -13 -157.5t-34.5 -97t-43 -44.5t-46.5 -13q-91 0 -116 136l47 12q15 -108 71 -108q84 0 84 272l5 31l-4 1q-6 -15 -14 -26z" />
<glyph horiz-adv-x="266" d="M138 195h-38q0 117 42 199q16 29 22.5 42t14.5 38.5t8 49.5q0 66 -55 66q-60 0 -73 -97l-47 11q20 126 123 126q47 0 75 -27t28 -79q0 -17 -2.5 -32.5t-10 -32.5t-11.5 -24.5t-16.5 -28t-14.5 -24.5q-45 -83 -45 -187zM158 50q0 -31 -8 -42t-29 -11t-29 11t-8 42t8 42 t29 11t29 -11t8 -42z" />
<glyph horiz-adv-x="270" d="M230 692v-28l-80 -11v-706l80 -11v-28h-130v784h130z" />
<glyph horiz-adv-x="236" d="M-2 690h44l192 -781h-44z" />
<glyph horiz-adv-x="270" d="M170 -92h-130v28l80 11v706l-80 11v28h130v-784z" />
<glyph horiz-adv-x="354" d="M283 0l-32 169h-148l-31 -169h-52l127 600h61l126 -600h-51zM175 569l-7 -52l-57 -304h132l-57 304l-7 52h-4z" />
<glyph horiz-adv-x="375" d="M75 0v600h93q144 0 144 -144q0 -99 -89 -123q102 -27 102 -156q0 -177 -154 -177h-96zM169 312h-44v-269h44q54 0 78.5 32.5t24.5 101.5q0 70 -24.5 102.5t-78.5 32.5zM166 557h-41v-202h41q49 0 71 24t22 77t-22 77t-71 24z" />
<glyph horiz-adv-x="347" d="M268 145l49 -13q-32 -142 -126 -142q-74 0 -112.5 71t-38.5 239t38.5 239.5t112.5 71.5q49 0 78 -32.5t45 -106.5l-47 -12q-10 56 -28 83.5t-50 27.5q-50 0 -73 -67t-23 -204q0 -270 96 -270q56 0 79 115z" />
<glyph horiz-adv-x="381" d="M75 0v600h102q80 0 122 -70.5t42 -230.5t-42 -229.5t-122 -69.5h-102zM175 557h-50v-514h50q113 0 113 256q0 258 -113 258z" />
<glyph horiz-adv-x="315" d="M75 0v600h208v-50l-158 13v-225l134 11v-52l-134 11v-272l160 14v-50h-210z" />
<glyph horiz-adv-x="313" d="M125 0h-50v600h208v-50l-158 13v-233l134 11v-52l-134 11v-300z" />
<glyph horiz-adv-x="363" d="M217 256v28h122q0 -292 -150 -292q-149 0 -149 308q0 168 38.5 239.5t112.5 71.5q99 0 131 -139l-47 -12q-23 111 -86 111q-97 0 -97 -269t98 -269q89 0 96 210z" />
<glyph horiz-adv-x="418" d="M293 0v301h-168v-301h-50v600h50v-255h168v255h50v-600h-50z" />
<glyph horiz-adv-x="260" d="M45 566v34h170v-34h-59v-532h59v-34h-170v34h61v532h-61z" />
<glyph horiz-adv-x="331" d="M256 600v-399q0 -211 -117 -211q-52 0 -80.5 35t-38.5 107l49 13q7 -58 22.5 -85t47.5 -27q67 0 67 158v409h50z" />
<glyph horiz-adv-x="369" d="M125 0h-50v600h50v-262h44l112 262h62l-144 -281l160 -319h-60l-132 299l1 1h-43v-300z" />
<glyph horiz-adv-x="305" d="M75 0v600h50v-564l160 14v-50h-210z" />
<glyph horiz-adv-x="450" d="M125 0h-50v600h50l85 -299l13 -77h4l13 77l85 299h50v-600h-50v447l9 71h-4l-20 -95l-69 -243h-32l-69 243l-20 95h-4l9 -71v-447z" />
<glyph horiz-adv-x="426" d="M125 0h-50v600h50l138 -384l40 -130h6l-8 75v439h50v-600h-50l-138 387l-40 130h-6l8 -75v-442z" />
<glyph d="M40 300q0 310 149 310q151 0 151 -310t-151 -310q-149 0 -149 310zM93 300q0 -269 96 -269q98 0 98 269q0 270 -98 270q-96 0 -96 -270z" />
<glyph horiz-adv-x="365" d="M125 0h-50v600h96q73 0 113.5 -50t40.5 -149q0 -199 -154 -199h-46v-202zM169 557h-44v-312h44q54 0 78.5 38t24.5 118t-24.5 118t-78.5 38z" />
<glyph d="M40 302q0 309 149 309q151 0 151 -309q0 -215 -71 -280l67 -111h-60l-46 88q-18 -7 -41 -7q-149 0 -149 310zM167 120h43l34 -58q43 59 43 240q0 269 -98 269q-96 0 -96 -269t96 -269q12 0 21 3z" />
<glyph d="M125 0h-50v600h96q73 0 113.5 -42.5t40.5 -126.5q0 -145 -114 -166l134 -265h-60l-116 262h-44v-262zM169 557h-44v-252h44q54 0 78.5 31t24.5 95t-24.5 95t-78.5 31z" />
<glyph horiz-adv-x="339" d="M249 465q-18 103 -78 103q-31 0 -49.5 -25t-18.5 -68q0 -41 18.5 -66.5t71.5 -71.5q55 -48 80.5 -90.5t25.5 -103.5q0 -72 -35.5 -112.5t-92.5 -40.5q-104 0 -131 139l48 11q18 -107 86 -107q36 0 55 29t19 76q0 49 -20.5 79.5t-73.5 80.5q-37 34 -54.5 53.5t-32.5 52 t-15 71.5q0 67 34 101.5t87 34.5q99 0 123 -134z" />
<glyph horiz-adv-x="310" d="M180 0h-49v556h-111v44h270v-44h-110v-556z" />
<glyph horiz-adv-x="389" d="M60 600h50v-376q0 -193 84 -193q85 0 85 193v376h50v-376q0 -234 -135 -234q-134 0 -134 234v376z" />
<glyph horiz-adv-x="348" d="M20 600h58l88 -495l8 -74h4l8 74l84 495h58l-131 -600h-48z" />
<glyph horiz-adv-x="491" d="M20 600h58l86 -495l8 -74h4l8 74l52 217l-53 278h58l75 -495l8 -74h4l8 74l77 495h58l-124 -600h-48l-34 176l-11 82h-4l-14 -82l-41 -176h-48z" />
<glyph horiz-adv-x="357" d="M260 600h58l-118 -272l137 -328h-59l-106 291l-94 -291h-58l137 328l-113 272h58l84 -233z" />
<glyph horiz-adv-x="346" d="M268 600h58l-128 -315v-285h-50v280l-128 320h58l97 -304z" />
<glyph horiz-adv-x="298" d="M278 600l-195 -567l182 17v-50h-245l194 566l-160 -16v50h224z" />
<glyph horiz-adv-x="206" d="M168 643h-29l-120 127h74z" />
<glyph horiz-adv-x="244" d="M20 285v30q53 0 74 26t21 85q0 31 -7.5 84.5t-7.5 77.5q0 50 33.5 77t90.5 27v-28q-42 0 -60 -20t-18 -62q0 -21 8.5 -75.5t8.5 -82.5q0 -100 -72 -124q72 -25 72 -124q0 -28 -8.5 -82.5t-8.5 -75.5q0 -42 18 -62t60 -20v-28q-57 0 -90.5 27t-33.5 77q0 24 7.5 77.5 t7.5 84.5q0 59 -21 85t-74 26z" />
<glyph horiz-adv-x="250" d="M152 -90h-54l10 390l-10 390h54l-10 -390z" />
<glyph horiz-adv-x="244" d="M224 315v-30q-53 0 -74 -26t-21 -85q0 -31 7.5 -84.5t7.5 -77.5q0 -50 -33.5 -77t-90.5 -27v28q42 0 60 20t18 62q0 21 -8.5 75.5t-8.5 82.5q0 99 71 124q-71 24 -71 124q0 28 8.5 82.5t8.5 75.5q0 42 -18 62t-60 20v28q57 0 90.5 -27t33.5 -77q0 -24 -7.5 -77.5 t-7.5 -84.5q0 -59 21 -85t74 -26z" />
<glyph horiz-adv-x="250" d="M144 386h-38l-8 304h54zM106 226h38l8 -316h-54z" />
<glyph horiz-adv-x="202" d="M138 550q0 -31 -8 -42t-29 -11t-29 11t-8 42t8 42t29 11t29 -11t8 -42zM130 -20h-58l10 425h38z" />
<glyph horiz-adv-x="298" d="M181 0h-46l2 78q-97 21 -97 221q0 202 97 223l-2 78h46l-3 -77q76 -11 90 -95l-40 -12q-10 58 -51 66l-4 -170l5 -195q42 11 51 69l39 -13q-6 -38 -30 -64t-59 -32zM84 299q0 -153 54 -178l5 191l-5 167q-54 -24 -54 -180z" />
<glyph horiz-adv-x="305" d="M108 389v-76h121v-39h-121v-126q0 -71 -31 -112l206 14v-50h-255l-5 24q36 38 36 118v132h-49v39h49v76q0 221 113 221q41 0 65.5 -29t32.5 -76l-48 -12q-11 77 -52 77q-62 0 -62 -181z" />
<glyph horiz-adv-x="346" d="M268 600h58l-125 -283h90v-39h-93v-65h93v-39h-93v-174h-50v174h-93v39h93v65h-93v39h87l-122 283h58l96 -281z" />
<glyph horiz-adv-x="327" d="M125 724q0 -27 -7 -37t-25 -10t-25.5 10t-7.5 37t7.5 37t25.5 10t25 -10t7 -37zM260 724q0 -27 -7.5 -37t-25.5 -10t-25 10t-7 37t7 37t25 10t25.5 -10t7.5 -37z" />
<glyph horiz-adv-x="252" d="M195 384l-20 95h-99l-19 -95h-47l90 366h52l90 -366h-47zM126 720l-43 -206h85zM31 280v34h190v-34h-190z" />
<glyph horiz-adv-x="273" d="M37 695v44h197v-44h-197z" />
<glyph horiz-adv-x="206" d="M47 643h-29l75 127h74z" />
<glyph horiz-adv-x="266" d="M108 550q0 31 8 42t29 11t29 -11t8 -42t-8 -42t-29 -11t-29 11t-8 42zM128 405h38q0 -117 -42 -199q-16 -29 -22.5 -42t-14.5 -38.5t-8 -49.5q0 -66 55 -66q60 0 73 97l47 -11q-20 -126 -123 -126q-47 0 -75 27t-28 79q0 17 2.5 32.5t10 32.5t11.5 24.5t16.5 28 t14.5 24.5q45 83 45 187z" />
<glyph horiz-adv-x="354" d="M283 0l-32 169h-148l-31 -169h-52l127 600h61l126 -600h-51zM175 569l-7 -52l-57 -304h132l-57 304l-7 52h-4zM217 643h-29l-120 127h74z" />
<glyph horiz-adv-x="354" d="M283 0l-32 169h-148l-31 -169h-52l127 600h61l126 -600h-51zM175 569l-7 -52l-57 -304h132l-57 304l-7 52h-4zM174 643h-29l75 127h74z" />
<glyph horiz-adv-x="354" d="M283 0l-32 169h-148l-31 -169h-52l127 600h61l126 -600h-51zM175 569l-7 -52l-57 -304h132l-57 304l-7 52h-4zM177 780l122 -122l-21 -21l-101 76l-101 -76l-21 21z" />
<glyph horiz-adv-x="354" d="M283 0l-32 169h-148l-31 -169h-52l127 600h61l126 -600h-51zM175 569l-7 -52l-57 -304h132l-57 304l-7 52h-4zM290 769l25 -12q-26 -54 -46 -78.5t-42 -24.5q-18 0 -35.5 17.5t-32 35t-24.5 17.5q-21 0 -59 -69l-25 12q25 54 46 78.5t45 24.5q19 0 37 -17.5t31.5 -35 t21.5 -17.5q20 0 58 69z" />
<glyph horiz-adv-x="354" d="M283 0l-32 169h-148l-31 -169h-52l127 600h61l126 -600h-51zM175 569l-7 -52l-57 -304h132l-57 304l-7 52h-4zM142 724q0 -27 -7 -37t-25 -10t-25.5 10t-7.5 37t7.5 37t25.5 10t25 -10t7 -37zM277 724q0 -27 -7.5 -37t-25.5 -10t-25 10t-7 37t7 37t25 10t25.5 -10 t7.5 -37z" />
<glyph horiz-adv-x="354" d="M263 683q0 -29 -14.5 -52t-40.5 -32l126 -599h-51l-32 169h-148l-31 -169h-52l127 599q-26 9 -40.5 32t-14.5 52q0 37 23.5 63t61.5 26q39 0 62.5 -26t23.5 -63zM175 569l-7 -52l-57 -304h132l-57 304l-7 52h-4zM128 683q0 -22 13.5 -39t35.5 -17q23 0 36.5 16.5 t13.5 39.5t-13.5 40t-36.5 17q-22 0 -35.5 -17t-13.5 -40z" />
<glyph horiz-adv-x="487" d="M247 0v169h-128l-57 -169h-54l222 600h225v-50l-158 13v-225l134 11v-52l-134 11v-272l160 14v-50h-210zM134 213h113v266l5 80h-4l-24 -83z" />
<glyph horiz-adv-x="347" d="M268 145l49 -13q-31 -135 -115 -141l-7 -45q38 -8 59 -32t21 -59q0 -37 -25.5 -58.5t-64.5 -21.5q-32 0 -54.5 19t-27.5 46l33 8q4 -20 18 -31.5t34 -11.5q42 0 42 45q0 54 -85 63l26 79q-64 8 -97.5 79.5t-33.5 228.5q0 168 38.5 239.5t112.5 71.5q49 0 78 -32.5 t45 -106.5l-47 -12q-10 56 -28 83.5t-50 27.5q-50 0 -73 -67t-23 -204q0 -270 96 -270q56 0 79 115z" />
<glyph horiz-adv-x="315" d="M75 0v600h208v-50l-158 13v-225l134 11v-52l-134 11v-272l160 14v-50h-210zM224 643h-29l-120 127h74z" />
<glyph horiz-adv-x="315" d="M75 0v600h208v-50l-158 13v-225l134 11v-52l-134 11v-272l160 14v-50h-210zM165 643h-29l75 127h74z" />
<glyph horiz-adv-x="315" d="M75 0v600h208v-50l-158 13v-225l134 11v-52l-134 11v-272l160 14v-50h-210zM180 780l122 -122l-21 -21l-101 76l-101 -76l-21 21z" />
<glyph horiz-adv-x="315" d="M75 0v600h208v-50l-158 13v-225l134 11v-52l-134 11v-272l160 14v-50h-210zM146 724q0 -27 -7 -37t-25 -10t-25.5 10t-7.5 37t7.5 37t25.5 10t25 -10t7 -37zM281 724q0 -27 -7.5 -37t-25.5 -10t-25 10t-7 37t7 37t25 10t25.5 -10t7.5 -37z" />
<glyph horiz-adv-x="260" d="M45 566v34h170v-34h-59v-532h59v-34h-170v34h61v532h-61zM175 643h-29l-120 127h74z" />
<glyph horiz-adv-x="260" d="M45 566v34h170v-34h-59v-532h59v-34h-170v34h61v532h-61zM127 643h-29l75 127h74z" />
<glyph horiz-adv-x="260" d="M45 566v34h170v-34h-59v-532h59v-34h-170v34h61v532h-61zM132 780l122 -122l-21 -21l-101 76l-101 -76l-21 21z" />
<glyph horiz-adv-x="260" d="M45 566v34h170v-34h-59v-532h59v-34h-170v34h61v532h-61zM232 724q0 -27 -7.5 -37t-25.5 -10t-25 10t-7 37t7 37t25 10t25.5 -10t7.5 -37zM97 724q0 -27 -7 -37t-25 -10t-25.5 10t-7.5 37t7.5 37t25.5 10t25 -10t7 -37z" />
<glyph horiz-adv-x="381" d="M33 302v43h42v255h102q80 0 122 -70.5t42 -230.5t-42 -229.5t-122 -69.5h-102v302h-42zM220 302h-95v-259h50q113 0 113 256q0 258 -113 258h-50v-212h95v-43z" />
<glyph horiz-adv-x="426" d="M125 0h-50v600h50l138 -384l40 -130h6l-8 75v439h50v-600h-50l-138 387l-40 130h-6l8 -75v-442zM324 769l25 -12q-26 -54 -46 -78.5t-42 -24.5q-18 0 -35.5 17.5t-32 35t-24.5 17.5q-21 0 -59 -69l-25 12q25 54 46 78.5t45 24.5q19 0 37 -17.5t31.5 -35t21.5 -17.5 q20 0 58 69z" />
<glyph d="M40 300q0 310 149 310q151 0 151 -310t-151 -310q-149 0 -149 310zM93 300q0 -269 96 -269q98 0 98 269q0 270 -98 270q-96 0 -96 -270zM228 643h-29l-120 127h74z" />
<glyph d="M40 300q0 310 149 310q151 0 151 -310t-151 -310q-149 0 -149 310zM93 300q0 -269 96 -269q98 0 98 269q0 270 -98 270q-96 0 -96 -270zM181 643h-29l75 127h74z" />
<glyph d="M40 300q0 310 149 310q151 0 151 -310t-151 -310q-149 0 -149 310zM93 300q0 -269 96 -269q98 0 98 269q0 270 -98 270q-96 0 -96 -270zM190 780l122 -122l-21 -21l-101 76l-101 -76l-21 21z" />
<glyph d="M40 300q0 310 149 310q151 0 151 -310t-151 -310q-149 0 -149 310zM93 300q0 -269 96 -269q98 0 98 269q0 270 -98 270q-96 0 -96 -270zM303 769l25 -12q-26 -54 -46 -78.5t-42 -24.5q-18 0 -35.5 17.5t-32 35t-24.5 17.5q-21 0 -59 -69l-25 12q25 54 46 78.5t45 24.5 q19 0 37 -17.5t31.5 -35t21.5 -17.5q20 0 58 69z" />
<glyph d="M40 300q0 310 149 310q151 0 151 -310t-151 -310q-149 0 -149 310zM93 300q0 -269 96 -269q98 0 98 269q0 270 -98 270q-96 0 -96 -270zM156 724q0 -27 -7 -37t-25 -10t-25.5 10t-7.5 37t7.5 37t25.5 10t25 -10t7 -37zM291 724q0 -27 -7.5 -37t-25.5 -10t-25 10t-7 37 t7 37t25 10t25.5 -10t7.5 -37z" />
<glyph d="M40 300q0 310 149 310q49 0 82 -32l26 72h40l-39 -108q42 -76 42 -242q0 -310 -151 -310q-47 0 -80 30l-25 -70h-40l38 106q-42 76 -42 244zM93 300q0 -107 12 -181l148 409q-24 42 -64 42q-96 0 -96 -270zM287 300q0 118 -12 180l-147 -408q23 -41 61 -41q98 0 98 269z " />
<glyph horiz-adv-x="389" d="M60 600h50v-376q0 -193 84 -193q85 0 85 193v376h50v-376q0 -234 -135 -234q-134 0 -134 234v376zM222 643h-29l-120 127h74z" />
<glyph horiz-adv-x="389" d="M60 600h50v-376q0 -193 84 -193q85 0 85 193v376h50v-376q0 -234 -135 -234q-134 0 -134 234v376zM191 643h-29l75 127h74z" />
<glyph horiz-adv-x="389" d="M60 600h50v-376q0 -193 84 -193q85 0 85 193v376h50v-376q0 -234 -135 -234q-134 0 -134 234v376zM194 780l122 -122l-21 -21l-101 76l-101 -76l-21 21z" />
<glyph horiz-adv-x="389" d="M60 600h50v-376q0 -193 84 -193q85 0 85 193v376h50v-376q0 -234 -135 -234q-134 0 -134 234v376zM159 724q0 -27 -7 -37t-25 -10t-25.5 10t-7.5 37t7.5 37t25.5 10t25 -10t7 -37zM294 724q0 -27 -7.5 -37t-25.5 -10t-25 10t-7 37t7 37t25 10t25.5 -10t7.5 -37z" />
<glyph horiz-adv-x="346" d="M268 600h58l-128 -315v-285h-50v280l-128 320h58l97 -304zM172 643h-29l75 127h74z" />
<glyph horiz-adv-x="365" d="M125 0h-50v600h50v-100h46q73 0 113.5 -50t40.5 -149q0 -199 -154 -199h-46v-102zM169 457h-44v-312h44q54 0 78.5 38t24.5 118t-24.5 118t-78.5 38z" />
<glyph horiz-adv-x="354" d="M283 0l-32 169h-148l-31 -169h-52l127 600h61l126 -600h-51zM175 569l-7 -52l-57 -304h132l-57 304l-7 52h-4zM79 695v44h197v-44h-197z" />
<glyph horiz-adv-x="354" d="M283 0l-32 169h-148l-31 -169h-52l127 600h61l126 -600h-51zM175 569l-7 -52l-57 -304h132l-57 304l-7 52h-4zM177 655q-38 0 -64.5 29t-39.5 75l21 10q11 -32 33.5 -49.5t49.5 -17.5t49.5 17.5t33.5 49.5l21 -10q-13 -46 -39.5 -75t-64.5 -29z" />
<glyph horiz-adv-x="354" d="M283 0l-32 169h-148l-31 -169h-52l127 600h61l126 -600q-47 -50 -62 -75t-15 -53q0 -22 11.5 -35t32.5 -13q16 0 33 7v-36q-23 -10 -45 -10q-36 0 -59.5 24.5t-23.5 55.5q0 33 18 63.5t68 71.5h-9zM175 569l-7 -52l-57 -304h132l-57 304l-7 52h-4z" />
<glyph horiz-adv-x="347" d="M268 145l49 -13q-32 -142 -126 -142q-74 0 -112.5 71t-38.5 239t38.5 239.5t112.5 71.5q49 0 78 -32.5t45 -106.5l-47 -12q-10 56 -28 83.5t-50 27.5q-50 0 -73 -67t-23 -204q0 -270 96 -270q56 0 79 115zM168 643h-29l75 127h74z" />
<glyph horiz-adv-x="347" d="M268 145l49 -13q-32 -142 -126 -142q-74 0 -112.5 71t-38.5 239t38.5 239.5t112.5 71.5q49 0 78 -32.5t45 -106.5l-47 -12q-10 56 -28 83.5t-50 27.5q-50 0 -73 -67t-23 -204q0 -270 96 -270q56 0 79 115zM190 780l122 -122l-21 -21l-101 76l-101 -76l-21 21z" />
<glyph horiz-adv-x="347" d="M268 145l49 -13q-32 -142 -126 -142q-74 0 -112.5 71t-38.5 239t38.5 239.5t112.5 71.5q49 0 78 -32.5t45 -106.5l-47 -12q-10 56 -28 83.5t-50 27.5q-50 0 -73 -67t-23 -204q0 -270 96 -270q56 0 79 115zM226 720q0 -31 -8 -42t-29 -11t-29 11t-8 42t8 42t29 11t29 -11 t8 -42z" />
<glyph horiz-adv-x="347" d="M268 145l49 -13q-32 -142 -126 -142q-74 0 -112.5 71t-38.5 239t38.5 239.5t112.5 71.5q49 0 78 -32.5t45 -106.5l-47 -12q-10 56 -28 83.5t-50 27.5q-50 0 -73 -67t-23 -204q0 -270 96 -270q56 0 79 115zM191 645l-122 122l21 21l101 -77l101 77l21 -21z" />
<glyph horiz-adv-x="381" d="M75 0v600h102q80 0 122 -70.5t42 -230.5t-42 -229.5t-122 -69.5h-102zM175 557h-50v-514h50q113 0 113 256q0 258 -113 258zM190 645l-122 122l21 21l101 -77l101 77l21 -21z" />
<glyph horiz-adv-x="381" d="M33 302v43h42v255h102q80 0 122 -70.5t42 -230.5t-42 -229.5t-122 -69.5h-102v302h-42zM220 302h-95v-259h50q113 0 113 256q0 258 -113 258h-50v-212h95v-43z" />
<glyph horiz-adv-x="315" d="M75 0v600h208v-50l-158 13v-225l134 11v-52l-134 11v-272l160 14v-50h-210zM80 695v44h197v-44h-197z" />
<glyph horiz-adv-x="315" d="M75 0v600h208v-50l-158 13v-225l134 11v-52l-134 11v-272l160 14v-50h-210zM179 655q-38 0 -64.5 29t-39.5 75l21 10q11 -32 33.5 -49.5t49.5 -17.5t49.5 17.5t33.5 49.5l21 -10q-13 -46 -39.5 -75t-64.5 -29z" />
<glyph horiz-adv-x="315" d="M75 0v600h208v-50l-158 13v-225l134 11v-52l-134 11v-272l160 14v-50h-210zM222 720q0 -31 -8 -42t-29 -11t-29 11t-8 42t8 42t29 11t29 -11t8 -42z" />
<glyph horiz-adv-x="315" d="M75 0v600h208v-50l-158 13v-225l134 11v-52l-134 11v-272l160 14v-50q-47 -50 -62 -75t-15 -53q0 -22 11.5 -35t32.5 -13q16 0 33 7v-36q-23 -10 -45 -10q-36 0 -59.5 24.5t-23.5 55.5q0 33 18 63.5t68 71.5h-168z" />
<glyph horiz-adv-x="315" d="M75 0v600h208v-50l-158 13v-225l134 11v-52l-134 11v-272l160 14v-50h-210zM188 645l-122 122l21 21l101 -77l101 77l21 -21z" />
<glyph horiz-adv-x="363" d="M217 256v28h122q0 -292 -150 -292q-149 0 -149 308q0 168 38.5 239.5t112.5 71.5q99 0 131 -139l-47 -12q-23 111 -86 111q-97 0 -97 -269t98 -269q89 0 96 210zM191 780l122 -122l-21 -21l-101 76l-101 -76l-21 21z" />
<glyph horiz-adv-x="363" d="M217 256v28h122q0 -292 -150 -292q-149 0 -149 308q0 168 38.5 239.5t112.5 71.5q99 0 131 -139l-47 -12q-23 111 -86 111q-97 0 -97 -269t98 -269q89 0 96 210zM189 655q-38 0 -64.5 29t-39.5 75l21 10q11 -32 33.5 -49.5t49.5 -17.5t49.5 17.5t33.5 49.5l21 -10 q-13 -46 -39.5 -75t-64.5 -29z" />
<glyph horiz-adv-x="363" d="M217 256v28h122q0 -292 -150 -292q-149 0 -149 308q0 168 38.5 239.5t112.5 71.5q99 0 131 -139l-47 -12q-23 111 -86 111q-97 0 -97 -269t98 -269q89 0 96 210zM226 720q0 -31 -8 -42t-29 -11t-29 11t-8 42t8 42t29 11t29 -11t8 -42z" />
<glyph horiz-adv-x="363" d="M217 256v28h122q0 -292 -150 -292q-149 0 -149 308q0 168 38.5 239.5t112.5 71.5q99 0 131 -139l-47 -12q-23 111 -86 111q-97 0 -97 -269t98 -269q89 0 96 210zM163 -224h-29l37 172h60z" />
<glyph horiz-adv-x="418" d="M293 0v301h-168v-301h-50v600h50v-255h168v255h50v-600h-50zM209 780l122 -122l-21 -21l-101 76l-101 -76l-21 21z" />
<glyph horiz-adv-x="418" d="M125 600v-117h168v117h50v-117h52v-39h-52v-444h-50v301h-168v-301h-50v444h-52v39h52v117h50zM125 444v-99h168v99h-168z" />
<glyph horiz-adv-x="260" d="M45 566v34h170v-34h-59v-532h59v-34h-170v34h61v532h-61zM240 769l25 -12q-26 -54 -46 -78.5t-42 -24.5q-18 0 -35.5 17.5t-32 35t-24.5 17.5q-21 0 -59 -69l-25 12q25 54 46 78.5t45 24.5q19 0 37 -17.5t31.5 -35t21.5 -17.5q20 0 58 69z" />
<glyph horiz-adv-x="260" d="M45 566v34h170v-34h-59v-532h59v-34h-170v34h61v532h-61zM33 695v44h197v-44h-197z" />
<glyph horiz-adv-x="260" d="M45 566v34h170v-34h-59v-532h59v-34h-35q-47 -50 -62 -75t-15 -53q0 -22 11.5 -35t32.5 -13q16 0 33 7v-36q-23 -10 -45 -10q-36 0 -59.5 24.5t-23.5 55.5q0 33 18 63.5t68 71.5h-93v34h61v532h-61z" />
<glyph horiz-adv-x="260" d="M45 566v34h170v-34h-59v-532h59v-34h-170v34h61v532h-61zM168 720q0 -31 -8 -42t-29 -11t-29 11t-8 42t8 42t29 11t29 -11t8 -42z" />
<glyph horiz-adv-x="331" d="M256 600v-399q0 -211 -117 -211q-52 0 -80.5 35t-38.5 107l49 13q7 -58 22.5 -85t47.5 -27q67 0 67 158v409h50zM225 780l122 -122l-21 -21l-101 76l-101 -76l-21 21z" />
<glyph horiz-adv-x="369" d="M125 0h-50v600h50v-262h44l112 262h62l-144 -281l160 -319h-60l-132 299l1 1h-43v-300zM170 -224h-29l37 172h60z" />
<glyph horiz-adv-x="305" d="M95 0v600h50v-564l160 14v-50h-210zM96 643h-29l75 127h74z" />
<glyph horiz-adv-x="305" d="M95 0v600h50v-564l160 14v-50h-210zM140 -224h-29l37 172h60z" />
<glyph horiz-adv-x="305" d="M95 0v600h50v-564l160 14v-50h-210zM213 426h-30l21 204h56z" />
<glyph horiz-adv-x="305" d="M95 0v600h50v-564l160 14v-50h-210zM260 307q0 -29 -8 -39.5t-27 -10.5q-20 0 -27.5 10.5t-7.5 39.5t7.5 39.5t27.5 10.5q19 0 27 -10.5t8 -39.5z" />
<glyph horiz-adv-x="305" d="M95 0v288l-72 -49v43l72 49v269h50v-243l94 64v-46l-94 -62v-277l160 14v-50h-210z" />
<glyph horiz-adv-x="426" d="M125 0h-50v600h50l138 -384l40 -130h6l-8 75v439h50v-600h-50l-138 387l-40 130h-6l8 -75v-442zM211 643h-29l75 127h74z" />
<glyph horiz-adv-x="426" d="M125 0h-50v600h50l138 -384l40 -130h6l-8 75v439h50v-600h-50l-138 387l-40 130h-6l8 -75v-442zM172 -224h-29l37 172h60z" />
<glyph horiz-adv-x="426" d="M125 0h-50v600h50l138 -384l40 -130h6l-8 75v439h50v-600h-50l-138 387l-40 130h-6l8 -75v-442zM214 645l-122 122l21 21l101 -77l101 77l21 -21z" />
<glyph d="M40 300q0 310 149 310q151 0 151 -310t-151 -310q-149 0 -149 310zM93 300q0 -269 96 -269q98 0 98 269q0 270 -98 270q-96 0 -96 -270zM91 695v44h197v-44h-197z" />
<glyph d="M40 300q0 310 149 310q151 0 151 -310t-151 -310q-149 0 -149 310zM93 300q0 -269 96 -269q98 0 98 269q0 270 -98 270q-96 0 -96 -270zM190 655q-38 0 -64.5 29t-39.5 75l21 10q11 -32 33.5 -49.5t49.5 -17.5t49.5 17.5t33.5 49.5l21 -10q-13 -46 -39.5 -75t-64.5 -29z " />
<glyph d="M40 300q0 310 149 310q151 0 151 -310t-151 -310q-149 0 -149 310zM93 300q0 -269 96 -269q98 0 98 269q0 270 -98 270q-96 0 -96 -270zM128 643h-29l75 127h74zM255 643h-29l75 127h74z" />
<glyph d="M125 0h-50v600h96q73 0 113.5 -42.5t40.5 -126.5q0 -145 -114 -166l134 -265h-60l-116 262h-44v-262zM169 557h-44v-252h44q54 0 78.5 31t24.5 95t-24.5 95t-78.5 31zM180 643h-29l75 127h74z" />
<glyph d="M125 0h-50v600h96q73 0 113.5 -42.5t40.5 -126.5q0 -145 -114 -166l134 -265h-60l-116 262h-44v-262zM169 557h-44v-252h44q54 0 78.5 31t24.5 95t-24.5 95t-78.5 31zM165 -224h-29l37 172h60z" />
<glyph d="M125 0h-50v600h96q73 0 113.5 -42.5t40.5 -126.5q0 -145 -114 -166l134 -265h-60l-116 262h-44v-262zM169 557h-44v-252h44q54 0 78.5 31t24.5 95t-24.5 95t-78.5 31zM193 645l-122 122l21 21l101 -77l101 77l21 -21z" />
<glyph horiz-adv-x="339" d="M249 465q-18 103 -78 103q-31 0 -49.5 -25t-18.5 -68q0 -41 18.5 -66.5t71.5 -71.5q55 -48 80.5 -90.5t25.5 -103.5q0 -72 -35.5 -112.5t-92.5 -40.5q-104 0 -131 139l48 11q18 -107 86 -107q36 0 55 29t19 76q0 49 -20.5 79.5t-73.5 80.5q-37 34 -54.5 53.5t-32.5 52 t-15 71.5q0 67 34 101.5t87 34.5q99 0 123 -134zM162 643h-29l75 127h74z" />
<glyph horiz-adv-x="339" d="M249 465q-18 103 -78 103q-31 0 -49.5 -25t-18.5 -68q0 -41 18.5 -66.5t71.5 -71.5q55 -48 80.5 -90.5t25.5 -103.5q0 -72 -35.5 -112.5t-92.5 -40.5q-104 0 -131 139l48 11q18 -107 86 -107q36 0 55 29t19 76q0 49 -20.5 79.5t-73.5 80.5q-37 34 -54.5 53.5t-32.5 52 t-15 71.5q0 67 34 101.5t87 34.5q99 0 123 -134zM175 780l122 -122l-21 -21l-101 76l-101 -76l-21 21z" />
<glyph horiz-adv-x="339" d="M249 465q-18 103 -78 103q-31 0 -49.5 -25t-18.5 -68q0 -41 18.5 -66.5t71.5 -71.5q55 -48 80.5 -90.5t25.5 -103.5q0 -70 -33 -110t-87 -43l-7 -44q38 -8 59 -32t21 -59q0 -37 -25.5 -58.5t-64.5 -21.5q-32 0 -54.5 19t-27.5 46l33 8q4 -20 18 -31.5t34 -11.5 q42 0 42 45q0 54 -85 63l26 79q-86 15 -108 137l48 11q18 -107 86 -107q36 0 55 29t19 76q0 49 -20.5 79.5t-73.5 80.5q-37 34 -54.5 53.5t-32.5 52t-15 71.5q0 67 34 101.5t87 34.5q99 0 123 -134z" />
<glyph horiz-adv-x="339" d="M249 465q-18 103 -78 103q-31 0 -49.5 -25t-18.5 -68q0 -41 18.5 -66.5t71.5 -71.5q55 -48 80.5 -90.5t25.5 -103.5q0 -72 -35.5 -112.5t-92.5 -40.5q-104 0 -131 139l48 11q18 -107 86 -107q36 0 55 29t19 76q0 49 -20.5 79.5t-73.5 80.5q-37 34 -54.5 53.5t-32.5 52 t-15 71.5q0 67 34 101.5t87 34.5q99 0 123 -134zM173 645l-122 122l21 21l101 -77l101 77l21 -21z" />
<glyph horiz-adv-x="310" d="M180 0h-10l-8 -54q38 -8 59 -32t21 -59q0 -37 -25.5 -58.5t-64.5 -21.5q-32 0 -54.5 19t-27.5 46l33 8q4 -20 18 -31.5t34 -11.5q42 0 42 45q0 54 -85 63l29 87h-10v556h-111v44h270v-44h-110v-556z" />
<glyph horiz-adv-x="310" d="M180 0h-49v556h-111v44h270v-44h-110v-556zM156 645l-122 122l21 21l101 -77l101 77l21 -21z" />
<glyph horiz-adv-x="310" d="M290 600v-44h-110v-232h66v-38h-66v-286h-49v286h-66v38h66v232h-111v44h270z" />
<glyph horiz-adv-x="389" d="M60 600h50v-376q0 -193 84 -193q85 0 85 193v376h50v-376q0 -234 -135 -234q-134 0 -134 234v376zM309 769l25 -12q-26 -54 -46 -78.5t-42 -24.5q-18 0 -35.5 17.5t-32 35t-24.5 17.5q-21 0 -59 -69l-25 12q25 54 46 78.5t45 24.5q19 0 37 -17.5t31.5 -35t21.5 -17.5 q20 0 58 69z" />
<glyph horiz-adv-x="389" d="M60 600h50v-376q0 -193 84 -193q85 0 85 193v376h50v-376q0 -234 -135 -234q-134 0 -134 234v376zM96 695v44h197v-44h-197z" />
<glyph horiz-adv-x="389" d="M60 600h50v-376q0 -193 84 -193q85 0 85 193v376h50v-376q0 -234 -135 -234q-134 0 -134 234v376zM194 655q-38 0 -64.5 29t-39.5 75l21 10q11 -32 33.5 -49.5t49.5 -17.5t49.5 17.5t33.5 49.5l21 -10q-13 -46 -39.5 -75t-64.5 -29z" />
<glyph horiz-adv-x="389" d="M60 600h50v-376q0 -193 84 -193q85 0 85 193v376h50v-376q0 -234 -135 -234q-134 0 -134 234v376zM280 683q0 -37 -23.5 -63t-62.5 -26q-38 0 -61.5 26t-23.5 63t23.5 63t61.5 26q39 0 62.5 -26t23.5 -63zM145 683q0 -22 13.5 -39t35.5 -17q23 0 36.5 16.5t13.5 39.5 t-13.5 40t-36.5 17q-22 0 -35.5 -17t-13.5 -40z" />
<glyph horiz-adv-x="389" d="M60 600h50v-376q0 -193 84 -193q85 0 85 193v376h50v-376q0 -234 -135 -234q-134 0 -134 234v376zM139 643h-29l75 127h74zM266 643h-29l75 127h74z" />
<glyph horiz-adv-x="389" d="M60 600h50v-376q0 -193 84 -193q85 0 85 193v376h50v-376q0 -167 -67 -214q-49 -51 -67.5 -81t-18.5 -57q0 -22 11.5 -35t32.5 -13q16 0 33 7v-36q-23 -10 -45 -10q-36 0 -59.5 24.5t-23.5 55.5q0 59 73 125h-4q-134 0 -134 234v376z" />
<glyph horiz-adv-x="491" d="M20 600h58l86 -495l8 -74h4l8 74l52 217l-53 278h58l75 -495l8 -74h4l8 74l77 495h58l-124 -600h-48l-34 176l-11 82h-4l-14 -82l-41 -176h-48zM247 780l122 -122l-21 -21l-101 76l-101 -76l-21 21z" />
<glyph horiz-adv-x="346" d="M268 600h58l-128 -315v-285h-50v280l-128 320h58l97 -304zM173 780l122 -122l-21 -21l-101 76l-101 -76l-21 21z" />
<glyph horiz-adv-x="346" d="M268 600h58l-128 -315v-285h-50v280l-128 320h58l97 -304zM274 724q0 -27 -7.5 -37t-25.5 -10t-25 10t-7 37t7 37t25 10t25.5 -10t7.5 -37zM139 724q0 -27 -7 -37t-25 -10t-25.5 10t-7.5 37t7.5 37t25.5 10t25 -10t7 -37z" />
<glyph horiz-adv-x="298" d="M44 600h224l-195 -567l182 17v-50h-245l194 566l-160 -16v50zM147 643h-29l75 127h74z" />
<glyph horiz-adv-x="298" d="M268 600l-195 -567l182 17v-50h-245l194 566l-160 -16v50h224zM197 720q0 -31 -8 -42t-29 -11t-29 11t-8 42t8 42t29 11t29 -11t8 -42z" />
<glyph horiz-adv-x="298" d="M10 0l194 566l-160 -16v50h224l-195 -567l182 17v-50h-245zM161 645l-122 122l21 21l101 -77l101 77l21 -21z" />
<glyph horiz-adv-x="339" d="M249 465q-18 103 -78 103q-31 0 -49.5 -25t-18.5 -68q0 -41 18.5 -66.5t71.5 -71.5q55 -48 80.5 -90.5t25.5 -103.5q0 -72 -35.5 -112.5t-92.5 -40.5q-104 0 -131 139l48 11q18 -107 86 -107q36 0 55 29t19 76q0 49 -20.5 79.5t-73.5 80.5q-37 34 -54.5 53.5t-32.5 52 t-15 71.5q0 67 34 101.5t87 34.5q99 0 123 -134zM140 -224h-29l37 172h60z" />
<glyph horiz-adv-x="310" d="M180 0h-49v556h-111v44h270v-44h-110v-556zM128 -224h-29l37 172h60z" />
<glyph horiz-adv-x="491" d="M20 600h58l86 -495l8 -74h4l8 74l52 217l-53 278h58l75 -495l8 -74h4l8 74l77 495h58l-124 -600h-48l-34 176l-11 82h-4l-14 -82l-41 -176h-48zM290 643h-29l-120 127h74z" />
<glyph horiz-adv-x="491" d="M20 600h58l86 -495l8 -74h4l8 74l52 217l-53 278h58l75 -495l8 -74h4l8 74l77 495h58l-124 -600h-48l-34 176l-11 82h-4l-14 -82l-41 -176h-48zM210 643h-29l75 127h74z" />
<glyph horiz-adv-x="491" d="M20 600h58l86 -495l8 -74h4l8 74l52 217l-53 278h58l75 -495l8 -74h4l8 74l77 495h58l-124 -600h-48l-34 176l-11 82h-4l-14 -82l-41 -176h-48zM211 724q0 -27 -7 -37t-25 -10t-25.5 10t-7.5 37t7.5 37t25.5 10t25 -10t7 -37zM346 724q0 -27 -7.5 -37t-25.5 -10t-25 10 t-7 37t7 37t25 10t25.5 -10t7.5 -37z" />
<glyph horiz-adv-x="280" d="M140 780l122 -122l-21 -21l-101 76l-101 -76l-21 21z" />
<glyph horiz-adv-x="280" d="M140 645l-122 122l21 21l101 -77l101 77l21 -21z" />
<glyph horiz-adv-x="280" d="M140 655q-38 0 -64.5 29t-39.5 75l21 10q11 -32 33.5 -49.5t49.5 -17.5t49.5 17.5t33.5 49.5l21 -10q-13 -46 -39.5 -75t-64.5 -29z" />
<glyph horiz-adv-x="192" d="M127 720q0 -31 -8 -42t-29 -11t-29 11t-8 42t8 42t29 11t29 -11t8 -42z" />
<glyph horiz-adv-x="237" d="M201 683q0 -37 -23.5 -63t-62.5 -26q-38 0 -61.5 26t-23.5 63t23.5 63t61.5 26q39 0 62.5 -26t23.5 -63zM66 683q0 -22 13.5 -39t35.5 -17q23 0 36.5 16.5t13.5 39.5t-13.5 40t-36.5 17q-22 0 -35.5 -17t-13.5 -40z" />
<glyph horiz-adv-x="277" d="M249 769l25 -12q-26 -54 -46 -78.5t-42 -24.5q-18 0 -35.5 17.5t-32 35t-24.5 17.5q-21 0 -59 -69l-25 12q25 54 46 78.5t45 24.5q19 0 37 -17.5t31.5 -35t21.5 -17.5q20 0 58 69z" />
<glyph horiz-adv-x="294" d="M49 643h-29l75 127h74zM176 643h-29l75 127h74z" />
<glyph horiz-adv-x="518" d="M383 600h45l-287 -600h-45zM119 606q42 0 65.5 -51t23.5 -137q0 -87 -23.5 -137t-65.5 -50t-65.5 50t-23.5 137q0 86 23.5 137t65.5 51zM119 272q52 0 52 146q0 70 -14 108.5t-38 38.5t-38 -38.5t-14 -108.5q0 -146 52 -146zM403 371q42 0 65.5 -51t23.5 -137 q0 -87 -23.5 -137t-65.5 -50t-65.5 50t-23.5 137q0 86 23.5 137t65.5 51zM403 37q52 0 52 146q0 70 -14 108.5t-38 38.5t-38 -38.5t-14 -108.5q0 -146 52 -146zM613 371q42 0 65.5 -51t23.5 -137q0 -87 -23.5 -137t-65.5 -50t-65.5 50t-23.5 137q0 86 23.5 137t65.5 51z M613 37q52 0 52 146q0 70 -14 108.5t-38 38.5t-38 -38.5t-14 -108.5q0 -146 52 -146z" />
<glyph horiz-adv-x="357" d="M0 334v39h42q8 127 45.5 182.5t103.5 55.5q49 0 78 -32.5t45 -106.5l-47 -12q-10 56 -28 83.5t-50 27.5q-83 0 -94 -198h151l-13 -39h-140v-34v-39h111l-12 -39h-97q11 -192 94 -192q56 0 79 115l49 -13q-32 -142 -126 -142q-65 0 -102.5 54t-46.5 178h-42v39h40v39v34 h-40z" />
<glyph horiz-adv-x="166" d="M148 803h-29l-120 127h74z" />
<glyph horiz-adv-x="166" d="M38 867q0 -27 -7 -37t-25 -10t-25.5 10t-7.5 37t7.5 37t25.5 10t25 -10t7 -37zM193 867q0 -27 -7.5 -37t-25.5 -10t-25 10t-7 37t7 37t25 10t25.5 -10t7.5 -37z" />
<glyph horiz-adv-x="166" d="M-25 830v44h217v-44h-217z" />
<glyph horiz-adv-x="166" d="M47 803h-29l75 127h74z" />
<glyph horiz-adv-x="166" d="M83 932l122 -122l-21 -21l-101 76l-101 -76l-21 21z" />
<glyph horiz-adv-x="166" d="M83 789l-122 122l21 21l101 -77l101 77l21 -21z" />
<glyph horiz-adv-x="166" d="M83 795q-38 0 -64.5 29t-39.5 75l21 10q11 -32 33.5 -49.5t49.5 -17.5t49.5 17.5t33.5 49.5l21 -10q-13 -46 -39.5 -75t-64.5 -29z" />
<glyph horiz-adv-x="166" d="M120 872q0 -31 -8 -42t-29 -11t-29 11t-8 42t8 42t29 11t29 -11t8 -42z" />
<glyph horiz-adv-x="166" d="M169 830q0 -37 -23.5 -63t-62.5 -26q-38 0 -61.5 26t-23.5 63t23.5 63t61.5 26q39 0 62.5 -26t23.5 -63zM34 830q0 -22 13.5 -39t35.5 -17q23 0 36.5 16.5t13.5 39.5t-13.5 40t-36.5 17q-22 0 -35.5 -17t-13.5 -40z" />
<glyph horiz-adv-x="166" d="M189 919l25 -12q-26 -54 -46 -78.5t-42 -24.5q-18 0 -35.5 17.5t-32 35t-24.5 17.5q-21 0 -59 -69l-25 12q25 54 46 78.5t45 24.5q19 0 37 -17.5t31.5 -35t21.5 -17.5q20 0 58 69z" />
<glyph horiz-adv-x="166" d="M-21 803h-29l75 127h74zM106 803h-29l75 127h74z" />
<glyph horiz-adv-x="110" d="M62 576h-30l21 204h56z" />
<glyph horiz-adv-x="166" d="M89 750h29l-37 -172h-60z" />
<glyph horiz-adv-x="381" d="M62 404l7 35h65l31 161h40l-31 -161h87l31 161h40l-31 -161h65l-7 -35h-65l-40 -208h65l-7 -35h-64l-31 -161h-40l31 161h-87l-31 -161h-40l31 161h-66l7 35h65l40 208h-65zM167 404l-40 -208h87l40 208h-87z" />
<glyph horiz-adv-x="377" d="M315 307q0 -72 -31 -118l63 -48l-37 -37l-47 60q-31 -28 -77 -28q-43 0 -74 26l-45 -58l-37 37l59 46q-31 47 -31 120t32 120l-60 47l37 37l45 -59q33 26 74 26q43 0 76 -28l48 61l37 -37l-63 -49q31 -46 31 -118zM99 307q0 -62 22 -98t65 -36q44 0 66 36t22 98 q0 61 -22.5 97.5t-65.5 36.5t-65 -36.5t-22 -97.5z" />
<glyph horiz-adv-x="313" d="M10 143v39h65v418h208v-50l-158 13v-233l134 11v-52l-134 11v-118h104v-39h-104v-143h-50v143h-65z" />
<glyph horiz-adv-x="305" d="M108 389v-15h121v-39h-121v-73h121v-39h-121v-75q0 -71 -31 -112l206 14v-50h-255l-5 24q36 38 36 118v81h-49v39h49v73h-49v39h49v15q0 221 113 221q41 0 65.5 -29t32.5 -76l-48 -12q-11 77 -52 77q-62 0 -62 -181z" />
<glyph horiz-adv-x="852" d="M125 0h-50v600h96q73 0 113.5 -50t40.5 -149q0 -199 -154 -199h-46v-202zM762 465q-18 103 -78 103q-31 0 -49.5 -25t-18.5 -68q0 -41 18.5 -66.5t71.5 -71.5q55 -48 80.5 -90.5t25.5 -103.5q0 -72 -35.5 -112.5t-92.5 -40.5q-104 0 -131 139l48 11q18 -107 86 -107 q36 0 55 29t19 76q0 49 -20.5 79.5t-73.5 80.5q-37 34 -54.5 53.5t-32.5 52t-15 71.5q0 67 34 101.5t87 34.5q99 0 123 -134zM169 557h-44v-312h44q54 0 78.5 38t24.5 118t-24.5 118t-78.5 38zM458 0h-49v556h-111v44h270v-44h-110v-556z" />
<glyph horiz-adv-x="226" d="M110 359q0 -159 32 -279t74 -163l-24 -24q-56 47 -94 166t-38 300t38 300t94 166l24 -24q-42 -43 -74 -163t-32 -279z" />
<glyph horiz-adv-x="226" d="M116 359q0 159 -32 279t-74 163l24 24q56 -47 94 -166t38 -300t-38 -300t-94 -166l-24 24q42 43 74 163t32 279z" />
<glyph horiz-adv-x="265" d="M219 809h44l-221 -900h-44z" />
<glyph horiz-adv-x="270" d="M230 810v-28l-80 -11v-824l80 -11v-28h-130v902h130z" />
<glyph horiz-adv-x="265" d="M-2 809h44l221 -900h-44z" />
<glyph horiz-adv-x="270" d="M40 782v28h130v-902h-130v28l80 11v824z" />
<glyph horiz-adv-x="244" d="M20 354v31q53 0 74 32.5t21 107.5q0 37 -7.5 102t-7.5 95q0 56 33.5 87t90.5 31v-28q-42 0 -60 -22.5t-18 -68.5q0 -25 8.5 -91t8.5 -101q0 -132 -79 -160q79 -28 79 -159q0 -38 -8.5 -111t-8.5 -101q0 -46 18 -68.5t60 -22.5v-28q-57 0 -90.5 31t-33.5 87q0 33 7.5 104 t7.5 113q0 75 -21 107.5t-74 32.5z" />
<glyph horiz-adv-x="250" d="M152 -134h-54l10 494l-10 480h54l-10 -480z" />
<glyph horiz-adv-x="244" d="M224 385v-31q-53 0 -74 -32.5t-21 -107.5q0 -42 7.5 -113t7.5 -104q0 -56 -33.5 -87t-90.5 -31v28q42 0 60 22.5t18 68.5q0 28 -8.5 101t-8.5 111q0 131 79 159q-43 15 -61 54.5t-18 105.5q0 35 8.5 101t8.5 91q0 46 -18 68.5t-60 22.5v28q57 0 90.5 -31t33.5 -87 q0 -30 -7.5 -95t-7.5 -102q0 -75 21 -107.5t74 -32.5z" />
<glyph horiz-adv-x="250" d="M106 460l-8 380h54l-8 -380h-38zM106 260h38l8 -394h-54z" />
<glyph d="M221 -80h-50l2 111q-105 11 -133 151l44 12q18 -105 90 -123l6 293q-70 60 -95.5 106.5t-25.5 103.5q0 62 32.5 98.5t81.5 44.5l-2 113h50l-3 -112q94 -11 119 -148l-42 -11q-17 102 -78 118l-6 -269q79 -63 105 -110.5t26 -103.5q0 -72 -33.5 -113.5t-89.5 -49.5z M295 194q0 72 -83 155l6 -278q36 7 56.5 39t20.5 84zM106 574q0 -84 74 -154l-6 257q-31 -8 -49.5 -35t-18.5 -68z" />
<glyph d="M225 0h-50l2 98q-107 24 -107 276q0 254 107 278l-2 98h50l-3 -97q79 -14 96 -119l-38 -12q-13 81 -59 92l-6 -224l6 -254q23 7 39.5 32t21.5 62l38 -12q-7 -48 -32.5 -81t-65.5 -40zM113 374q0 -206 65 -235l7 251l-7 221q-65 -29 -65 -237z" />
<glyph d="M133 479v-89h131v-39h-131v-183q0 -85 -35 -133l235 15v-50h-280l-5 24q36 47 36 138v189h-59v39h59v89q0 281 131 281q46 0 73.5 -33t35.5 -88l-48 -12q-11 93 -63 93q-80 0 -80 -241z" />
<glyph d="M317 385q0 -72 -31 -118l63 -48l-37 -37l-47 60q-31 -28 -77 -28q-43 0 -74 26l-45 -58l-37 37l59 46q-31 47 -31 120t32 120l-60 47l37 37l45 -59q32 26 74 26q43 0 76 -28l48 61l37 -37l-63 -49q31 -46 31 -118zM101 385q0 -62 22 -98t65 -36q44 0 66 36t22 98 q0 61 -22.5 97.5t-65.5 36.5t-65 -36.5t-22 -97.5z" />
<glyph d="M10 750h58l124 -354h1l119 354h58l-150 -354h98v-39h-103v-91h103v-39h-103v-227h-50v227h-104v39h104v91h-104v39h98z" />
<glyph d="M25 189v39h80v522h230v-50l-180 13v-304l149 11v-52l-149 10v-150h109v-39h-109v-189h-50v189h-80z" />
<glyph d="M133 479v-23h131v-39h-131v-91h131v-39h-131v-119q0 -85 -35 -133l235 15v-50h-280l-5 24q36 47 36 138v125h-59v39h59v91h-59v39h59v23q0 281 131 281q46 0 73.5 -33t35.5 -88l-48 -12q-11 93 -63 93q-80 0 -80 -241z" />
<glyph d="M11 417v39h57q15 303 159 303q53 0 86 -40t50 -129l-47 -12q-24 141 -91 141q-94 0 -105 -263h158l-13 -39h-146v-43v-48h117l-12 -39h-103q11 -257 104 -257q71 0 101 145l49 -13q-37 -172 -148 -172q-143 0 -159 297h-57v39h55v48v43h-55z" />
<glyph horiz-adv-x="471" d="M130 0h-50v750h50v-332h55l142 332h62l-175 -351l196 -399h-60l-167 379l1 1h-54v-380zM463 770h29l-37 -172h-60z" />
<glyph horiz-adv-x="570" d="M220 0h-50v750h50l176 -507l48 -167h4l-8 103v571h50v-750h-50l-176 508l-48 167h-4l8 -103v-572zM54 576h-36l61 204h66z" />
<glyph d="M339 375q0 -184 -38.5 -284.5t-110.5 -100.5t-110.5 100.5t-38.5 284.5t38.5 284.5t110.5 100.5t110.5 -100.5t38.5 -284.5zM85 375q0 -145 27 -238.5t78 -93.5t78 93.5t27 238.5t-27 238.5t-78 93.5t-78 -93.5t-27 -238.5z" />
<glyph d="M179 750h50v-706h118v-44h-300v44h132v662l-96 -147l-39 33z" />
<glyph d="M95 33l231 17v-50h-284q0 58 34.5 149t96.5 185q111 168 111 260q0 126 -86 126q-41 0 -67.5 -36.5t-36.5 -105.5l-47 12q29 170 152 170q136 0 136 -166q0 -57 -27 -115.5t-95 -166.5q-107 -169 -118 -279z" />
<glyph d="M148 382h-9v44h9q138 0 138 168q0 60 -20.5 93t-59.5 33q-37 0 -64 -37t-36 -105l-47 12q28 170 145 170q133 0 133 -166q0 -38 -10 -74t-36.5 -69t-65.5 -44q52 -18 83 -71t31 -131q0 -110 -41.5 -162.5t-113.5 -52.5q-118 0 -147 172l49 13q10 -69 36 -107t64 -38 q52 0 77 41.5t25 131.5q0 35 -5 63t-18.5 56t-43 44t-73.5 16z" />
<glyph d="M301 0h-50v200h-225l-6 29l233 521h48v-509l65 4v-45h-65v-200zM77 228l174 10v352l6 92h-4l-31 -83z" />
<glyph d="M126 496l-9 -47l3 -2q10 13 30 22q23 11 53 11q53 0 93 -59.5t40 -175.5q0 -131 -41.5 -193t-113.5 -62q-118 0 -147 172l49 13q10 -69 36 -107t64 -38q52 0 77 51.5t25 161.5q0 96 -26.5 147.5t-72.5 51.5q-47 0 -88 -53l-28 14l23 347h217v-50l-170 14z" />
<glyph d="M92 375l-6 -55l4 -1q6 16 20 36q45 65 110 65q50 0 87.5 -51t37.5 -154q0 -116 -42.5 -170.5t-100.5 -54.5q-26 0 -45 6t-42.5 28.5t-38 62t-25 113t-10.5 175.5q0 92 10 162t25.5 111.5t37 67.5t41.5 35t43 9q109 0 135 -170l-47 -12q-9 72 -33.5 107t-56.5 35 q-104 0 -104 -345zM209 385q-33 0 -64 -30.5t-51 -74.5q4 -80 15 -133.5t27.5 -77t31.5 -31.5t34 -8q39 0 65.5 44t26.5 139q0 86 -24 129t-61 43z" />
<glyph d="M35 750h318l-229 -750h-48l219 717l-260 -17v50z" />
<glyph d="M340 178q0 -81 -40.5 -134.5t-109.5 -53.5q-75 0 -112 49.5t-37 137.5q0 61 33.5 119t83.5 100q-50 45 -76 88t-26 107q0 72 33.5 120.5t100.5 48.5q68 0 100.5 -42t32.5 -115q0 -59 -29 -111t-73 -83q37 -33 59 -58.5t41 -72t19 -100.5zM85 182q0 -72 28 -112t77 -40 q43 0 73 40t30 99q0 48 -19 89.5t-39 63.5t-58 56q-92 -89 -92 -196zM279 597q0 52 -20.5 87.5t-68.5 35.5q-32 0 -53 -23.5t-27.5 -50t-6.5 -52.5q0 -36 15.5 -68t33.5 -51t50 -48q35 35 56 81.5t21 88.5z" />
<glyph d="M38 535q0 116 42.5 170.5t100.5 54.5q25 0 44.5 -6t42 -28.5t37 -62t24.5 -113t10 -175.5q0 -92 -9.5 -162t-24.5 -111.5t-36 -67.5t-41 -35t-43 -9q-109 0 -135 170l47 12q9 -72 33.5 -107t56.5 -35q101 0 101 345l6 48l-4 1q-5 -14 -20 -36q-40 -58 -97 -58 q-54 0 -94.5 51t-40.5 154zM184 365q29 0 56.5 28.5t45.5 70.5q-4 82 -14.5 136.5t-26.5 79t-30.5 32.5t-33.5 8q-39 0 -65.5 -44t-26.5 -139q0 -86 27 -129t68 -43z" />
<glyph horiz-adv-x="252" d="M126 606q42 0 65.5 -51t23.5 -137q0 -87 -23.5 -137t-65.5 -50t-65.5 50t-23.5 137q0 86 23.5 137t65.5 51zM126 272q52 0 52 146q0 70 -14 108.5t-38 38.5t-38 -38.5t-14 -108.5q0 -146 52 -146z" />
<glyph horiz-adv-x="181" d="M84 600h40v-365h-40v333l-43 -64l-29 24z" />
<glyph horiz-adv-x="217" d="M24 235q0 60 68 164q55 84 55 126q0 51 -39 51q-18 0 -31.5 -15.5t-17.5 -43.5l-38 6q8 42 32 62.5t55 20.5q35 0 57 -19.5t22 -61.5q0 -12 -2 -23t-9.5 -26.5t-11.5 -23t-18.5 -31.5t-19.5 -33q-52 -89 -59 -123l112 13v-43h-155z" />
<glyph horiz-adv-x="222" d="M84 417h-4v31h4q32 0 49.5 21.5t17.5 55.5q0 52 -39 52q-40 0 -48 -60l-38 10q18 79 86 79q37 0 58 -22t21 -59q0 -31 -18 -57.5t-49 -33.5q31 -8 49.5 -33t18.5 -65q0 -53 -25 -79t-65 -26q-74 0 -87 80l39 10q9 -61 49 -61q49 0 49 75q0 82 -68 82z" />
<glyph horiz-adv-x="232" d="M173 230h-40v92h-112l-6 29l120 249h38v-246l42 3v-35h-42v-92zM55 345l78 6v118l7 85l-5 1l-23 -63z" />
<glyph horiz-adv-x="222" d="M60 321q9 -61 46 -61q50 0 50 94q0 89 -55 89q-20 0 -42 -16l-25 12l12 161h137v-41l-100 13l-8 -113q19 13 41 13q34 0 57 -29t23 -88q0 -124 -91 -124q-68 0 -84 80z" />
<glyph horiz-adv-x="234" d="M69 418v-15q23 47 66 47q27 0 49 -27.5t22 -81.5q0 -57 -25 -83.5t-60 -26.5q-19 0 -33 5.5t-28.5 23t-22.5 57.5t-8 101q0 188 90 188q64 0 81 -81l-38 -8q-8 59 -43 59q-50 0 -50 -158zM125 423q-31 0 -55 -49q2 -48 11 -74.5t18 -32.5t22 -6q45 0 45 79 q0 42 -11.5 62.5t-29.5 20.5z" />
<glyph horiz-adv-x="207" d="M21 600h170l-112 -365h-40l103 337l-121 -13v41z" />
<glyph horiz-adv-x="211" d="M192 324q0 -40 -24 -66.5t-63 -26.5t-62.5 25.5t-23.5 66.5q0 62 63 107q-56 46 -56 97q0 35 20.5 59t58.5 24q36 0 57.5 -21.5t21.5 -55.5q0 -57 -60 -94q22 -18 33.5 -30t23 -35t11.5 -50zM54 326q0 -30 15 -47.5t36 -17.5t36 16.5t15 41.5q0 23 -9.5 42.5t-20.5 30.5 t-30 27q-42 -42 -42 -93zM149 530q0 22 -12 36t-32 14q-23 0 -32.5 -16.5t-9.5 -35.5q0 -38 48 -77q38 36 38 79z" />
<glyph horiz-adv-x="244" d="M115 261q26 0 39.5 33.5t13.5 124.5v15q-24 -47 -66 -47q-27 0 -49 27.5t-22 81.5q0 57 25 83.5t60 26.5q19 0 33 -5.5t28.5 -23t22.5 -57.5t8 -101q0 -188 -94 -188q-63 0 -80 81l38 8q9 -59 43 -59zM112 414q31 0 54 48q-2 48 -11 75t-18 33t-21 6q-45 0 -45 -79 q0 -42 11.5 -62.5t29.5 -20.5z" />
<glyph horiz-adv-x="92" d="M167 600h45l-287 -600h-45z" />
</font>
</defs>
</svg>
