<?xml version="1.0" encoding="utf-8"?>
<!-- Generator: Adobe Illustrator 18.0.0, SVG Export Plug-In . SVG Version: 6.00 Build 0)  -->
<!DOCTYPE svg PUBLIC "-//W3C//DTD SVG 1.1//EN" "http://www.w3.org/Graphics/SVG/1.1/DTD/svg11.dtd">
<svg version="1.1" id="Layer_1" xmlns="http://www.w3.org/2000/svg" xmlns:xlink="http://www.w3.org/1999/xlink" x="0px" y="0px"
	 viewBox="0 0 106 640" enable-background="new 0 0 106 640" xml:space="preserve">
<g>
	<path fill="#FFFFFF" d="M49.4,95.7l5.1,0L0.3,74.1l0-18.5l54.2-21.3l-4.3,0L0.3,33.1l0-31.7L105,5.7l0,35.5L54.5,62.1
		c-3.1,1.4-6.3,2.2-8.2,2.7c1.9,0.5,5.1,1.4,8.2,2.6l50.4,21.1l0,35.7L0.3,128.5l0-32.1L49.4,95.7z"/>
	<path fill="#FFFFFF" d="M19.2,165.3l0-27.6l85.1,30.5l0,35.6l-85.1,30.5v-27.5l12.7-4.2l0-33.3L19.2,165.3z M74.4,188.6
		c3.5-1.3,6.4-2,8.9-2.6c-2.5-0.6-5.4-1.4-8.9-2.5L54,176.6l0,18.7L74.4,188.6z"/>
	<path fill="#FFFFFF" d="M80.7,277l-61.5,0l0-25.9l61.5,0l0-25.2l23.6,0l0,76.4l-23.6,0L80.7,277z"/>
	<path fill="#FFFFFF" d="M19.2,363.5l30.8,0l0-27.5l-30.8,0l0-26.1l85.1,0l0,26.1l-30.5,0l0,27.5l30.5,0l0,26.1l-85.1,0L19.2,363.5z
		"/>
	<path fill="#FFFFFF" d="M19.2,403.3l85.1,0l0,64.6l-21.8,0l0-38.8l-10.9,0l0,32.9l-20.4,0l0-32.9l-10.2,0l0,39.9l-21.9,0
		L19.2,403.3z"/>
	<path fill="#FFFFFF" d="M60.3,559.1c-29,0-42.4-12.8-42.4-39.7c0-26.8,13.5-39.6,42.4-39.6l43.9,0l0,25.9l-43.9,0
		c-13.1,0-18.7,4.6-18.7,13.7c0,9.2,5.6,13.8,18.7,13.8l43.9,0l0,25.9L60.3,559.1z"/>
	<path fill="#FFFFFF" d="M79.7,631.5c3.9-13.3,5.3-21.5,5.2-28.2c0-5.2-1.4-6.6-3.8-6.6c-4,0-4.2,5-9.1,18.8
		c-4.5,12.6-9.2,23-25.7,23c-18.4,0-28.5-13-28.5-33.1c0-12.8,4.2-27.6,11.3-40.2L49,574c-6.4,12.4-9.6,23.6-9.6,30.3
		c0,4.6,1.7,6.1,4.3,6.1c3.6,0,4.3-4.3,8.9-18.4c5.3-15.9,11.4-23.4,26.1-23.4c18.4,0,26.9,11.9,26.9,31.5c0,13-1.7,23.6-6.3,37.9
		L79.7,631.5z"/>
</g>
</svg>
